<?xml version="1.0" standalone="no"?>
<!DOCTYPE svg PUBLIC "-//W3C//DTD SVG 1.1//EN" "http://www.w3.org/Graphics/SVG/1.1/DTD/svg11.dtd" >
<svg xmlns="http://www.w3.org/2000/svg" xmlns:xlink="http://www.w3.org/1999/xlink" version="1.1">
<metadata>
Created by FontForge 20141024 at Tue Dec 22 18:39:05 2015
 By Jimmy Warting
Copyright (c) 1998 Adobe Systems Incorporated.  All Rights Reserved. Patent pending.Voluta Script is a trademark of Adobe Systems Incorporated.
</metadata>
<defs>
<font id="VolutaScript" horiz-adv-x="250" >
  <font-face 
    font-family="Voluta Script"
    font-weight="400"
    font-style="italic"
    font-stretch="normal"
    units-per-em="1000"
    panose-1="2 0 5 3 6 0 0 9 0 2"
    ascent="800"
    descent="-200"
    x-height="113"
    cap-height="533"
    bbox="-253 -598 1093 758"
    underline-thickness="20"
    underline-position="-64"
    slope="-35"
    unicode-range="U+0020-FB02"
  />
<missing-glyph horiz-adv-x="109" 
 />
    <glyph glyph-name=".notdef" horiz-adv-x="109" 
 />
    <glyph glyph-name=".null" horiz-adv-x="0" 
 />
    <glyph glyph-name="nonmarkingreturn" horiz-adv-x="109" 
 />
    <glyph glyph-name="space" unicode=" " horiz-adv-x="109" 
 />
    <glyph glyph-name="space" unicode="&#xa0;" horiz-adv-x="109" 
 />
    <glyph glyph-name="dollar" unicode="$" horiz-adv-x="368" 
d="M94 -89q-4 2 -8 4.5t-19 10.5q-11 14 -15.5 23t-9.5 25q-1 5 -1 14q0 26 11 47l3 10q14 23 23 36t35 16q15 -9 25 -19q8 -9 13.5 -12.5t10.5 -3.5q8 0 13 7q2 11 3 18t1 12q0 12 -12.5 22t-24.5 10q-7 0 -20 -3l-16.5 -11t-8 -6t-9 -8t-20.5 -18q-14 -17 -21 -26.5
t-11.5 -18t-7.5 -18.5t-8 -28q-1 -11 -1.5 -18.5t-0.5 -12.5q0 -11 3.5 -18t12.5 -26q9 -10 14 -15t10 -7t11.5 -3t18.5 -2q5 -1 12.5 -1.5t7.5 -12.5q-6 -9 -9 -12l-5 -5t-3.5 -5t-3.5 -12q-4 -8 -6 -12.5t-2.5 -8t0 -7.5t0.5 -10q0 -5 2 -5t8.5 7t8.5 10q3 10 3.5 13
t2 3.5t4.5 2t10 10.5l8 30q7 7 9 10t3.5 4t3.5 1h8q10 4 20 6.5t19 5.5q22 10 40 25t35 30q12 15 21 26.5t16.5 22t13 22.5t11.5 28l4 7q0 1 2 9q7 10 7 22q0 5 -2 15q2 6 3 18.5t1 24.5q0 19 -4 26q-2 9 -2.5 12.5t-0.5 4.5q0 2 -1 3.5t-4 6.5l-9 37l5 7l2 9l10 13l4 9
l17 21l33 13l18 13q11 13 22 26.5t11 27.5q0 7 -0.5 12.5t-7.5 13.5q-1 4 -1.5 5t-0.5 3l4 9q9 10 12.5 14t6 7t5.5 8.5t11 19.5l37 57q0 4 -1 4q-6 0 -12 -5.5t-12 -12.5t-10.5 -13.5t-6.5 -8.5l-35 -52q-9 -11 -10 -17t-7 -6q-4 0 -13 3l-16 1q-40 -8 -68.5 -29.5
t-45.5 -61.5q-15 -35 -15 -61q0 -19 2.5 -32t13.5 -32q4 -11 -4.5 -26t-15.5 -25q-1 -2 -3 -4.5t-8 -10.5q-2 -3 -6.5 -14t-10 -23t-10 -22.5t-5.5 -13.5l-24 -46q-8 -16 -17.5 -28.5t-17.5 -26.5l-17 -34q-5 -11 -8 -17.5t-14 -6.5h-17zM379 324q-7 0 -7 2t1 4t3 7
q4 7 8.5 12t4.5 13l8.5 8.5t3.5 4t1.5 3.5t2.5 8q3 2 4 3.5t3 1.5l7 -9q-1 -13 -2.5 -20.5t-5 -13t-9 -10t-14.5 -12.5zM370 356l-9 -17l-9 -11l-7.5 -7.5t-4 -4.5t-2.5 -5.5t-2 -10.5q-6 -6 -7.5 -8t-1.5 -4q0 -1 -0.5 -3t-4.5 -7q0 -1 -2.5 -4t-4.5 -3q-1 0 -6 5
q-8 11 -11 20t-3 22q0 31 30 62q6 2 8 3t4 2.5t5.5 4.5t13.5 11q12 2 16.5 4t6.5 2t3.5 -1.5t6.5 -3.5q7 -2 6 -4t-3 -7zM153 -74q4 7 6 9.5t3 4t2 4t3 9.5q7 11 9 14.5t3.5 7t4.5 10t12 22.5l9 20q9 21 21.5 41t21.5 40l13 19q4 8 5 11.5t2 5.5t4 6.5t6.5 9.5t6 8.5
t3.5 3.5q2 0 1 -2t2 -7l3 -14q5 -12 7 -22.5t2 -21.5q0 -18 -4 -37l-2 -12q-2 -4 -3 -5t-1 -3q0 -1 -0.5 -3t-1.5 -7l-4 -8t-2 -3.5t-1.5 -4t-1.5 -8.5q-10 -14 -17.5 -23.5t-15 -17.5t-16 -15.5t-21.5 -17.5q-12 -8 -19 -12t-12 -7t-10 -4.5t-14 -4.5q-5 1 -5 5z" />
    <glyph glyph-name="percent" unicode="%" horiz-adv-x="444" 
d="M262 23q0 13 7 28.5t17 18.5q2 0 3.5 0.5t3.5 0.5q8 3 10 7q2 3 3 5.5t1 5.5l-1 2q0 3 -3 3q-4 0 -11 -4.5t-13.5 -10.5t-12 -11.5l-6.5 -6.5q-10 -11 -20.5 -28t-15.5 -31q-2 -5 -3.5 -9t-1.5 -9v-5q2 -9 9 -12t15 -3h5q14 3 34 14.5t40.5 28t38 37t27.5 42.5l-5 15
q-6 11 -16 11q-3 0 -5 -1q-11 -2 -18 -7t-7 -10q0 -6 11 -13q3 -3 3 -6q0 -1 0.5 -2t0.5 -3q0 -6 -2.5 -13t-6.5 -12q-17 -15 -27 -23.5t-33 -13.5q-3 -1 -8 -1q-11 0 -13 10v6zM192 288q-6 -2 -12 -6.5t-11.5 -10t-8.5 -10.5t-3 -8q2 -5 6 -6.5t8.5 -2t8 -2t4.5 -6.5l1 -1
q-2 -8 -11 -16t-20.5 -15t-24.5 -11.5t-22 -4.5q-6 4 -7 8q-1 1 -1 3q0 8 8 16t17.5 15t17.5 12.5t8 9.5v1h-2q-2 0 -4 -0.5t-4 -0.5q-2 -1 -4.5 -1.5t-4.5 -2.5q-11 -7 -23.5 -12.5t-22.5 -16.5q-3 -3 -8.5 -9.5t-10.5 -14t-8.5 -15.5t-3.5 -14q0 -10 13 -10q7 0 12 1
q5 2 10 3t10 3q15 3 32.5 11t34 19t30 24t18.5 27q4 1 8 1h9q8 0 13.5 0.5t13.5 0.5q12 0 30 6.5t27 12.5q2 -2 3.5 -2.5t1.5 -2.5q-5 -6 -16 -16t-23 -21.5t-23.5 -21.5t-17.5 -16q-35 -33 -70 -68t-71 -70q-12 -12 -27.5 -31t-32 -40.5t-32.5 -43.5t-31 -41q0 -1 -4.5 -8
t-10 -15.5t-9.5 -15.5t-4 -8q0 -3 -3.5 -10t-3.5 -12l2 -2q8 1 13 8t12 19q1 1 5.5 7.5t10 13.5t10.5 13.5t7 8.5q10 15 19.5 26.5l19 23t20.5 23.5t25 27q10 10 24 25t28.5 29.5l27 27t19.5 18.5q25 24 44.5 42t35.5 32.5t29.5 26t25.5 23.5q27 25 43.5 40.5t27 24.5
t16 13.5t10.5 7.5q6 0 13 2.5t13.5 6.5t11 9.5t4.5 10.5q0 17 -13.5 20.5t-26.5 -6.5q-11 -10 -33 -24.5t-48 -28.5t-53.5 -24t-49.5 -10q-5 1 -8.5 6.5l-7 11t-7 10t-8.5 4.5h-11z" />
    <glyph glyph-name="ampersand" unicode="&#x26;" horiz-adv-x="338" 
d="M229 79l-14 50l-1.5 7.5t-0.5 4.5q0 5 4 9t18 17q7 4 10 6t5 3.5t4.5 5l7.5 10.5q17 5 33 22.5t28 30.5q16 2 19 12.5t10 24.5q6 8 10 13t6.5 10t4 10.5t3.5 13.5q0 16 -18 16q-5 0 -12 -3.5t-14 -6.5l-26 -15q-39 -22 -64 -54.5t-42 -61.5q-8 -19 -12 -27.5t-5.5 -13.5
t-1.5 -9t-1 -13l-7 -10l-67 -51l-46 -44q-8 -7 -18 -16.5t-20 -20.5t-17 -22.5t-7 -22.5q0 -10 5.5 -16t13 -9t16.5 -4t17 -1q13 0 23.5 4t22.5 18q9 2 13.5 2.5t7 1.5t4.5 2.5t7 5.5q13 5 25 14t23 17l7 7q3 1 7 1q2 0 3 -4t2 -19l3 -53l-3 -7.5t-1 -4.5t-0.5 -5t-0.5 -9
q-4 -18 -8.5 -29t-11.5 -20.5t-16 -20t-22 -27.5q-9 -13 -16.5 -15t-14.5 -2h-1q-8 0 -10 3t-2 11q0 16 -13 16q-8 0 -16.5 -8t-8.5 -21q0 -26 23 -26q14 0 35 9l30 22q22 20 34.5 36.5t29.5 40.5q5 7 10 20.5t9.5 28.5t7.5 29.5t3 25.5q3 6 4.5 17t1.5 22t-0.5 20.5
t-1.5 16.5l1 15l31 42q10 10 17 16t12 9t9 4.5t9 2.5q5 0 13 -3.5t13 -3.5q11 0 26 18l-2 10q-5 5 -11.5 8t-12.5 3q-7 0 -15 -5l-24 -15q-18 -16 -34.5 -30.5t-33.5 -33.5zM213 172l3 4.5t1.5 3.5t0.5 5q0 4 1 11q5 12 9.5 23.5t14.5 24.5q11 14 26 31.5t28 27.5
q15 11 25.5 18.5t21.5 7.5t11.5 -8t0.5 -10q0 -11 -10 -25t-18 -24l-46 -47l-56 -40q-6 -5 -9 -5zM52 7l19.5 19.5t18.5 19.5l5 3l12 15q14 9 25.5 18t23.5 20q7 3 11 5t6 2t7 -12l7 -35q6 -18 6 -24q0 -7 -5 -12.5t-16 -18.5q-24 -19 -33.5 -26.5t-17.5 -11.5
q-14 -8 -28.5 -14t-31.5 -6q-13 0 -17 7.5t-5 26.5z" />
    <glyph glyph-name="quoteright" unicode="&#x2019;" horiz-adv-x="215" 
d="M236 377q0 8 -2.5 16.5t-8.5 8.5q-8 0 -15 -4.5t-12.5 -11t-9 -13t-3.5 -10.5t-1 -8.5t-1 -9.5q0 -4 1 -5q-3 -14 -12 -26.5t-18.5 -23t-17 -18.5t-7.5 -13q0 -3 4 -4q11 4 23 13t21 17q28 24 43.5 43.5t15.5 48.5z" />
    <glyph glyph-name="parenleft" unicode="(" horiz-adv-x="247" 
d="M409 441q0 3 -3 3q-5 0 -16 -5t-30 -20l-16 -13q-8 -4 -10.5 -5t-4.5 -2.5t-5.5 -4t-13.5 -9.5q-30 -21 -49 -35.5t-34 -28.5t-29.5 -31t-36.5 -44q-19 -23 -30.5 -41.5t-18.5 -35t-12.5 -33.5t-12.5 -36q-2 -26 -9 -51t-7 -53q0 -17 1 -33.5t5 -31.5q1 -8 2 -12.5
t2 -8.5t3 -9t4 -13q9 -17 13.5 -23.5t6 -9.5t2 -5.5t2.5 -11.5l-1 -6l1 -2q3 0 12 3q11 8 13.5 13.5t2.5 17.5l-6 22q-3 15 -6.5 29t-3.5 28q0 16 -1 26.5t-2 19.5t-2 19.5t0 26.5l3 47q4 19 7.5 30.5t7 21.5t8.5 21t11 30q8 13 10.5 20t13.5 18q6 13 15.5 24.5t20 23.5
t21.5 23.5t20 24.5q7 5 10 6.5t4.5 2.5t2 2.5t2.5 5.5l40 41q24 13 34 18t15.5 8.5t11.5 9t24 20.5q8 3 8 8z" />
    <glyph glyph-name="parenright" unicode=")" horiz-adv-x="247" 
d="M17 -149q14 0 29 12t24 21q19 18 27.5 25t12 10.5t7 7.5t12.5 16q8 9 12 12.5t6 6t3.5 5.5t4.5 11q6 7 17.5 21.5t23 32.5t21 36t11.5 32l17 37l2 10q4 7 6 9.5t2.5 4.5t0.5 4q0 3 1 11q10 27 10 60q0 35 -10 65.5t-26 53.5q-5 4 -14.5 16t-16.5 12q-19 0 -19 -19
q15 -20 23.5 -36t12 -32.5t4.5 -35t1 -41.5q0 -39 -7 -71t-19 -59.5t-27 -51.5t-30 -45q-10 -13 -13.5 -17t-6 -7.5t-7.5 -9.5t-19 -22l-32 -37l-33 -31q-16 -13 -17 -15l2 -2h4z" />
    <glyph glyph-name="asterisk" unicode="*" horiz-adv-x="252" 
d="M257 353l6 -14l11 -13q-2 -8 -15 -18.5t-21 -20.5v-1l2 -3l8 2l20 9l17 6l1 1l6 -5l-1 -49l2 -1h3q5 9 6.5 14.5t1.5 9.5q0 5 0.5 9t3.5 10l3 2q8 -2 13.5 -7t10.5 -11q5 -4 9 -4t7 8l-4 10l-13 26q1 4 1.5 4.5t9.5 5.5q5 1 7.5 2t4.5 2t5.5 2.5t10.5 5.5l3 5q1 0 1 2
q0 6 -9 6q-11 0 -26 -5.5t-20 -7.5q-5 2 -5.5 1.5t-0.5 4.5q3 10 7 19.5t7 19.5l1 7l-3 5l-3 -2l-14 -20l-5 -8l-4 -3q-2 -1 -3.5 -2t-2.5 -1q-2 0 -4.5 3.5t-10.5 12.5l-9 4q-9 0 -12 -4.5t-3 -10.5v-8z" />
    <glyph glyph-name="plus" unicode="+" horiz-adv-x="276" 
d="M195 98q-9 7 -9 13q0 7 6.5 13t14.5 16l20 23q-1 13 -7 13q-5 0 -10 -1.5t-10 -3.5q-13 -7 -19 -10.5t-10 -7.5t-7 -9.5t-9 -15.5q-8 -14 -12 -20.5t-12 -9.5t-26 -4.5t-55 -6.5q-7 -3 -11.5 -3.5t-7.5 -1t-4.5 -2t-1.5 -7.5q0 -5 9 -3t11 2q9 0 16 1t13 2t12.5 2t16.5 3
q8 -4 12.5 -3.5t5.5 -6.5l-18 -31l-21 -47q1 -14 8 -14q6 0 11.5 7t10.5 12l36 60q7 8 15 15t20 7h-5q14 0 24.5 3t21.5 3t21 -2t24 1q7 5 7 6q0 5 -16.5 6.5t-33.5 1.5h-31z" />
    <glyph glyph-name="comma" unicode="," horiz-adv-x="182" 
d="M98 49q-2 1 -5 1q-2 0 -8 2q-6 -2 -9 -2q-2 0 -3.5 -1t-2.5 -3.5t-5 -7.5q-1 -5 -1.5 -8.5t-0.5 -5.5q0 -5 2.5 -7.5t10.5 -7.5q13 -10 13 -21q0 -6 -4 -13t-10 -16q-8 -8 -13 -13.5t-10 -9t-12 -7t-18 -8.5q-7 -4 -7 -7q0 -2 10 -7q19 8 31.5 14.5t28.5 22.5
q9 9 14.5 15t8.5 12.5t5 14.5t5 19q0 8 0.5 11.5t0.5 5.5q0 3 -2 5.5t-7 12.5z" />
    <glyph glyph-name="hyphen" unicode="-" horiz-adv-x="167" 
d="M121 103q-5 0 -11.5 -1.5t-17.5 -3.5q-16 -2 -30 -5t-30 -11q-3 -6 -3 -10q0 -5 8 -5q5 0 8 1q32 3 46 6.5t28 3.5q8 0 16 -1t20 -4q6 4 6 12q0 7 -7 13z" />
    <glyph glyph-name="period" unicode="." horiz-adv-x="151" 
d="M104 31q0 11 -11.5 17.5t-21.5 6.5q-8 0 -13.5 -5.5t-5.5 -12.5q0 -11 4.5 -16.5t16.5 -11.5q8 -4 9 -4q8 0 15 9t7 17z" />
    <glyph glyph-name="slash" unicode="/" horiz-adv-x="322" 
d="M473 463q-1 10 -7 10l-2 -1q-13 -3 -20.5 -6t-13 -7.5t-11 -11t-14.5 -16.5q-10 -8 -15.5 -14t-13.5 -15q-6 -8 -10.5 -13.5t-9 -12t-10.5 -15.5t-15 -23q-25 -39 -61.5 -90.5t-75.5 -105t-76.5 -103t-64.5 -84.5q-21 -28 -33 -44.5t-18.5 -27t-11 -18t-10.5 -16.5
q-5 -6 -9.5 -14t9.5 -8q3 0 13.5 11t25 28t30.5 37.5t30 39t24 32.5t13 18l73 105q32 46 65 91.5t67 90.5q17 22 25.5 34t14.5 20l12 16t20 23l23 25z" />
    <glyph glyph-name="zero" unicode="0" horiz-adv-x="175" 
d="M156 117q-9 10 -16 10q-6 0 -15 -4q-6 3 -11 3q-9 0 -19.5 -9t-21.5 -17q-17 -18 -26.5 -27t-15 -15.5t-9 -15t-7.5 -24.5q4 -19 10.5 -25t23.5 -8q13 5 28 13.5t27 18.5q18 19 35 37.5t17 45.5v17zM98 96q2 1 5 1t9 2l11 -2q0 1 4 -8q5 -11 5 -13v-3t-1 -7
q-13 -20 -28 -33t-29 -13h-6q-4 0 -8.5 6t-4.5 12q0 2 1.5 6t3.5 12q2 6 7 14.5t16 15.5z" />
    <glyph glyph-name="one" unicode="1" horiz-adv-x="210" 
d="M74 130q0 -1 -0.5 -3t-0.5 -4q0 -3 2 -3q3 0 5 -2q8 -5 16 -5q2 0 3.5 0.5t2.5 0.5q2 0 5 -3.5t3 -5.5q0 -3 -0.5 -5t-1.5 -4q-11 -23 -20 -46t-23 -33q-2 -3 -9.5 -4.5t-16.5 -1.5h-5l-6 -9q0 -2 3 -6t7 -5q8 2 16 2q11 0 26.5 -1t31.5 -1q14 0 27 1t22 6l-2 5l-8 7
l-14 -3q-6 0 -7.5 1t-5.5 3q-5 2 -4.5 5t-2.5 13q3 9 5 15.5t4.5 13.5t6.5 15.5t10 19.5q8 15 15.5 19.5t11.5 6.5q2 2 6.5 2.5t14.5 4.5q1 2 1 6q0 3 -7 6l-15 3q-10 -2 -23.5 -6t-25.5 -4q-4 0 -8 1t-23 2z" />
    <glyph glyph-name="two" unicode="2" horiz-adv-x="241" 
d="M80 117q7 8 20.5 19.5t25.5 18.5q6 3 11 3q7 0 7 -14q-14 -29 -27.5 -48.5t-28.5 -35.5t-33 -32.5t-40 -38.5q-2 -6 -2 -9q0 -5 3 -5q2 0 7 3q20 9 30.5 14t18.5 5t17 -5.5t24 -18.5q8 -11 11.5 -14t7.5 -3q2 0 4.5 0.5t6.5 1.5q10 5 20.5 11t22.5 13q7 8 15 18.5
t14 18.5v6l-1 2l-6 -2q-10 -9 -22.5 -22.5t-22.5 -13.5q-4 0 -7 3q-9 9 -16 14.5t-13.5 8.5t-14 5t-17.5 5q-9 6 -9 9t1 7q8 9 20.5 18.5t19.5 22.5q10 6 20 15t18.5 19t14 21t5.5 22q0 7 -6.5 17.5t-15.5 10.5q-10 0 -23 -6t-21 -11q-12 -9 -25 -21t-22 -22q-1 -3 -1 -7
q0 -3 4 -3h5z" />
    <glyph glyph-name="three" unicode="3" horiz-adv-x="200" 
d="M172 146q0 9 -5 15t-19 6h-5t-11 -2q-27 -15 -37.5 -20.5t-16.5 -10t-14.5 -12.5t-30.5 -29q-1 -2 -1 -5t4 -3q3 0 5 1l8 5q13 16 26 22t30 17q9 3 14 3q8 0 9.5 -5.5l4.5 -16.5q-3 -24 -23.5 -42.5t-49.5 -37.5l-41 -21q-1 -4 -1.5 -5t-0.5 -2t4 -5q7 1 12 1.5t10 0.5
q11 0 14 -8t12 -22q2 -9 3 -17t1 -15q0 -20 -7.5 -35t-18.5 -38q-11 -13 -13.5 -16.5t-3.5 -6t-3.5 -7t-12.5 -18.5q-17 -13 -28.5 -21t-20.5 -12.5t-16.5 -6.5t-16.5 -3q-7 8 -7 17q0 8 3 14.5t8 13.5q13 10 13 14q0 2 -3 2q-10 0 -26 -12q-7 -9 -11 -15.5t-6.5 -12
t-3 -12.5t-0.5 -18q5 -8 11 -10t12 -2q26 0 46 12t40 27l76 70v8q0 4 1.5 5t9.5 10q7 15 10.5 20.5t5 8.5t2.5 6l4 12q8 23 8 35q0 22 -9 33t-25 25v5q0 1 6 7q13 10 18 13.5t8 6.5t8 9.5t19 21.5q4 6 13 24t9 34z" />
    <glyph glyph-name="four" unicode="4" horiz-adv-x="261" 
d="M210 123l-4 4q0 1 -2 1q-8 0 -17 -8.5t-17.5 -20.5t-14.5 -24t-7 -19l-6 -17l-7 -6h-11q-11 0 -26.5 -1t-29.5 -5q-6 3 -6 7q0 3 4 7.5t10 12.5q14 17 18.5 21.5l6.5 6.5t5.5 6t14.5 21q8 12 14.5 20.5t11.5 16.5t8.5 16.5t5.5 22.5q0 3 -2 6t-5 2l-24 -16
q-6 -9 -8.5 -13t-3.5 -11l-5 -30q-12 -18 -22 -32t-20.5 -26t-23 -23.5t-28.5 -25.5q-19 -18 -19 -25q0 -4 8 -4q7 0 25 5h21q4 0 6.5 1t11.5 5q13 0 18.5 0.5t7.5 0.5h9t14 -5q0 -5 -2.5 -9.5t-3.5 -6.5q-11 -27 -21 -51.5t-14 -35.5q-8 -11 -11.5 -24.5t-8.5 -24.5
l-29 -72q-5 -18 -5 -24t5 -6q4 0 12 3l12 12l1 15q4 8 6.5 11t4.5 5t4.5 6t6.5 13q5 12 7 16l4 8t5 11.5l11 27.5q9 20 13.5 33.5t12.5 30.5q2 9 8 25.5t11 29.5q8 10 25 15t35 9q2 3 4 7.5t2 5.5l-4 7q-10 0 -12 -3t-7 -3h-6q-3 0 -6 2q-7 1 -9 9q0 5 2 9q1 4 5 11t12 24z
" />
    <glyph glyph-name="five" unicode="5" horiz-adv-x="228" 
d="M64 58q-9 -20 -14 -28.5t-5 -14.5q0 -5 4.5 -9.5t14.5 -13.5q5 -11 6.5 -17t1.5 -11t-0.5 -9.5t-0.5 -12.5q0 -5 1 -8.5t6 -17.5q-4 -4 -5 -5.5t-1 -7.5v-14q-10 -23 -18.5 -38t-17.5 -26t-17.5 -18.5t-18.5 -13.5q-11 -7 -26.5 -8.5t-32.5 5.5q-9 8 -11.5 8.5t-2.5 5.5
q0 2 0.5 4t0.5 5q-3 5 -4 5q-2 0 -10 -5q-8 -10 -11.5 -16.5t-3.5 -12.5q0 -14 10 -24.5t24 -10.5q32 0 62 20.5t54 46.5t40 50l20 30q4 10 6 16.5t3.5 12.5t2 12.5t2.5 15.5q-1 22 -3.5 34t-7 19.5t-12 14t-18.5 16.5l-3 4q0 2 0.5 4t3 7l7 14l12.5 25q8 8 10.5 11t5.5 4h7
l12 -2q5 -1 13.5 -1.5t19.5 -0.5q14 6 18.5 9t8 8t10.5 14t27 26l2 7l-3 3q-5 0 -10 -4t-8 -6q-15 -5 -24 -7.5t-19 -2.5q-13 0 -25 2.5t-25 2.5q-14 0 -21 -5.5t-7 -24.5l-9 -35z" />
    <glyph glyph-name="six" unicode="6" horiz-adv-x="195" 
d="M304 367q0 5 -13 5q-9 -5 -12.5 -6t-6 -3.5t-7.5 -7t-18 -15.5q-23 -18 -31.5 -24.5t-14.5 -11.5t-16.5 -15.5t-36.5 -37.5q-15 -21 -28 -38.5t-25 -35.5t-23.5 -39.5t-23.5 -49.5q-7 -17 -11 -35t-4 -37q0 -11 0.5 -16.5t3 -8.5t8 -5.5t15.5 -6.5q20 3 36 10.5t26 16.5
q26 17 43 41.5t17 56.5q0 14 -5 24t-21 10q-17 0 -27.5 -6.5t-15.5 -6.5q-3 0 -3 5q0 3 2.5 8t4.5 15q11 19 17 29l9 15t5.5 7.5t6 7t10 13t18.5 24.5l27 37q6 5 8.5 7t4 4t4 6t10.5 14q11 4 15 5t6.5 2.5t5 5t10.5 12.5l19 12q4 3 7.5 7t3.5 6zM156 122q6 -5 6 -16
q0 -13 -1 -21.5t-4 -15.5t-8 -14t-14 -17q-9 -7 -18 -11.5t-18 -4.5q-8 0 -14 6t-6 22q0 6 2.5 14.5t5.5 15.5q3 5 3.5 6.5t1.5 3t3 5t8 11.5q11 7 25 11.5t26 4.5h2z" />
    <glyph glyph-name="seven" unicode="7" horiz-adv-x="216" 
d="M132 0q7 2 12 6t5 9t-6 11l-14 1q-7 6 -7 8q0 1 4 9q17 16 24.5 22.5t11 10t5.5 7t9 15.5l42 45q3 6 3 9q0 4 -11 4l-26 -18q-21 -6 -28 -6q-6 0 -21 7.5t-26 15.5q-14 3 -16 3q-5 0 -11.5 -12t-29.5 -30q-11 -9 -17.5 -12.5t-6.5 -15.5q0 -2 3 -2q2 0 5 0.5t8 1.5
q10 10 15.5 13.5t18.5 8.5q5 -1 12 -4.5t15 -8t15.5 -7.5t13.5 -2q4 -4 5 -4.5t1 -2.5v-6l-42 -50l-35 -3l-20 -19v-4q0 -2 1 -2q2 0 9 -1q12 -5 15 -4t3 -4v-3l-2 -7l-73 -128q-11 -15 -15 -20.5t-7 -10.5t-8 -16t-20 -37q0 -4 -0.5 -6t-0.5 -3q0 -2 2 -2q1 0 2.5 0.5
t3.5 0.5q8 6 11 7.5t4.5 4t2.5 7t5 15.5l6.5 6.5t2.5 3.5t2.5 6t5.5 13l19 28l17 25.5t7.5 11t3.5 7.5t6 16q6 8 8.5 11t4 5t2 4t2.5 8q8 10 11 14t5.5 7t5.5 8.5t11 20.5q8 9 10 11.5t7 2.5h19z" />
    <glyph glyph-name="eight" unicode="8" horiz-adv-x="200" 
d="M202 254q6 7 9.5 9.5t5 5.5t2 7t1.5 14q8 13 11 17.5t3 7.5t-0.5 9t1.5 23q-6 9 -8.5 14t-13.5 5q-12 0 -20.5 -5.5t-19.5 -15.5q-12 -17 -20.5 -28t-13 -20t-6.5 -17.5t-2 -18.5q0 -9 2.5 -21.5t2.5 -30.5l-39 -49q-18 -23 -30.5 -40t-20.5 -32.5t-11.5 -31.5t-3.5 -38
q0 -14 7 -23.5t22 -9.5q9 0 21 8t20 16l12 4l39 40q6 9 8.5 12t4 6t3.5 7.5t7 16.5q4 11 7 17.5t4.5 10.5t2 7t0.5 6q0 5 0.5 9.5t0.5 9.5q0 20 -3.5 37t-5.5 36zM177 251q-5 0 -6.5 8t-3.5 19q0 10 3 22t8.5 22t13.5 16.5t19 6.5q2 0 3 -5.5t4 -10.5q-1 -14 -1.5 -19.5
t-2 -9t-5.5 -9.5t-11 -21q-5 -5 -9.5 -12t-11.5 -7zM88 10q-15 -4 -26 -4q-16 0 -16 18q0 12 5 40q5 9 7 10.5t2 10.5v1q6 9 14.5 22.5t18.5 27.5t19.5 27.5t17.5 23.5q7 4 12 4q4 0 5 -4.5t1 -11.5v-13t1 -12l-4 -45q-4 -14 -5 -21t-2 -11.5t-4 -9.5t-10 -14l-8.5 -17
t-6.5 -6z" />
    <glyph glyph-name="nine" unicode="9" horiz-adv-x="179" 
d="M153 105q-5 20 -9.5 29t-13.5 9q-6 0 -19 -4t-26 -12q-30 -22 -52.5 -50.5t-22.5 -65.5q1 -8 6.5 -15t18.5 -7q9 0 16.5 4.5t14 10t13 10t12.5 4.5l-7 -16q-4 -8 -4 -11l-31 -64q-22 -36 -37.5 -59.5t-31.5 -43.5t-35.5 -40t-48.5 -48q-3 -8 -3 -9q0 -2 2 -2t3.5 0.5
l4.5 1.5l35 26q22 21 30 28t14 13.5t15 19t34 42.5q9 12 22 27t24 30.5t19 30t8 24.5q6 7 9 9t5 5t5 8.5t9 18.5q4 16 6 24.5t3.5 15.5l3 14l4.5 21zM114 96q0 -21 -14 -54q-14 -8 -16.5 -11.5t-16.5 -3.5q-11 0 -13 9t-2 17q0 13 3.5 21t14.5 23q8 6 16.5 15t14.5 9
q-1 0 5 -2q7 -5 7.5 -10t0.5 -13z" />
    <glyph glyph-name="colon" unicode=":" horiz-adv-x="160" 
d="M126 111q0 8 -8.5 13t-12.5 5q-11 0 -21 -11t-10 -22q0 -8 6.5 -16t15.5 -8q3 0 6 0.5t7 1.5q10 10 12.5 15t4.5 22zM61 31l-18 -16q-5 -7 -5 -13q2 -7 2.5 -9.5t1.5 -4t3 -3t8 -6.5q18 2 20.5 5t11.5 11q4 9 5 12t1 12q0 6 -5 10t-10 4z" />
    <glyph glyph-name="semicolon" unicode=";" horiz-adv-x="182" 
d="M140 126q-4 8 -8 12t-13 4q-13 0 -16 -10.5t-8 -19.5q-1 -5 -1 -8v-4q0 -6 3 -9t14 -8q22 0 25.5 10t3.5 33zM104 13q0 9 -7 15.5t-15 6.5q-12 0 -25.5 -11t-13.5 -22q0 -6 4.5 -9.5t4.5 -12.5q-4 -19 -20.5 -41.5t-31.5 -35.5q-3 -6 -3 -8q0 -4 7 -4q5 0 24.5 18
t38.5 41q16 19 26.5 37t10.5 26z" />
    <glyph glyph-name="less" unicode="&#x3c;" horiz-adv-x="311" 
d="M130 79q19 5 38 7.5t38 9.5q14 2 20 2.5t19 5.5q14 2 26.5 4.5t26.5 5.5q23 5 31.5 9t8.5 6t-3.5 3.5t-8.5 1.5l-15 -5q-7 -1 -14 -1h-14h-2q-4 0 -7.5 -1.5t-7.5 -3.5q-9 -2 -12 -2t-6 -1q-2 -1 -11.5 -2t-21.5 -6q-14 -1 -25.5 -4.5t-25.5 -4.5l-53 -13q-17 -2 -32 -4
t-33 -2q-9 -5 -9 -11q0 -5 13 -8q6 -3 9.5 -4.5t6.5 -2t6 -0.5q4 0 11 -1q13 -8 25 -11t27 -6q8 -5 17.5 -8.5t19.5 -7.5q8 -6 17.5 -10.5t18.5 -9.5l23 -13l38 -2q5 1 12 1q8 2 9.5 4.5t1.5 11.5l-9 9q-14 8 -24.5 12t-25.5 9q-8 3 -10.5 4.5t-4.5 2.5q-7 2 -11 2
q-3 0 -10 5q-16 5 -32 7.5t-30 10.5q-5 0 -13 1t-8 4h3z" />
    <glyph glyph-name="equal" unicode="=" horiz-adv-x="344" 
d="M155 123q-31 0 -43.5 -1.5t-24.5 -9.5l-22 -7q-5 -4 -5 -8q0 -5 11 -5q4 0 10 2q20 3 33.5 4.5l22.5 2.5t15 2t11 1q11 1 29 1t65 1q9 -2 15 -4t12 -2q11 0 21 9v4q-26 8 -47.5 9t-47.5 1h-55zM251 43l7.5 -3t4.5 -2q2 0 7 -0.5t20 -3.5l9 5q0 5 -4.5 8t-10.5 4.5
t-11.5 2.5t-7.5 1l-34 3q-29 3 -48 3q-23 0 -43.5 -2.5t-49.5 -7.5l-31 -11q-4 -5 -4 -9q0 -5 8 -5q4 0 9 0.5t10 0.5q5 3 16 6t24 5.5t26.5 3.5t24.5 1h10t8 -1z" />
    <glyph glyph-name="greater" unicode="&#x3e;" horiz-adv-x="307" 
d="M92 109q6 -3 10 -3l10 -1q15 -5 20.5 -6.5t9.5 -2.5q5 -2 11.5 -3.5t23.5 -6.5q8 -2 11 -3t5 -1q2 -1 15 -2l24 -10q0 -3 -2 -3q-2 -1 -6 -1.5t-9 -2.5l-38 -9l-27 -9q-11 -2 -15 -2h-6q-2 -1 -3 -1t-3 -1l-10 -4q-16 -3 -33 -7t-31 -10q-5 -1 -7 -1h-3l-9 -3
q-3 -1 -10 -1.5t-14 -2t-12 -4.5t-5 -8q0 -4 7 -6q2 -1 4 -1q3 0 7 -1q5 1 8.5 1.5t5.5 0.5l4 1q5 1 9 4t8 5l11 3l27 9q14 2 27.5 5t27.5 8q25 5 52 11.5t51 15.5q16 1 17 2q3 0 4 1l6 2l32 3q8 5 8 10q0 3 -5 8l-17 2l-5 4q-1 1 -2 1l-1 1h-4t-8 2q-3 1 -6 2.5t-8.5 3
t-15 4t-25.5 7.5q-5 2 -7 3l-4 2t-4.5 1.5t-8.5 2.5l-40 14q-12 7 -20 9.5t-16 2.5q-3 0 -10 -1t-14 -3t-12 -5.5t-5 -7.5t4 -8t8 -5z" />
    <glyph glyph-name="question" unicode="?" horiz-adv-x="282" 
d="M334 490q2 1 2 3t-4 2h-3q-5 -2 -14.5 -4.5t-20.5 -7.5l-36 -18q-26 -16 -42.5 -29.5t-39.5 -32.5q-10 -9 -15 -15.5t-10 -11.5q-5 -6 -8 -12.5t-10 -17.5q-2 -7 -4 -12t-2 -10q0 -14 18 -14q15 0 33 5q8 2 14 6t6 7q0 2 -4 2q-2 0 -4 -0.5l-6 -1.5q-2 -1 -5 -1t-5 0.5
t-7 0.5h-3l-4 4l-1 5q0 6 3 11t5 10q16 27 29.5 42t27.5 23q10 9 15.5 14t16.5 11q9 5 11.5 7t4.5 3q1 0 3 2l5 4q8 3 10.5 4t4.5 2l4 2l6 4q11 5 16 5q3 1 7 5zM391 505q3 0 7 -0.5t15 -1.5q11 -9 12.5 -13t3.5 -16l-5 -18q-19 -34 -52 -61.5l-63 -52.5l-44 -36
q-26 -21 -58 -44q-21 -15 -35.5 -27t-27.5 -23.5t-26 -25.5t-30 -33q-2 -4 -4 -7t-4 -5q-4 -6 -7 -12.5t-3 -13.5q0 -9 8 -14q3 -2 15 -2.5t26 -0.5h25t14 1q8 2 18 6.5t10 12.5q0 5 -5 5q-3 0 -7 -1t-8 -1q-14 2 -22 7.5t-8 20.5q0 8 1.5 11.5t4.5 7.5t5.5 7.5t8.5 11.5
q14 15 30 28.5t31 27.5q10 8 19.5 15.5t18.5 16.5l42 33q3 1 7 2.5t6 3.5t4.5 5t10.5 11q4 2 11 7.5t14.5 12t14.5 13t11 9.5q9 5 22 16t26.5 23.5t25.5 25.5t18 22q5 8 9 17t4 17q0 19 -24 26l-11 3q-11 0 -20 -1t-20 -3q-10 -2 -21.5 -4.5t-19.5 -4.5q-2 -1 -5.5 -2.5
t-12.5 -5.5q-4 -3 -4 -4q0 -3 4 -3t6 1q13 4 16 4l4 2l7 4h11zM88 -5q0 5 -11 17l-5 13l-7.5 9t-5.5 3q-6 0 -14 -3.5t-15.5 -8.5t-12.5 -10.5t-5 -8.5q0 -4 7 -11q8 -3 18.5 -8.5t19.5 -5.5q2 0 7 1t10.5 2.5t9.5 4.5t4 6z" />
    <glyph glyph-name="at" unicode="@" horiz-adv-x="535" 
d="M483 158q0 -11 -4.5 -21.5t-6.5 -16.5l-1 -10l-11 -20q-12 -17 -22.5 -28.5t-19.5 -18.5t-18.5 -11.5t-20.5 -8.5h-1q-3 0 -10.5 -2t-10.5 -2q-12 0 -16 4t-7 19q0 7 5 15.5t11 14.5l15 23q-1 8 -3.5 10t-6.5 2q-3 0 -7 -1t-8 -1q-7 0 -12 6q-11 9 -18 9t-19 -10
q-8 -5 -7 -8t1 -6q0 -4 3 -5t6 -1q5 1 10.5 -1t4.5 -9q0 -8 -8.5 -17.5t-20 -17.5t-23.5 -13.5t-18 -5.5q-10 6 -10 13q0 9 4 16.5t9 12.5t9.5 8.5t6.5 4.5q1 3 1 8q0 4 -2 4q-4 0 -11 -6.5t-11 -6.5q-16 -12 -24 -18.5t-11.5 -10.5t-5.5 -8t-7 -13l-3 -7v-9q0 -9 8 -9
q4 0 8.5 1t11.5 3q10 3 14.5 3.5t6.5 1t4.5 1.5t9.5 4q7 2 10 2.5t4.5 1t3 1.5t5.5 5q8 3 15 8t14 11l1 -1q-8 -15 -8 -34q8 -10 15 -11t18 -2l48 12q11 3 20 7.5t26 13.5q13 8 27 21.5t23 27.5q14 20 22 48.5t7 51.5q0 18 -2.5 28.5t-6.5 17t-8 10.5t-8 7q-18 16 -37.5 20
t-42.5 4q-14 0 -32 -1.5t-35 -6.5q-11 -3 -14 -4t-4 -1l-2.5 -0.5t-13.5 -4.5q-10 -4 -15.5 -5.5t-10.5 -3t-11 -4t-16 -9.5q-11 -4 -11.5 -3.5t-5.5 -4.5l-13.5 -7.5t-7.5 -4.5t-6.5 -5t-9.5 -9l-9 -5l-36 -34q-18 -17 -28.5 -28t-18.5 -21.5t-15.5 -23t-17.5 -32.5l-2 -10
q-4 -11 -6.5 -17t-4 -9t-2 -5t-0.5 -6v-14l-3 -16v-6l5 -27v-12l4 -11q5 -16 21.5 -31t30.5 -21q16 -5 29 -7t24 -2q14 0 29.5 2t30.5 4l22 7q8 1 11.5 1.5t5 1t3.5 1.5l8 4q7 1 9.5 1.5t4 1t3.5 1.5l8 4q6 1 8.5 1.5t4 1t3 1.5t6.5 4q5 1 7 1.5t3 1.5t2.5 2t5.5 4l10 1l3 4
l-7 1l-8 -5q-9 -1 -13 -1.5t-6 -1t-5 -2t-10 -4.5q-6 -1 -8 -1.5t-3 -1t-3 -1t-8 -2.5l-51 -5l-6 3h-8q-11 0 -18 1.5t-19 5.5l-19 6q-12 7 -19 10.5t-12 7.5t-9.5 9.5t-10.5 15.5l-6 13l-4 7q-1 3 -2 10t-2.5 15.5l-3 17t-1.5 14.5v4q0 5 0.5 10t2.5 13q4 20 8.5 30
t15.5 26q18 28 39 47.5t49 37.5l13 9q16 8 28 13.5t27 14.5l10 8l3 2l11 4q11 4 15 5.5t17 3.5q7 4 9 4q1 1 12 2q11 3 19 4t16 1q5 0 11.5 -0.5t14.5 -0.5l16 -6q14 -6 25 -10.5t19 -17.5l11 -19q5 -7 6.5 -18t2.5 -21v-8zM214 -130q-10 -1 -20 -1.5t-21 -0.5q-16 0 -31 3
q-12 1 -16 2t-6 12q7 6 17 6q5 0 10.5 -2t13.5 -5l13 -2l6 -3h13l21 -3h2l2 -2z" />
    <glyph glyph-name="A" unicode="A" horiz-adv-x="545" 
d="M631 386l-5 7l-4 1l-25 -8q-23 0 -31 5t-16 25q4 9 5.5 12t2.5 6t2 10t4 24q-3 15 -5.5 25t-7.5 16t-14 10t-26 8q-21 -2 -32.5 -4.5t-20.5 -6t-19 -9.5t-28 -16q-46 -21 -79 -50t-73 -65q-42 -50 -79 -100t-69 -107q-12 -22 -19.5 -39.5t-12 -34t-7.5 -34.5l-7 -42
q2 -11 5 -16.5t7.5 -8t10.5 -2.5q7 0 16 -1q33 5 69 27.5t68 51.5q11 8 15 11t7 5.5t8.5 7t19.5 15.5q14 7 18.5 10t8.5 6t10.5 9t23.5 20q22 19 35 29.5t20.5 16.5t12 10.5t9.5 10.5t14 16.5t25 29.5l34 40l30 39l10 14q5 1 12 1q6 0 6 -3q0 -1 -4 -9l-35 -44
q-31 -40 -56.5 -83t-50.5 -88q-8 -19 -11 -26t-4.5 -11.5t-3 -10.5t-4.5 -24q-6 -17 -6 -28q0 -17 12 -25.5t37 -13.5h20l12 8l16 3q3 1 8.5 5t12 8.5t12.5 9t9 6.5l11 7q12 9 17 13t5 6l-1 1q-7 0 -21 -9l-17 -10q-10 -6 -16.5 -9.5t-12.5 -5.5t-13 -3.5t-17 -3.5l-18 14
q-5 13 -5 23q0 14 6 27.5t12 28.5l14 34q26 43 53 85t54 85l27 28q17 8 22.5 13.5t6.5 26.5zM547 469q0 -2 -2 -7t-5 -16l-1 -24q-10 -13 -18.5 -22.5t-18 -17.5t-20 -15t-23.5 -14q-7 -4 -7 -7t13 -7q10 4 13.5 5.5t5.5 3l6 4.5t14 10q6 7 10 7t4 -5q0 -4 -1 -6l-16 -24
t-8.5 -11.5t-12.5 -15t-27 -33.5q-19 -18 -29.5 -27.5t-16.5 -15.5l-10 -10t-10.5 -11t-17.5 -18t-30 -31q-38 -29 -73.5 -56t-76.5 -51l-33 -12q-11 -3 -16 -3q-6 0 -7.5 2.5t-1.5 7.5q0 4 0.5 9t0.5 11l9 37q4 17 6 23.5t4 11t7 11t16 24.5q2 20 14.5 34t23.5 31
q15 24 18.5 33t7.5 12q11 7 18.5 15t14.5 24q2 2 4.5 5t7.5 8t13 14.5t20 25.5l22 20q15 14 23.5 21.5t13.5 12.5t8.5 7.5t9.5 6.5t16 10.5t28 18.5q17 7 32 15t32 16q11 -3 16 -3.5t7 -1.5t4.5 -2.5t8.5 -6.5q5 -11 7.5 -15.5t2.5 -7.5z" />
    <glyph glyph-name="B" unicode="B" horiz-adv-x="562" 
d="M537 306q21 16 40 29.5t39 34.5l6 2l32 38l1 7q5 8 7.5 11.5t3.5 5.5t2.5 4.5t4.5 9.5l4.5 6t2 3l1.5 3t3 7q6 10 8.5 13.5t3.5 6t2 7.5t3 17q0 12 -0.5 19.5t-2.5 11.5t-7.5 5.5t-15.5 2.5l-33 -5q-29 -9 -49 -19t-38 -22t-36 -26t-42 -31l-13 -5l-2 2l-1 6v7
q0 16 -1 31t-6.5 27t-17 19.5t-32.5 8.5l-35 -14t-29 -12.5t-27.5 -15.5t-30.5 -23q-14 -8 -18 -10t-8 -6t-12.5 -13t-30.5 -30q-17 -20 -31.5 -37t-26 -34t-19 -37t-9.5 -46q8 -15 12 -17.5t18 -4.5l18 9h8l13 2q31 15 31 25q0 3 -5 3l-36 -16q-14 -3 -18 -3q-5 0 -7.5 4
t-6.5 15l5 33q4 7 6.5 9.5t3 4t1 3.5t2.5 8l8 8t3 3.5t2 4.5t4 11l24 29l45 51q7 2 9.5 3t4.5 2.5t5 5.5t11 12q5 1 6.5 1.5l3 1t3 2.5t6.5 6l18 13l55 26q4 1 10 1q10 0 14.5 -6.5t10.5 -19.5q0 -20 -1.5 -35t-4.5 -29t-8 -28.5t-11 -32.5q-43 -43 -79.5 -89t-73.5 -94
q-33 -43 -60.5 -87t-44.5 -97q-1 -8 -1 -14v-12q0 -11 4.5 -15.5t21.5 -7.5l7 2q9 1 12 1t5 1t5 3t11 7q6 5 8 6.5t4 2.5q11 8 15 12t13 12q2 2 7 6l20 16q8 17 21 34t24 33q6 12 8 17t4 9t5.5 8t11.5 12q2 9 7.5 19t12 20.5t13.5 20.5t12 18q1 6 1 8q0 3 1 4.5t2.5 3
l6.5 6.5q2 7 3.5 13t4.5 12q1 6 1.5 8t1 3.5t2 3t4.5 6.5q5 14 12 27.5t7 27.5q0 4 1.5 6t6.5 13q2 11 4.5 18t5.5 12.5t8.5 11.5t13.5 16q10 12 17 20t14.5 14.5t17 13.5t26.5 18l42 26q8 5 21.5 13.5t26.5 8.5q10 0 13 -4t3 -11q0 -8 -3 -17q-6 -27 -22 -54.5t-37 -53
t-44 -48t-44 -40.5q-12 -6 -19 -8t-7 -13q0 -4 6 -4h7l13 6l8 1q10 -12 14.5 -18t7 -11t3.5 -12.5t4 -20.5l-3 -25q-3 -20 -7 -38t-10.5 -36.5t-15.5 -38t-20 -42.5l-37 -43q-14 -8 -20.5 -11.5t-14.5 -3.5q-4 0 -9 1t-13 3q-12 11 -17 13.5t-16 6.5q-12 -6 -18.5 -14
t-11.5 -19q2 -12 4.5 -18t6 -9t9.5 -3.5t16 -0.5q16 3 27.5 6.5t21 8t19 11t21.5 16.5l11 8q10 8 15.5 12.5t10 9l10 10t14.5 16.5q5 11 8.5 15.5t15.5 17.5l22 40q7 13 10.5 18.5t5 8.5t3 7t4.5 16l8 27q2 22 3 28t1 11v7q0 5 -1 15q-8 17 -19.5 31t-30.5 19zM378 322
l-32 -86q-5 -14 -7 -19t-4 -7.5t-4.5 -6.5t-7.5 -14q-13 -25 -24 -47t-25 -46q-16 -26 -31 -49t-38 -45q-9 -9 -19.5 -17t-24.5 -8q-5 0 -9 10l4 36q8 16 12 22l6 9t2.5 5.5t1.5 11.5l13 21l16 29q9 11 13 15.5t6 6.5t3 4.5t3 9.5l18 19l12 18l52 63l1 4q9 8 12.5 10.5
t5.5 5t4 6.5l7 14l16 15l11 13h4z" />
    <glyph glyph-name="C" unicode="C" horiz-adv-x="493" 
d="M780 578q-5 6 -8.5 11t-10 8.5t-17 5.5t-28.5 2q-9 0 -28 -5.5t-40 -12.5t-40 -15t-28 -12q-36 -18 -59.5 -31t-44.5 -28t-45 -34t-61 -49l-44 -43l-31 -35l-21 -24h-9l-19 2q-10 11 -15 17.5t-7 12.5t-3 13t-3 19q4 16 9 26t11.5 18t15 15.5t20.5 18.5h7q3 0 5.5 0.5
t7.5 2.5t16 6q13 -3 25.5 1t13.5 10q0 3 -3.5 5.5t-14.5 4.5q-53 -5 -90 -27.5t-65 -69.5q-1 -7 -1 -13v-11q0 -20 3.5 -31t12 -18t22.5 -13l35 -15l1 -5q-8 -10 -11.5 -13.5t-5 -5.5t-2 -4.5t-3.5 -9.5q-17 -29 -26 -43t-14.5 -21t-8.5 -11t-7 -13q-8 -17 -12.5 -34.5
t-4.5 -31.5q-3 -3 -5.5 -10t-4 -14.5t-2 -13.5t-0.5 -7q0 -15 2 -25t6.5 -17.5t11.5 -14.5t17 -16q13 -9 33.5 -18.5t46.5 -9.5q10 0 24.5 2.5t30.5 7.5q14 5 32.5 10.5t29.5 11.5l20 10l31 16l40 22l19 13q11 6 11 9t-6 3q-4 0 -11.5 -4.5t-16.5 -10t-17 -11t-13 -8.5
q-11 -4 -17.5 -6.5t-10.5 -4.5q-33 -13 -64 -20q-12 -6 -24.5 -7t-22.5 -1q-18 0 -38.5 3.5t-23.5 10.5q-8 2 -20.5 20.5t-12.5 40.5q0 13 2 26.5t3 24.5q8 16 8 27t11 26l16 39q13 23 26 43.5t34 37.5q17 3 25.5 5t19.5 2q17 0 35.5 3t35.5 5q5 3 6.5 4t3 1.5t4.5 0.5t9 1
q8 4 16 6t17 5t11 3.5t5.5 2t12 5t30.5 12.5q15 6 20 7.5t9.5 4l13.5 7.5t31 19q24 15 33 20t15.5 10.5t17 15t37.5 33.5l8 14q15 14 21 19l9 7.5t4.5 5.5t6.5 12q10 18 14 25.5t5.5 11.5t2 8.5t2.5 18.5zM762 570q-1 -8 -2.5 -11.5t-4 -7.5t-6.5 -10t-10 -19
q-11 -15 -18 -25.5t-13.5 -19t-14 -17t-19.5 -19.5q-24 -23 -55.5 -43t-67 -36t-74 -27.5t-76.5 -16.5l-33 -4q-8 -1 -14 -1.5t-11 -0.5q-9 0 -9 5q0 3 5 13l84 90q7 6 10 8t4.5 3.5t3.5 4t8 8.5q11 5 17 12.5t14 15.5q4 3 10.5 8t14 9.5t14.5 8.5t12 7q22 14 31 19.5t14 9
t11.5 8t24.5 18.5q18 6 25 7.5t10.5 3t7.5 3.5t15 8q20 5 29.5 7t29.5 3q19 -2 23.5 -4t9.5 -18z" />
    <glyph glyph-name="D" unicode="D" horiz-adv-x="662" 
d="M183 64q-12 0 -23.5 -1t-22.5 -5q-23 -3 -41 -15t-36 -25q-5 -5 -5 -16q0 -2 0.5 -5t0.5 -5q12 -20 28.5 -24t37.5 -6q17 4 30.5 5t29.5 9q7 1 17.5 6.5t22 11.5t22 11t17.5 7q3 1 8 1h8q8 0 18 -1t21 -3q14 -2 28 -5.5l30 -7.5q12 -3 20 -7t15.5 -8t16.5 -6.5t23 -1.5
l43 17q7 2 13 6t14 5h6q9 6 13.5 11t14.5 10l4 4q16 10 30 24q5 2 9.5 6.5l8.5 8.5q20 11 29 25t25 30q16 17 30 36t17 31q9 7 20 30.5t16 43.5q2 4 2.5 8t1.5 8q2 10 6 14q0 6 1 14t2 17t2.5 16.5t3.5 12.5q0 17 -0.5 25.5t-1.5 13.5t-2 8.5l-3 10.5q-3 22 -2.5 31.5
t-10.5 17.5q-1 14 -7.5 28t-22.5 27q-17 13 -31.5 20t-41.5 9h-14q-8 0 -18 -0.5t-18.5 -1t-12.5 -0.5q-12 -1 -28 -3.5t-33.5 -6.5t-33.5 -8.5t-28 -8.5q-2 -2 -10.5 -5.5t-10.5 -4.5q-11 -5 -18 -7.5t-15 -7.5q-22 -12 -47.5 -31t-44.5 -33t-31.5 -30t-22 -33t-16.5 -34.5
t-14 -34.5q-1 -5 -1.5 -10t-0.5 -10q2 -16 10.5 -27t19.5 -21q10 -2 17.5 -5.5t20.5 -2.5q13 2 23 9l2 1q12 1 21.5 6.5t20.5 7.5q10 4 10 12l-10 1q-5 -1 -10.5 -3t-11.5 -3h-8q-11 2 -21 7t-12 15q-7 3 -11 15t-6 21q-1 2 -1 4q0 3 -1 5q-2 20 6.5 38.5t19.5 35.5
q9 13 22.5 26.5t28 25t28.5 21t24 15.5q7 3 11 7q8 4 20 9t21 8h2q15 7 37 11.5t37 5.5q29 3 52 4t44 -7q12 -2 26.5 -4t18.5 -14q9 -4 13 -8t7 -9t6 -12t10 -17q3 -16 6 -40.5t5 -42.5q1 -8 0 -20.5t-1 -21.5q0 -10 -4 -23.5t-4 -23.5l-8.5 -34t-12.5 -32
q-4 -22 -19.5 -45.5t-26.5 -41.5l-9.5 -9.5t-7.5 -10.5q-20 -23 -34.5 -38t-38.5 -31q-2 -2 -4.5 -3.5t-6.5 -3.5q-8 -3 -18.5 -9t-22.5 -11.5t-24.5 -9.5t-23.5 -4q-3 0 -9 3.5t-15.5 8.5t-21.5 11t-26 9q-17 6 -28.5 11.5t-26.5 8.5v2q0 4 1 5q9 8 20 16t21.5 15.5
t18.5 15t10 15.5q5 3 12.5 13t15.5 23.5t15 29t10 29.5q1 6 5.5 16t6.5 16q9 24 15 48.5t19 47.5q3 13 11 28t15 26q11 14 21.5 26.5t28.5 17.5h3q4 2 6.5 5t6.5 5h2l9 -3q3 1 3 8q-3 3 -11 3q-8 -2 -11 -3h-3q-19 -8 -35.5 -18t-30.5 -26q-11 -8 -17.5 -16t-12 -16.5
t-12 -17.5t-17.5 -18q-4 -14 -12 -29t-17 -30.5t-16 -32t-8 -31.5q-8 -10 -7 -22t-5 -23q-2 -14 -11.5 -32.5t-23 -36.5t-28.5 -32t-28 -17q-10 2 -19 4t-20 2q-4 0 -14 2t-14 2h-45zM122 -20q-14 0 -22.5 4t-18.5 24v2q0 8 9 12.5t14 9.5q16 4 32 4q14 0 22 -2t21 -3
q14 -1 24 -1.5t24 -2.5q2 -2 5.5 -3t4.5 -5v-1l-12.5 -7.5t-15.5 -8.5t-15.5 -7.5t-11.5 -6.5q-11 0 -21 -3t-22 -5h-17z" />
    <glyph glyph-name="E" unicode="E" horiz-adv-x="405" 
d="M604 457q0 11 -6 19.5t-20 13.5l-61 -2l-15 -2l-60 -22q-60 -29 -104 -64.5t-72 -90.5q-3 -13 -4 -18.5t-2 -9.5q-1 -3 -2.5 -7t-4 -11.5t-7 -20t-10.5 -32.5q-4 -6 -8.5 -11t-8.5 -8l-32 -13q-14 -6 -29.5 -13.5t-29 -15.5t-23 -15t-10.5 -12q-7 0 -15 -6t-15.5 -15.5
t-14.5 -21.5t-11 -24q-2 -25 2 -31q-1 -6 5.5 -11.5t15.5 -13.5l10.5 -10.5t9.5 -4.5q4 -7 18.5 -10t25.5 -6l19 -5l31 -3q29 3 53.5 7t48 11.5t47.5 19.5t51 31l10 7q5 3 13 9t8 9q0 2 -4 2q-2 0 -4 -1l-12 -8l-17 -10q-30 -17 -49 -26t-34 -14t-29 -7.5t-35 -6.5l-46 1
q-21 5 -43 24t-27 55q10 42 42.5 72t74.5 44l16.5 5.5l7.5 2.5t6.5 3t12.5 8l8 6q6 9 7.5 12.5t3.5 5.5q1 2 6 4t6 6q8 24 11 33.5t5 14.5t5 11t11 23q1 7 1.5 10t1.5 5t3 5t7 12q2 7 2.5 10t1 4.5t2 3.5t4.5 8l12 13q9 14 12.5 20t7.5 9q3 4 10 8.5t25 18.5
q24 15 49.5 24.5t48.5 9.5q6 0 12 0.5t11 0.5q14 0 25 -4t22 -18q-1 -11 -4.5 -22t-8.5 -19q-15 -21 -28 -38t-27.5 -31t-32 -26.5t-41.5 -25.5l-17 -3l-26 2l-9 4v18l-3 3l-7 -2q-11 -5 -18 -12.5t-7 -14.5q8 -8 12 -10t10 -2h10q11 -4 20 -4q14 0 26.5 6.5t26.5 12.5
q14 11 29 19t30 19q8 12 9 13l9 6l20 25q14 16 28.5 40t14.5 45z" />
    <glyph glyph-name="F" unicode="F" horiz-adv-x="462" 
d="M351 215q-23 -5 -47 -9.5t-48 -3.5q-12 1 -21.5 4t-19.5 11q-4 4 -7.5 6.5t-5.5 6t-3.5 10.5t-0.5 21q0 13 3.5 23.5l7.5 22.5q13 17 22 28.5t19 19.5t22.5 13t32.5 8l24 13q0 10 -10 10q-5 1 -10.5 -0.5t-11.5 -2.5q-18 -8 -36.5 -18t-35.5 -22q-10 -7 -21.5 -17.5
t-21.5 -21.5t-16.5 -21t-6.5 -17q-9 -10 -12.5 -23t-5.5 -30q1 -11 3 -17t5.5 -10t10 -7.5t16.5 -9.5q6 -3 16.5 -4t17.5 2q5 -2 7.5 -4t6.5 -2q11 0 20 2.5t23 3.5q20 4 35.5 9t23.5 5q9 -2 8 -9q0 -6 -3 -15l-10 -16q-10 -17 -19 -29t-17.5 -24t-16.5 -25t-15 -30l-10 -5
q-14 0 -27.5 -9.5t-13.5 -25.5q12 -12 17 -16.5t5 -9.5q0 -3 -3.5 -5.5t-7.5 -10.5q-7 -13 -12.5 -23t-11 -19.5t-10 -20.5t-9.5 -25q-12 -16 -16 -22.5t-6 -10.5t-4 -9.5t-10 -20.5q-14 -26 -19.5 -35.5t-7.5 -13t-2.5 -6.5t-4.5 -16l-21.5 -43t-11 -23t-5 -11t-2.5 -7
t-4 -12.5t-9 -26.5q-10 -18 -17 -34.5t-15 -35.5q-1 -11 -0.5 -14.5t3.5 -3.5q11 -1 22 7l27 26q3 7 4 9.5t2.5 4t4 2.5t8.5 5l55 78q7 10 12.5 17.5t10 14.5t9 14.5t10.5 18.5l16 25l15 25l17 35l16 25l20 53l5 17l16 60q5 11 13.5 15.5t22.5 8.5l22 8q13 5 17.5 6.5t8 2.5
t9 2.5t19.5 7.5l35 15q1 1 6 3.5t10 5.5t9.5 6t4.5 5t-5 2h-4q-14 -11 -37 -18.5t-40 -11.5l-33 -7q-20 3 -26.5 4.5t-10.5 14.5q-1 7 -1.5 11t-0.5 6q0 6 4.5 10.5t16.5 27.5q4 12 5.5 16t3.5 6.5t5 5t11 10.5q9 16 14.5 26t10.5 17.5t12 16t19 22.5q12 5 16.5 7.5t7.5 4
l8 4t19 7.5q13 4 19.5 6.5t10.5 4t8.5 3.5t12.5 7t22.5 13t39.5 22q14 8 19 10.5t10 4.5t13.5 7t30.5 19q19 18 26.5 25.5t12 11t10 7.5t22.5 16q14 13 20 17.5t9 8t7 8.5t15 18l1 8q8 16 12.5 26t4.5 18q1 11 -14 28q-20 9 -37 9q-20 1 -36.5 -3t-34.5 -11l-12 -4.5
t-11 -6.5q-15 -7 -31.5 -17.5t-32.5 -22.5t-31 -25t-27 -23q-42 -37 -75.5 -84t-64.5 -86zM447 283q7 8 9.5 11t4 6l4.5 9t11 21l36 41q7 6 9.5 8.5t4 4.5t3.5 5t8 11q19 26 48 53t58 38q12 10 30.5 17.5t34.5 6.5q8 0 9 -0.5t3 -0.5q2 -1 19 2q13 -6 18 -10t4 -11
q0 -5 -1 -9q-4 -8 -5.5 -10.5t-2 -4.5l-1.5 -6t-4 -13q-9 -14 -17.5 -24.5t-17 -19t-18.5 -16.5t-23 -18q-16 -10 -28 -22t-29 -21q-8 -6 -26 -16.5t-39 -22t-41 -22t-32 -14.5l-48 -18l-3 2v4zM262 -61l-5 -17l-15 -48l-13 -21q-7 -19 -9.5 -26.5t-4.5 -12t-6 -9.5t-13 -20
q-1 -7 -0.5 -9.5t0 -3t-2.5 -2t-6 -5.5q-7 -14 -9.5 -20t-4 -9t-3.5 -5l-9 -9l-33 -54l-26 -40l-5 -10q-5 -4 -8 -4q-4 0 -2 6q0 4 2 8q9 10 18 31.5t14 35.5l5 8q1 7 0 14l23 40l7 15q8 10 10.5 12l2.5 2v2t3 11q7 15 10 21t4.5 9.5t4 7t9.5 14.5l19 30l19 42l12 17l7 11
l4 -2z" />
    <glyph glyph-name="G" unicode="G" horiz-adv-x="449" 
d="M283 -56l-45 -48q-17 -17 -17 -19l1 -1q10 0 17.5 10t15.5 10h3t2 -2t-2 -5t-5 -9l-20 -36l-10 -20q-6 -12 -18 -32t-28 -43t-33.5 -46.5t-34.5 -41.5q-20 -22 -31 -34.5t-17.5 -19.5t-10.5 -11.5t-10 -9.5t-15.5 -12.5t-27.5 -22.5q-5 -2 -6.5 -3.5t-2.5 -1.5t-4 3
q0 6 -0.5 8.5t-0.5 4.5t5 8l2 15q2 5 3 6.5t1.5 3t0.5 4.5t2 9q11 24 14 32t6 13q2 3 5 6.5t11 12.5q1 5 1 7t1.5 3t4.5 3.5t9 9.5q2 5 4.5 9t8.5 11.5t17 20t31 34.5q13 14 18.5 20t11.5 11.5t17.5 15t36.5 30.5q21 18 21 22h-1q-5 0 -21 -14l-50 -42q-29 -24 -55.5 -51.5
t-47 -53t-34.5 -47t-17 -32.5l-3 -17q-4 -6 -5.5 -8.5t-2 -4.5t-2 -5.5t-5.5 -12.5q-1 -5 -1 -10v-8q0 -3 -1 -4.5t-5 -6.5q0 -4 -0.5 -7.5t-0.5 -6.5q0 -5 2.5 -8.5t10.5 -3.5l33 16q5 2 7 2.5t3.5 1.5t4.5 3.5t12 8.5l10 7l32 30l37 34q15 14 30 29.5t28 32.5l27 32l2 6
l12 16q15 21 26 36.5t24 38.5l8 12q13 28 26.5 52t28.5 50l14 29l13 18l43 28l24 21l10 7q5 3 12.5 9t7.5 9q0 1 -2.5 1.5t-4.5 -0.5l-12 -8q-15 -8 -26.5 -16t-25.5 -18l3 13l18 33q5 14 13 26.5t17 24.5t17 24.5t14 26.5l47 58l3 6t1 4q0 5 -5 5t-12.5 -3.5t-10.5 -4.5
q-8 -3 -12.5 -5.5t-10.5 5.5q3 5 5 10.5t0 9.5q7 2 14.5 9.5t18.5 14.5l15 15q24 24 42 41t31.5 33t24 35t20.5 48q-2 29 -11.5 45t-41.5 16q-13 0 -24.5 -2t-23.5 -5q-60 -15 -107.5 -40t-88 -57t-77 -70t-75.5 -80q-17 -24 -37.5 -55.5t-39 -63t-31 -61t-12.5 -49.5
q0 -12 5 -19.5t13.5 -11.5t18.5 -6.5t20 -4.5q37 6 70.5 25.5t65.5 39.5q11 8 15 11.5t6 5.5t6 3t12 6q7 10 12.5 14t16.5 9q4 5 12.5 13.5t16.5 13.5q5 7 11 11.5t17 7.5q5 12 11 16.5t13 14.5q1 0 3.5 3t6 6.5l6.5 6.5t5 3t5.5 -2.5t5.5 -1.5q-11 -23 -22.5 -34t-13.5 -16
t-6 -10.5t-13 -19.5q-14 -22 -21.5 -30t-11 -11.5t-6 -7t-6.5 -15.5zM149 3q-6 1 -8 1.5t-3 1.5t-2.5 3t-5.5 7q-1 8 -1.5 13.5t-0.5 10.5q0 8 2 15.5t7 18.5v6q0 4 3 9t5 7q7 10 9.5 14t4 7l4 8l9.5 19l18 28q0 9 11 23.5t18 22.5q11 12 19 22.5t17 21.5t20.5 23.5
t28.5 29.5q12 18 15.5 24.5t6.5 9.5t7 5.5t15 8.5q9 11 12.5 16t5.5 7.5t5 3t12 3.5l38 25q3 2 8 3.5t16 6.5q14 10 24 17t19.5 12t20 9t25.5 9l34 4q8 2 10.5 3.5t4.5 1.5t3.5 -1.5t7.5 -4.5l12 -4q10 -9 10 -21q0 -11 -6 -25t-15 -32q-11 -14 -18 -23.5t-12 -16t-8.5 -11
t-7.5 -8.5t-9 -7t-12.5 -8t-17.5 -13.5t-22 -23.5l-26 -32q-5 5 -14.5 8t-15.5 3q-8 0 -17.5 -4t-10.5 -9q-11 -5 -11 -14q0 -5 2.5 -10.5t8.5 -8.5q3 -4 5 -9.5t7 -10.5l-17 -23q-38 -33 -59.5 -51.5t-34 -29.5t-20.5 -17t-19 -13.5t-29.5 -18.5t-52.5 -32z" />
    <glyph glyph-name="H" unicode="H" horiz-adv-x="555" 
d="M227 27q-11 8 -13.5 9.5t-7.5 1.5h-30q-4 2 -3.5 6t3 8.5t5.5 9l5 7.5q6 9 8.5 12t3.5 5t1 5t1 11q8 9 13 22t7 24l23 55q5 7 6.5 8.5t5.5 1.5h18q9 -2 13 -2h8t5.5 0.5t7 1t12.5 2t22 3.5h14q6 0 8.5 -0.5t4.5 -0.5t11 5q15 1 20.5 1.5t9 1t7 1.5t13.5 5q17 7 22.5 9.5
t8.5 3.5t7 1.5t14 1.5l11 7q54 24 96 60q34 38 55 67.5t21 65.5v8q0 4 -1 9q-13 15 -22.5 22.5t-20 10.5t-24.5 3t-36 1q-47 -13 -79 -25t-59 -27.5t-53 -37t-60 -52.5l-84 -102l-5 -2q-2 0 -3 2.5t-7 8.5q-11 15 -16.5 23.5t-8 16.5t-3 17.5t-0.5 25.5l9 18t7 10t10 5.5
t17 4.5l20 -2q6 4 6 5t-3 4q-5 1 -9.5 1.5t-8.5 0.5q-14 0 -24 -5t-26 -14q-29 -24 -38 -45t-1 -32q2 -20 15.5 -34.5t23.5 -15.5q5 -11 14 -13.5t12 -10.5q-5 -8 -11 -18t-11 -19.5t-8.5 -18t-2.5 -14.5q-13 -12 -19.5 -36t-14.5 -49q-4 -13 -9.5 -26.5t-10.5 -29.5v-17
l4 -4q7 0 8 3.5t6 8.5q7 1 9 1q3 0 4.5 0.5t3.5 2t7 5.5q10 1 13.5 1.5t5.5 0.5h3q2 0 7 -2q1 -6 1.5 -8.5t1 -4t1.5 -3.5t4 -6q2 -14 3 -18.5t1 -7.5q0 -4 -0.5 -9t-2.5 -19q5 -6 5 -5l8 -2q14 13 22 22.5t10 28.5q-2 7 -2.5 8.5t-0.5 3.5v7l23 39q9 13 15 20.5t10.5 12.5
t8.5 9.5t11 10.5q4 6 5 9t2 4t2.5 2t5.5 3q11 12 14 16.5t5 6.5q2 1 4.5 2t9.5 4q11 12 22 19t25 14q13 3 18.5 4.5t8.5 2t6.5 1.5t14.5 4q14 -7 21 -12t10.5 -10.5t6 -14t6.5 -21.5q-2 -5 -2.5 -6t-0.5 -3t0.5 -6.5t1.5 -16.5q-7 -37 -13.5 -64.5t-17 -52.5t-26.5 -50
t-41 -57q-5 -3 -6.5 -4.5t-2.5 -3t-3 -4t-8 -9.5l-15 -8q-15 -10 -25 -16t-19.5 -10t-19.5 -6.5t-23 -6.5q-15 3 -24 2.5t-19.5 1.5t-24 9t-37.5 24l-9 13.5t-5 7t-2.5 4.5t-0.5 5v17q-4 4 -9 4q-10 0 -20.5 -14t-10.5 -24q0 -8 13 -27q16 -17 35.5 -24t39.5 -9
q9 -5 19.5 -5.5t18.5 0.5l25 3q12 1 18 1q7 0 11.5 0.5t9 3l13.5 7.5q9 1 12 1.5t5 1.5t4.5 2.5t10.5 4.5q10 5 20.5 11.5t19.5 17.5q8 7 17 13.5t19 17.5l14 13q21 27 37.5 49t28.5 45.5t21 50t15 61.5q0 19 -1.5 35t-7 28.5t-17 22t-30.5 17.5l-47 1q-27 -4 -49.5 -16.5
t-42.5 -29.5t-38 -37.5t-36 -41.5l-30 -42zM646 432l-8.5 -17l-4 -8t-2.5 -7t-5 -16q-17 -23 -31.5 -41t-31 -32.5t-35.5 -27t-44 -24.5q-19 -6 -26.5 -8t-11 -2.5t-6 -1.5t-11.5 -5q-38 -8 -64 -11.5t-59 -3.5h-15q-14 4 -19 4.5t-5 4.5q0 2 3 11l40 60q10 10 13.5 14t6 7
t7 9.5t16.5 21.5q32 32 64.5 62.5t67.5 42.5q5 3 6 4t3 2l12 3l36 14q23 5 39 5q20 0 35 -8.5t29 -31.5z" />
    <glyph glyph-name="I" unicode="I" horiz-adv-x="325" 
d="M531 527q-4 6 -10 6q-3 0 -5.5 -0.5t-5.5 -0.5q-7 -6 -14.5 -9.5t-15 -9t-16 -14t-17.5 -23.5q-8 -5 -22 -10t-22 -11h-3q-12 0 -24 -5.5t-23 -5.5h-2q-11 -7 -24 -7t-24 -7q-15 -1 -28.5 -7.5t-28.5 -8.5q-10 -7 -21.5 -14.5t-21.5 -16.5t-16.5 -20.5t-6.5 -24.5
q0 -27 24 -37q12 -6 27 -6q17 0 30 7.5t13 18.5v1q-2 2 -5 2q-5 0 -11 -5.5t-13 -5.5q-11 0 -17.5 13t-6.5 23q0 8 7 22q5 9 15 15.5t19 9.5q16 8 29 11.5t28 11.5h1q18 0 33 6t32 11h1q4 0 12 4t15.5 9t14 9t9.5 4l-1 -7q-7 -6 -18 -19t-22.5 -28t-21.5 -30t-13 -25
q-3 -5 -10 -15.5t-13 -24.5t-13.5 -29.5t-15.5 -32.5q-9 -21 -15.5 -34.5t-12.5 -26t-12.5 -26t-16.5 -33.5q-8 -15 -19 -35t-25.5 -40.5t-31 -40.5t-35.5 -35q-34 -14 -58.5 -26.5t-32.5 -24.5q-5 -5 -4.5 -9.5t3.5 -8.5t6.5 -6t5.5 -3l25 2q28 9 48 26.5t33 34.5
q17 10 48 25.5t63 30.5l26 15q5 4 11.5 7t2.5 10l-14 -5q-15 -5 -23.5 -11.5t-22.5 -10.5q-11 -6 -23.5 -13t-23.5 -13t-19.5 -10.5t-10.5 -4.5l-1 1q29 24 44 46t26 33q17 29 36 51.5t34 51.5q6 13 9 19t5 11t6.5 12t13.5 23q5 8 9.5 20.5t6.5 21.5q13 21 28 49.5t29.5 57
t27.5 52.5t23 35q8 8 17.5 12.5t17.5 11.5q9 7 12.5 15.5t5.5 18.5z" />
    <glyph glyph-name="J" unicode="J" horiz-adv-x="353" 
d="M459 429q0 10 -1 20.5t-1 21.5q-12 16 -23 16q-7 0 -15.5 -4.5t-19.5 -9.5l-57 -36q-27 -21 -50.5 -40.5t-45 -40.5t-40.5 -45t-36 -54q-2 -8 -2 -11q0 -2 -1.5 -4t-4 -6.5t-8.5 -16.5q-1 -8 -2 -14t-1 -11q0 -7 3 -11.5t13 -10.5q11 0 16.5 3.5t12.5 3.5q5 0 8.5 -1
t11.5 -2q12 7 16.5 10t7.5 5.5t7.5 7t17.5 15.5q0 10 -10 10l-50 -26q-3 -1 -9 -1q-14 0 -14 8q0 3 3 11q3 12 3.5 17t1 8t3 7.5t8.5 15.5q1 8 2 11t2.5 5.5t4.5 7t9 16.5l69 72q4 4 5 5.5t2.5 2t4 1.5t8.5 3q8 11 10.5 12.5t9.5 3.5q16 14 21.5 18.5t8.5 6.5q2 2 6 3.5
t14 5.5l20 16l7 3q4 -4 4 -6q0 -3 -2 -10t-5 -26q-2 -10 -2.5 -13.5t-0.5 -5.5t-0.5 -4.5t-2.5 -8.5q-11 -38 -18 -60t-13 -36l-11 -37q-5 -10 -6.5 -18.5t-6.5 -16.5l-3 -17l-5.5 -11l-2.5 -5t-2 -5t-4 -11q-13 -26 -20 -40.5t-11.5 -23t-7.5 -14.5t-8.5 -15.5t-14.5 -25.5
t-25 -44l-39 -29q-39 -29 -67.5 -52.5t-51.5 -45.5t-44 -45.5t-46 -52.5l-32 -52q-12 -15 -16 -20.5t-7 -11t-8 -15.5t-18 -35l-9 -23q-3 -8 -4.5 -11.5t-2.5 -7.5t-1 -12v-26q3 -6 6.5 -7.5t7.5 -1.5q8 0 12.5 1t7 2.5t5.5 4.5t8 7q2 1 4 2.5t8 4.5q9 11 12 15.5t15 8.5
q15 16 20.5 22t8.5 10t6 8.5t13 17.5l16 20q21 19 33 30t20.5 22t17.5 26t25 43q8 10 11 14t5.5 7t6.5 6.5t14 14.5l4 11q14 16 19.5 22t8.5 10t5.5 10t10.5 23q11 16 15.5 22t7 9.5t6 9.5t13.5 21q11 12 19 18.5t15 11.5t14.5 10.5t19.5 14.5l10 8q4 2 12.5 8.5t8.5 8.5
t-3 2t-5 -1q-6 -4 -8 -5.5t-4 -2.5t-5 -1q-2 0 -9 -2q-13 -10 -16 -10q-4 0 -4 15q3 6 5 9l3 4.5t2 3.5t2 7l11 16q8 14 15 28t11 31q6 16 14 28.5t11 29.5l14 21l4 22q8 17 13 32t10 20q0 5 3.5 14t7 19t7 20.5t3.5 19.5q3 5 4.5 7t1.5 4t0.5 6.5t2.5 15.5q3 8 4 11t1 5z
M210 -41q0 -2 -1.5 -5.5t-2.5 -7.5l-36 -55q-20 -31 -32.5 -49.5t-22 -31t-17.5 -22.5l-18 -22.5t-24 -30.5t-35 -48l-44 -62l-10 -10l-31 -27q-9 -3 -11 -3t-5 8v16q0 4 1 6.5t2.5 7t4.5 15.5l13 20q1 7 1 10q0 2 1 4t4 5.5t9 12.5q1 4 1.5 5t1.5 2l3 3l7 7q8 14 10.5 19.5
t4.5 9.5t6.5 9.5t16.5 20.5l13 19q4 6 5.5 8t3 3.5l4.5 4.5t9 11q11 13 18.5 22.5t14 17t13 14.5t15.5 16q2 7 7 8.5t11 3.5q7 8 9.5 11t4.5 5t5.5 4t12.5 7q14 12 19.5 16.5t9 7t8 6t17.5 12.5q3 0 3 -4z" />
    <glyph glyph-name="K" unicode="K" horiz-adv-x="651" 
d="M858 631q0 12 -5.5 20t-14 13t-19.5 8.5t-21 7.5l-40 3q-24 -4 -38 -6.5t-25.5 -6t-24 -9t-32.5 -16.5q-37 -20 -74.5 -50t-73.5 -66.5t-70.5 -78t-64.5 -85.5l-16 -23l-7 -1l-24 5l-14 2q-12 6 -21.5 11t-17 11t-12.5 14.5t-8 23.5l2 12q14 17 18.5 23t7.5 9q3 2 8 4.5
t17 9.5l30 4q8 5 8 7t-3 8l-11 1q-15 -2 -35 -11t-38.5 -23.5t-32 -33t-15.5 -37.5q1 -21 20 -37t42 -22l16 -1l11 -6h29l8 -6l1 -4l-9 -15l-34 -70l-10 -20l-4.5 -9t-2.5 -6.5t-5 -13.5q-15 -32 -20.5 -44t-9.5 -20l-10.5 -21t-24.5 -47l-15 -20q-6 -14 -11.5 -24.5
t-9 -20.5t-6 -20t-2.5 -23q0 -16 8 -16q5 0 12 6t12 13q13 18 21 32.5t16 35.5q7 7 9 9.5t4 4.5t6 4t14 9q8 -8 8 -15q0 -5 -3 -9l-5 -29l2 -12l8 -2l28 14l4 7l3 10l3 40l7 23l18 25.5t8.5 12.5t3 6t0.5 7q6 6 8.5 8t4 3.5t1.5 3.5t1 7q12 16 17 22t7 9t3.5 7t5.5 15
q9 7 12.5 9.5t5.5 4t4 4t9 8.5l43 43l30 23q22 17 28 22t10 7q3 2 6.5 4t11.5 7q9 5 12.5 7t5.5 4q2 1 5.5 2t11.5 3l25 11l16 1l12 6l19 1l7 -5v-10l-23 -42q-14 -15 -23 -25t-18 -17.5t-20 -14.5t-29 -17q-11 -7 -15 -10.5t-6 -3.5t-4.5 4t-9.5 12q-3 0 -5.5 0.5t-5.5 0.5
q-18 0 -23.5 -10t-7.5 -30q-3 -20 -3.5 -29.5t-0.5 -14.5q0 -6 0.5 -14t0.5 -33v-17q2 -15 6.5 -29.5t11.5 -26.5t15.5 -20.5t19.5 -9.5q8 -1 13.5 -1.5t10.5 -0.5q9 0 18 3.5t30 13.5l38 27l10 8q4 2 13 8.5t9 8.5t-3 2q-4 0 -6 -1l-12 -8l-16 -6l-23 -12q-21 -8 -37 -8
q-14 0 -23 7t-14 27q-2 19 -2.5 25.5t-1 12t-1.5 15t-2 34.5q2 11 2 15v7v6t-1 12l4 5l18 13l14 5q15 7 20.5 10t9 5t7.5 4.5t15 9.5q16 15 24 20t11.5 8t6 6t7.5 13q4 4 6 5t3 2t1 2t1 4l14 22q5 9 7.5 12t3.5 5t2 5t4 11q-7 10 -11.5 13t-10.5 3q-4 0 -9.5 -0.5
t-13.5 -1.5l-34 -8q-29 -7 -48 -14t-35.5 -17t-33 -23t-38.5 -31q-14 -12 -21.5 -17.5t-12 -9.5t-8.5 -7.5t-11 -10.5t-19.5 -19t-33.5 -33l-3 -7l-32 -43l-9 -19l-33 -51q-5 -1 -8.5 -1.5t-5.5 -0.5q-5 0 -6.5 3.5t-2.5 14.5l22 43q2 10 2.5 14t1 6t1.5 4t5 7q1 5 1 6
q0 2 1 3.5t2.5 3.5t4.5 7q10 19 13.5 26.5t5.5 11.5t5 8.5t12 18.5l24 48q5 7 7 10l3 4.5t2.5 4.5t5.5 10l13 15l11 1q12 2 17 3l7.5 1.5t5.5 2t11 4.5l20 8q27 11 38.5 15t17 5.5t10 3t18.5 8.5l12 1q9 2 13 2.5t6 1.5t4 2.5t8 5.5l20 9q9 3 12.5 4.5t6 3t7 4t16.5 9.5
q9 5 12 7t5.5 3.5t5.5 4t12 9.5l16.5 11t7.5 4.5t6.5 4.5t11.5 12q9 4 11.5 5t5 4t8.5 9t21 20q11 6 14.5 8t6.5 5.5t8.5 12t21.5 27.5l20 32l3 11zM661 441q-14 -8 -23 -13t-15 -8.5t-9.5 -5.5t-6.5 -3q-5 -2 -12 -4.5t-25 -9.5q-11 -4 -15.5 -6t-6.5 -3l-4 -2t-9 -2
l-29 -13q-20 -6 -28 -8t-13 -3.5t-13.5 -3.5t-29.5 -7q-3 0 -6 -0.5t-5 -0.5q-4 0 -4 3t5 11q1 8 2 11t2.5 5t5.5 5.5t12 13.5q1 10 1.5 14t3 6.5t8 7.5t16.5 18q3 7 4 9.5t2.5 4t4.5 3.5t10 8q9 13 12 17.5l5 7.5l5.5 5.5t13.5 11.5q5 8 6 10.5t3 4.5q2 1 3.5 2t6.5 4
q9 10 12 14t6 7.5t10 10t25 21.5q17 15 21.5 20.5t7.5 7.5q3 1 13 4q14 10 18 13.5t8 5.5q3 2 7.5 3t16.5 6q8 4 10 5.5t4 2.5h4q3 0 8 2q7 4 9 5t5 1l7 -1h1q2 0 5 0.5t6 0.5q9 3 12.5 5t5.5 2t5.5 -2t12.5 -5l29 -3q19 -6 25.5 -7.5t6.5 -5.5q0 -2 -1.5 -6t-3.5 -11
q-5 -12 -8 -20.5t-7.5 -15.5t-10.5 -14.5t-15 -17.5q-1 -11 -1.5 -14.5t-4.5 -6.5t-12.5 -8t-25.5 -19l-57 -47l-12 -6z" />
    <glyph glyph-name="L" unicode="L" horiz-adv-x="589" 
d="M333 314q10 -3 16 -3q9 0 21.5 3t29.5 8q3 -2 3 -3v-2q-6 -17 -18 -34.5t-23 -35.5t-22.5 -37.5t-22.5 -38t-21.5 -33.5t-20.5 -23l-39 6q-18 -4 -24 -5.5t-11 -3.5t-14 -7.5t-33 -17.5q-11 -10 -17 -17t-9.5 -15.5t-4.5 -18.5t-2 -26q7 -11 15 -12.5t19 -3.5l14 7
q17 5 33 11t29 17l29 24l17 -3l6 -2l11 -12l7 -19q13 -23 21.5 -36.5t18 -21t22.5 -10.5t34 -4q24 4 46 12.5t45 20.5q18 13 36 25.5t37 25.5l10 7q5 3 13 8.5t8 8.5q0 2 -5 2h-4l-11 -8q-17 -10 -33 -19.5t-33 -20.5q-20 -9 -32 -14t-20.5 -8t-15 -4t-15.5 -1h-6
q-9 0 -14.5 1.5t-10.5 4.5t-10.5 8.5t-14.5 13.5q-12 23 -16.5 32t-7.5 14.5t-8 14t-19 30.5q-2 2 -3.5 4t-1.5 5t5 10q10 11 24 28t28 35.5t27 37.5t22 34q7 13 9.5 17.5t5 8t6.5 9.5l14 21l20 29l11 7q8 1 13 2t9.5 2.5t9.5 4t13 7.5q10 1 13 1q4 0 6.5 1t6 2.5t12.5 6.5
q6 2 8.5 3t4 2t4.5 2.5t10 6.5q12 3 16.5 4t7 2t5.5 3.5t12 7.5q28 17 51.5 35.5t48.5 39.5q11 9 15.5 12.5t7 6t5 5.5t10.5 11q7 11 16.5 24t9.5 29q0 11 -5 19q-11 14 -22 18q-5 2 -10.5 2.5t-16.5 0.5q-26 0 -62 -15.5t-68 -40.5q-35 -26 -59 -48t-44.5 -45t-41 -49.5
t-48.5 -62.5l-8 -6l-26 -3q-29 -2 -38 -3t-14 -1q-4 0 -8.5 1t-16.5 4q-35 4 -50 19t-19 49q4 9 5 13.5t2 7.5t4 7t11 14q10 9 20 13.5t18 7.5t12.5 5.5t4.5 6.5q-4 4 -14 4q-9 0 -20 -5q-16 -10 -30 -18.5t-25 -18t-19.5 -22.5t-13.5 -31q2 -15 5.5 -25t9.5 -16.5
t14.5 -12.5t20.5 -14q16 -3 20.5 -5.5t17.5 -2.5zM577 389l-88 -29l-4 2l2 7l32 41l14 16l18 28l9 5l11 15l32 35l6 2q12 13 28 27t32 27q9 7 20.5 11.5t21.5 7.5q8 2 16 3t16 1q14 0 22.5 -8t8.5 -19q0 -10 -8 -26l-33 -40l-51 -41l-60 -42zM210 46q-11 -9 -14.5 -13
t-6 -5.5t-7 -2t-15.5 -2.5q-8 5 -8 12q0 5 3 11t6 14q4 5 6 6.5t3 2.5t1 2q0 2 1 7q16 8 21.5 12t13.5 4q11 0 15 -2.5t13 -10.5z" />
    <glyph glyph-name="M" unicode="M" horiz-adv-x="916" 
d="M1071 452q0 8 -4 11t-13 6q-15 -2 -26 -6t-21 -9t-20 -12.5t-22 -17.5q-4 -2 -9 -2q-2 0 -2 4t-4 10l3 45l-3 6l-6 3q-27 0 -53 -7t-51.5 -18.5t-49 -25.5t-45.5 -28l-10 -4l-4 3l-1 41q-2 12 -3.5 23.5t-5.5 21t-11.5 15t-20.5 5.5q-7 0 -24 -7.5t-38 -19t-42.5 -24.5
t-37.5 -24q-12 -8 -18.5 -12t-8.5 -4t-2 3q0 7 1 11t2 9t2 12t1 21v10q1 5 1 7v6q0 15 -8 21t-21 6q-10 0 -21.5 -3t-22 -7t-19.5 -8t-14 -7q-44 -24 -91.5 -57.5t-90 -70.5t-75 -75.5t-44.5 -72.5q0 -29 6.5 -39t20.5 -10q13 0 40 8q10 9 13 10q2 2 6 2.5t16 5.5
q19 16 26.5 21.5t11.5 9.5t7 9.5t12 21.5q-3 5 -5 5t-4 -1.5t-5 -3.5q-12 -11 -16.5 -15t-7.5 -7.5t-8.5 -9t-20.5 -19.5q-11 -7 -23 -12.5t-23 -5.5q-8 0 -14 5t-6 17q0 3 1 5q2 6 3 8.5t1 3.5q0 2 0.5 4.5t1.5 8.5q11 12 17 22.5t13 24.5q32 34 64 67t72 59q9 8 13 12
t6.5 6t7 3.5t15.5 4.5l11 11l7 7t8 5t14 5q5 4 7 6t4 3t4.5 2t8.5 3l31 12q4 1 10 1q4 0 6 -2t4 -10q0 -18 -0.5 -25t-0.5 -11t-0.5 -9t-1.5 -19q-5 -21 -7 -29t-3 -12.5t-1.5 -8.5t-3.5 -17l-9 -15l-13 -12l-37 -36q-47 -57 -91 -111t-64 -100q-6 -13 -8 -17.5t-3.5 -7.5
t-3.5 -6.5t-8 -13.5q-5 -12 -9 -24.5t-4 -23.5q0 -12 7 -21t24 -12q13 6 21.5 9t14.5 6t9.5 6.5t8.5 9.5q24 21 46 45.5t45 47.5q15 24 27 45.5t22 43t18 43.5t15 48l12 30q5 14 9 22t7 15t5 16t4 25q21 22 29 31.5t13 14t11.5 9.5t25.5 20q28 17 36 22t13 6q2 1 4 1
q3 0 8 1q6 4 12.5 8.5t12.5 4.5t10 -5l3 -21q2 -11 3.5 -17t2 -9.5t0.5 -6.5v-8v-29q-3 -10 -3.5 -19.5t-3.5 -20.5q-40 -40 -78.5 -80.5t-70.5 -88.5q-17 -25 -32.5 -52.5t-27.5 -50.5q-8 -15 -12 -21l-6 -9t-2.5 -5.5t-1.5 -11.5l-10 -22q0 -7 -0.5 -12t-0.5 -10
q0 -8 1 -12t4 -7t8.5 -5.5t15.5 -5.5q14 2 23.5 4t18.5 7.5t19.5 15t26.5 26.5q17 18 33 37.5t31 43t30 52t31 64.5l5 22q7 12 10 16.5t4 7.5t2 7.5t3 16.5q3 5 4 6.5t1.5 3t1 3.5t1.5 8l6 28l7 31l26 26t17.5 17t15 12t19.5 11q15 7 28.5 13.5t27.5 16.5l27 8l15 3l7 -5
q0 1 1 -4q-3 -7 -4 -15.5t-1 -16.5q0 -17 10 -31l1 -7l-49 -53l-24 -37l-21 -21l-14 -20q-12 -18 -25 -41.5t-13 -35.5q-6 -8 -13 -23t-12 -32t-8.5 -33t-3.5 -27q-5 -10 -4.5 -20t-1.5 -20q0 -8 3.5 -17.5t10 -18t16 -14.5t21.5 -6q11 3 17.5 4t11 2t8.5 3t9 7l23 14
q13 5 22.5 11.5t20.5 14.5l10 7q5 3 13 8t8 9q0 2 -6 2h-2q-11 -8 -22 -14l-22 -12q-9 -10 -22 -14.5t-25 -9.5q-23 3 -31 22t-8 41q0 27 6 45l3 7q7 29 15.5 51t19 41.5t23 39t29.5 44.5q18 26 29 41t19.5 25t16.5 16.5t20 15.5q19 1 25 2t9 2t7 3t18 7q9 3 9 2t5 3
q11 7 24 16t13 23zM657 306q0 -6 -3 -17t-7 -26l-11 -22q-1 -8 -1 -11t-1 -5.5t-3.5 -6.5t-7.5 -14q-3 -10 -3.5 -14t-1.5 -6l-3 -6l-7 -14q-12 -25 -21.5 -44.5t-19.5 -36.5t-21.5 -35t-26.5 -40l-14 -14q-11 -3 -17.5 -5.5t-11.5 -2.5q-11 0 -14.5 6t-3.5 15t2.5 19
t5.5 19.5t6 17t5 10.5l11 15q3 11 4.5 15t3.5 6.5t5 6.5t11 16q23 35 43 66.5t47 63.5l51 51q4 0 4 -7zM438 314l-7 -24l-39 -87l-12 -32l-4 -7l-18 -33l-14 -34l-13 -20q-5 -9 -15.5 -24.5t-23 -31t-25.5 -26.5t-25 -11q-4 0 -13 13v18l4 11q2 21 8.5 33t19.5 30
q14 29 18 38.5t6 14.5q2 4 6 8t12 14q26 31 49.5 64.5t52.5 61.5l20 25l4 1h5z" />
    <glyph glyph-name="N" unicode="N" horiz-adv-x="653" 
d="M384 477l-8 -3q-32 -10 -58 -23.5t-49 -30t-45.5 -36.5t-48.5 -43l-24 -45l-5 -15q-6 -17 -6 -28q0 -23 12.5 -33t25.5 -10q11 0 27.5 4.5t32 13.5t26.5 21t11 27q0 6 -6 6q-16 0 -23.5 -5.5t-13 -13.5t-11 -16.5t-17.5 -13.5q-11 -3 -17 -3q-11 0 -16 6.5t-10 18.5
q1 18 9.5 36t22 35t30.5 33.5t35 32.5l68 44q7 3 10 3.5t5 2t5.5 4t12.5 8.5q5 1 12 1q10 0 15.5 -2t8.5 -7t4.5 -13t3.5 -20v-17q-1 -11 -1 -22q0 -10 -2 -21l-4 -23l-117 -125q-16 -22 -26 -35t-18.5 -25.5t-17.5 -27.5t-22 -40l-20 -38l-11 -20l-2 -21l-4 -16
q2 -10 5 -15t7.5 -7.5t10.5 -3.5t15 -3q15 8 20 11.5t8.5 5.5t9 5.5t19.5 11.5q16 9 22 12.5t10 7t10.5 11t24.5 25.5q20 16 32 36t20 44q5 6 7.5 8t3.5 3.5t1.5 3.5t1.5 8q6 16 10.5 26t7.5 17t5.5 13.5t6.5 15.5q3 9 4.5 12t2 5t1 4.5t2.5 9.5q3 12 4.5 16.5l2.5 7.5
t2.5 8.5t4.5 20.5l11 51l14 15l9 13l65 51q7 1 9 1.5t4.5 2l7.5 4.5t18 9q9 5 16.5 10.5t13.5 5.5q10 0 14 -19q4 -20 13.5 -26t24.5 -13v-5l-31 -32l-64 -81q-20 -25 -38 -57.5t-33 -61.5q-11 -34 -20.5 -66t-9.5 -61q0 -24 8 -41q9 -16 17 -22t19 -6t26 4q17 7 31 15
t30 15q9 5 12 6.5t5 3t4 3.5t8 7l11 8q5 3 12.5 8.5t7.5 8.5q0 2 -4 2h-4l-11 -8q-11 -6 -20.5 -11.5t-18.5 -13.5q-11 -5 -15 -7t-6.5 -3t-6 -2.5t-12.5 -4.5q-14 1 -21.5 9.5t-11.5 19.5t-5 24t-1 24l5 32l4 6l15 48l4 12t2 5t2.5 6t6.5 13l27 46h-2l7 12q4 11 5 14.5
t4.5 7t10.5 11t23 27.5l10 20q3 4 9 10.5t24 29.5l17 17l14 1q18 1 29.5 1.5t21 4t18 10.5t19.5 21l2 11q-6 8 -15.5 8.5t-18.5 1.5q-18 -8 -26 -10.5t-13.5 -4.5t-12 -5.5t-20.5 -12.5q-3 -1 -5 -1q-1 0 -1.5 3.5t-5.5 7.5q-8 14 -12 22.5t-8.5 13t-12 7.5t-21.5 7
q-16 -3 -27.5 -7.5t-21.5 -10t-20.5 -12.5t-23.5 -14q-11 -6 -15 -7.5t-7 -4t-7.5 -6.5t-16.5 -14l-21 -17h-2q-4 -1 -4.5 2t-2.5 5q2 5 2.5 6.5t0.5 3.5q0 -1 -3 7q-7 35 -18 48t-40 13h-13zM380 272l-17 -60l-7 -17l-2 -11l-16 -39l-17 -47q-16 -27 -30 -45t-27 -31.5
t-26 -23.5t-28 -21l-12 -1q-8 4 -11 7t-3 8q0 3 0.5 6t1.5 8q2 6 3 8t1.5 3.5t0.5 3.5v9q7 13 10 17.5t5 7t4.5 6t8.5 12.5q19 38 38 67.5t47 63.5l47 56l9 6l19 17h1v-10z" />
    <glyph glyph-name="O" unicode="O" horiz-adv-x="454" 
d="M529 480q-27 0 -43.5 -2.5t-30.5 -8t-29.5 -15t-39.5 -23.5q-24 -18 -33 -25t-15 -11.5t-14 -12.5t-30 -28h-12q-20 8 -32 20t-12 26q0 4 -1 10.5t0 12.5q10 25 29.5 36.5t38.5 18.5q1 1 5.5 0.5t5.5 -0.5q2 0 3.5 -0.5t2.5 -0.5q2 0 3 -0.5t5 -0.5q16 0 16 9
q0 5 -11.5 6.5t-19.5 1.5t-19 -3.5t-23 -8.5t-22.5 -11.5t-16.5 -13.5q-7 -7 -16.5 -13t-9.5 -16q-8 -8 -9.5 -17t-1.5 -19q0 -12 10.5 -26.5t21.5 -17.5q12 -5 19.5 -7t12 -3.5t7 -4t3.5 -8.5q-20 -28 -26 -40l-12 -24q-5 -9 -15.5 -23t-29.5 -48q-7 -18 -15.5 -35.5
t-10.5 -31.5q-7 -13 -8.5 -25.5t-3.5 -26.5l3 -56l7 -15q5 -23 25.5 -31.5t41.5 -8.5q12 0 20 1.5t16 4.5t17.5 7.5t23.5 10.5q21 10 35 18.5t25.5 18.5t23 21.5t27.5 26.5q7 7 10 9t5 4.5t5.5 6.5t12.5 14q10 13 12.5 18t3 8t3 7.5t11.5 17.5q9 16 13 23t7 12t6.5 11
t10.5 21l12 24q6 23 9 37.5t3 29.5q0 13 -6 34q-4 12 -8 12q-3 0 -5 -7t-3 -12l4 -9q-1 -25 -3.5 -39.5t-8.5 -37.5q-3 -9 -9 -25t-15 -32q-12 -17 -21.5 -41t-19.5 -38q-11 -14 -33.5 -35t-45.5 -43q-7 -2 -13 -7.5t-14.5 -12.5t-20.5 -14t-30 -11q-6 -3 -17 -5.5t-26 -2.5
q-13 0 -21.5 13t-13.5 24q-2 11 -3.5 23.5t-1.5 25.5q0 15 2 29.5t5 26.5q6 10 8 14t3 6.5t2.5 7t4.5 16.5q11 22 21.5 44t21.5 45q9 10 12 14t5 7t4.5 9t9.5 20l15 14q18 0 22.5 -3t8.5 -3q3 0 6 1t11 4q21 4 29.5 4.5t12.5 1t6.5 2t11.5 6.5q10 1 14.5 1.5t7 1.5t5.5 2.5
t11 6.5q10 3 14 4t7 2.5t8 4.5t19 9q8 7 10.5 9t4.5 4t15 7q14 14 24.5 27.5t10.5 27.5q0 20 -31 36h-17zM556 436q0 -14 -13 -28q-19 -17 -34.5 -27t-31 -16.5t-34.5 -12t-46 -12.5q-9 0 -13.5 -0.5t-7.5 -0.5q-5 0 -13 -1t-28 2q-3 1 -3 5q0 5 9 12.5t10 7.5q6 6 8.5 8
t4.5 3.5t5 5t12 11.5q26 17 46.5 34.5t51.5 26.5q17 5 24 7t12 2q20 0 30.5 -7.5t10.5 -19.5z" />
    <glyph glyph-name="P" unicode="P" horiz-adv-x="597" 
d="M734 361q-2 27 -10.5 44.5t-40.5 17.5q-11 -2 -18 -2h-10h-4q-5 0 -6.5 -1t-9.5 -6q-8 -1 -11 -1.5t-5.5 -2t-7 -4.5t-16.5 -9q-12 -3 -16.5 -4t-8 -2.5t-9 -5.5t-20.5 -13l-61 -35l-21 -11l-2 3v2l2 15v21q0 15 -1 26.5t-5.5 21t-12.5 19t-23 21.5q-11 3 -14 4t-5 1h-5
t-9 -2q-43 -12 -77 -29.5t-62 -39t-52 -48.5t-46 -59q-5 -10 -12.5 -23.5t-7.5 -26.5q0 -7 4 -12q9 -8 12 -11.5t6 -5t8 -2t17 -3.5q6 4 6.5 3.5t14.5 1.5l36 26l27 30q0 9 -4 9t-8.5 -5t-6.5 -8l-13 -13l-18 -13.5t-11 -7t-11 -3t-16 -0.5l-10.5 6t-5 4.5t-1.5 5.5
q0 4 -1 11l5 20l4.5 4.5l2.5 2.5t1 3t2 7q6 7 8 9.5t3 4t2.5 4t6.5 8.5l46 54l33 27q5 3 9 5t8.5 5t10.5 7.5t14 12.5q12 4 16 5.5l8 3t10.5 5t24.5 11.5q13 0 20.5 -3t14.5 -17l1 -95q-4 -27 -8.5 -48t-29.5 -37l-39 -39l-40 -40t-30.5 -31.5t-25.5 -28t-25.5 -30.5
t-30.5 -38.5t-40 -51.5l-34 -55q-12 -18 -19.5 -32.5t-13 -28.5t-8.5 -29.5t-6 -35.5q0 -18 11.5 -33t30.5 -15q10 0 21.5 3t22.5 11q20 13 32.5 21t22.5 16.5t20 20.5t25 32l27 37l26 49l15 21q8 10 11 14.5t4 7.5t2 7t4 15q7 13 10 18t4 7.5t2 5.5t3 12l14 26q3 4 4.5 5.5
t2 3t0.5 3.5q0 3 1 10q8 12 13 21.5t9 18t7.5 18t9.5 22.5q13 29 21.5 50t17.5 51q10 11 16 18t12 13t14.5 11.5t23.5 12.5q11 8 14.5 10.5t5.5 3.5q1 0 10 2q12 7 16 10t7 5t8 4.5t18 9.5q3 1 10.5 4.5t17 7t19.5 6t19 2.5q17 0 24 -10l4 -34q-4 -15 -5.5 -21t-2 -10
t-2 -9.5t-5.5 -20.5q-15 -33 -28.5 -60.5t-28 -53.5t-31.5 -52t-39 -54l-47 -41q-15 -8 -22 -8q-5 0 -9 1t-11 3q-8 8 -15.5 13.5t-16.5 5.5q-13 0 -20 -11t-11 -22q1 -11 2.5 -17t5.5 -9t10 -3.5t17 -0.5q16 4 22.5 5t10.5 2.5t10.5 5.5t23.5 13l23 16q8 7 13.5 11t15.5 7
l16 19l23 20l28 36l25 31q4 9 5.5 13t2.5 6t4 4.5t10 9.5q2 7 3 9t2.5 4t5.5 7t12 17q1 6 1 8q0 3 0.5 4t2 2.5t5.5 6.5q12 24 18.5 36t10.5 22t6 22t7 35zM372 211l-18 -39l-8 -20l-39 -91l-45 -98l-49 -89l-45 -61q-14 -19 -31.5 -29.5t-31.5 -10.5q-23 0 -32 33
q3 39 13 60t18 38l12 23q1 6 1 8q0 1 1.5 2.5l4.5 4.5t9 10q5 9 6.5 12.5t3 6.5t5.5 8t13 18q9 12 15.5 20t12.5 15.5t13 15t16 17.5q2 16 7 21t17 14q8 11 10 14t4 5t3.5 3t6.5 4q8 11 11 15t6 6.5t8 6.5t18 16l43 38l10 7q8 10 10 10q1 0 1 -14z" />
    <glyph glyph-name="Q" unicode="Q" horiz-adv-x="358" 
d="M487 -125q-3 0 -12 2.5t-30 12.5q-11 8 -18 12t-21 7q-18 11 -27.5 16t-18.5 8.5t-21.5 8t-35.5 14.5t-31.5 15t-13 8t-9.5 5t-20 6q-7 4 -13.5 5t-11.5 2t-8 3t-3 7v2q13 12 35 25t55 37q12 8 25.5 17.5t30.5 24.5q13 11 23 18.5t30 27.5q11 11 28.5 27t26.5 36
q15 12 27.5 28.5t19.5 28.5q9 17 13 23.5t6 11t4.5 10t10.5 21.5q8 17 11 23t4.5 10.5t3 11.5t6.5 26q-1 21 -1 35q0 15 -4.5 25t-15.5 16t-32 9q-12 -3 -17 -4t-8 -1.5t-7 -1.5t-14 -5q-38 -13 -71 -33.5t-63.5 -45.5t-59.5 -52.5t-60 -55.5q-19 -25 -37 -48t-32 -44
t-22.5 -40.5t-8.5 -37.5q0 -9 3 -18q6 -9 20 -9q7 0 14 2t13 4l23 14q2 6 2 5t-4 2q-17 -6 -22 -6q-6 0 -18 12q0 8 -0.5 12t-0.5 6q0 4 2 7t7 15q11 26 27 48.5t33 45.5q24 23 33.5 32t14 13.5t9 9.5t16.5 21q15 9 20.5 12.5t9 6.5t8 8.5t16.5 19.5q14 7 24.5 14t19.5 13.5
t18.5 14.5t21.5 17l11 5.5l6 3t8.5 4t20.5 8.5h6q22 0 27 -12t7 -32q-5 -26 -7 -35.5t-3.5 -15.5t-4.5 -13.5t-12 -28.5q-8 -14 -16 -31t-8 -25q-7 -6 -10 -9t-7 -9t-10.5 -16t-19.5 -29q-17 -22 -29 -36.5t-21 -24.5t-16 -17t-15 -14q-19 -14 -39.5 -31t-49.5 -37l-64 -43
q-5 -1 -13 -1q-11 0 -21.5 1.5t-21.5 1.5q-10 0 -22.5 -1t-23 -4t-18 -9t-7.5 -16q0 -12 20 -22q10 -2 14 -3t7 -1q2 0 5.5 1.5t13.5 4.5q8 1 11 1.5t5 0.5t4 1t8 3q12 -2 17 -2t7.5 -0.5t5 -2.5t10.5 -7q18 -4 36.5 -11t33.5 -7q9 -11 25 -18.5t30 -15.5q10 -6 19.5 -10
t20.5 -10q10 -7 19.5 -9.5t19.5 -4.5t20.5 -5t23.5 -9q12 -7 24.5 -12t23.5 -10q20 -3 32.5 -5t23.5 -2q14 0 29 3.5t44 11.5l32 26l1 6l-1 2q-3 0 -8.5 -3t-13.5 -7q-20 -8 -26 -10t-12 -2q-14 0 -22.5 0.5t-15.5 2t-13 4t-14 7.5q-2 1 -5 1h-5z" />
    <glyph glyph-name="R" unicode="R" horiz-adv-x="724" 
d="M722 422q-2 -9 -2.5 -11.5t-2 -5.5t-4.5 -8t-10 -18q-20 -39 -41.5 -66.5t-27.5 -41.5q-7 -3 -13.5 -9.5t-13.5 -15l-14 -17t-15 -14.5q-12 -10 -26 -17.5t-31 -19.5l-11 -2q-11 8 -14.5 8.5t-8.5 0.5t-11 -3.5t-17 -8.5q-9 -8 -8 -12t1 -9t23 -21l14 -40q2 -10 2.5 -13
t2 -6t5 -9t11.5 -21q14 -22 17 -29t5 -10l4.5 -4.5t8.5 -7.5q12 -7 18.5 -10t16.5 -3t17.5 2t19.5 6l39 21l36 22q6 3 8 4.5t3.5 2t3.5 2t8 5.5q10 7 10 11q0 2 -3 2q-4 0 -13 -6l-6 -4l-17 -9l-44 -20q-10 -2 -15.5 -3.5t-10.5 -1.5q-7 0 -20 7l-29 36l-22 58
q-8 21 -12.5 26.5t-4.5 12.5v9q19 10 39 23t34 26q16 15 33.5 29.5t27.5 31.5q14 12 27.5 25t22.5 30q11 20 16 27.5t7.5 12t5 9.5t10.5 20q5 10 9.5 17t8 13t7 12.5t6.5 17.5l5 20q5 24 7 33t2 16q0 6 -2 15.5t-6 34.5q-6 11 -11 14.5t-11 3.5q-5 0 -11 -1.5t-15 -3.5
l-65 -21q-17 -6 -28 -11.5t-21.5 -13.5t-23.5 -19t-32 -27l-24 -20q-9 -3 -8 -3q-1 0 -7 3q3 23 5 35.5t2 22.5q0 11 -2.5 22.5t-9.5 34.5q-10 14 -17.5 18t-16.5 4q-6 0 -12.5 -1t-15.5 -2l-22 -9l-53 -30q-35 -15 -66 -38.5t-61 -53.5q-16 -17 -27 -29t-21 -25.5
t-21.5 -30.5t-28.5 -43l-15 -31.5t-7.5 -18.5t-3 -18t-0.5 -29q11 -19 30 -19q14 0 26 12l13 4q7 5 17 12t10 12q0 4 -11 4l-28 -18q-11 -3 -16 -3q-11 0 -14.5 6t-3.5 16q0 7 1 14l2 14q4 7 6 10t2.5 4.5t1 3.5t2.5 8q4 6 6 8t2.5 4t1.5 5t3 11q13 19 17.5 25.5t8.5 11.5
t11 14t25 33q7 3 9.5 4.5t4 3t4 5.5t10.5 13q5 2 7 2.5t3 1.5l2.5 2.5t5.5 6.5q10 8 14.5 9.5t4.5 2.5t-3 3l14 9q9 8 12.5 11t6.5 5q2 2 6.5 4t16.5 9q11 8 13.5 11t4.5 5q2 1 4.5 2t8.5 3q9 6 14.5 9.5t10 6t9 4t10.5 4.5q10 6 17 6q13 0 17 -15.5t6 -27.5q-2 -18 -3 -25
t-1.5 -11.5t-1 -11.5t-1.5 -25l-7 -45q-2 -6 -2 -9v-5q0 -1 -1 -2.5t-4 -5.5l-39 -43l-22 -30q-11 -14 -17.5 -17t-11.5 -8q-8 -6 -15.5 -11t-15.5 -13t-17.5 -20t-21.5 -30q-28 -38 -43 -56t-23.5 -26t-12.5 -10.5t-10 -10t-16 -24t-30 -52.5l-15 -27q-26 -47 -42 -85
t-16 -84q0 -12 6.5 -20t16.5 -8t19 10q1 1 12 5l39 31l60 54l37 49l31 38l37 48l20 29l24 39l17 27l26 51q9 17 13.5 28t8.5 21t8 21t11 29l16 41l17 51l14 41l13 9q18 16 28 25.5t16.5 15t11.5 9t14 8.5q13 11 27.5 16t29.5 14q13 13 27.5 17t29.5 7h7q5 0 5.5 -6t5.5 -30
q-2 -18 -4.5 -36t-5.5 -36zM118 -96q3 5 4 7t1.5 3.5t1 4t1.5 8.5q3 4 4 5t1.5 2.5t0.5 3.5t1 7q6 10 8.5 14t3.5 6t1 5t2 12l13 19v11q6 7 8.5 9.5t3.5 4t2 5t5 12.5l29 32q9 9 15 26t10 29q14 19 21 22t7 8q14 16 19 25.5t7 15.5q11 11 26 21.5t18 27.5q6 7 15.5 15.5
t19.5 17.5t20 17t17 16q3 6 6 8.5t6 4t6 4t6 7.5l14 14l5 -5q-17 -58 -42 -108t-54 -104q-16 -29 -19.5 -36.5t-3.5 -8.5t-1 -2.5t-12 -18.5l-24 -36t-8.5 -12.5t-5 -8.5t-13.5 -24q-28 -38 -47 -61.5t-33.5 -38.5t-27.5 -23.5t-28 -16.5h-4l-7 7z" />
    <glyph glyph-name="S" unicode="S" horiz-adv-x="484" 
d="M234 323q8 0 10.5 4.5t7.5 6.5q8 2 14 6t6 12q-4 7 -11 7q-14 0 -29.5 -10.5t-29 -26t-22 -32.5t-8.5 -30q0 -30 38 -47l37 -11q36 -3 48.5 -4.5t19.5 -1.5q5 0 11 1.5t23 4.5l30 6q16 3 22 3.5t10.5 1.5t11 3t24.5 7l4 -4l1 -5l-27 -66q-17 -21 -33.5 -54.5t-30.5 -69.5
q-15 -25 -21.5 -35t-12 -18.5t-13.5 -23.5t-26 -51q-18 -32 -31.5 -50.5t-30.5 -35.5q-9 -9 -27 -25t-30 -27q-23 -16 -40 -23t-31 -10t-26 -3.5t-25 -1.5q-23 0 -38 11t-29 19q-7 14 -13 29t-8 33q-1 25 5 59l15 31q6 7 8 9.5t3.5 4t2.5 4t5 8.5q7 8 9 11.5t3.5 5t3.5 2
t8 1.5q9 1 14.5 -5t13.5 -5q12 1 21.5 13.5t8.5 20.5q-2 20 -23 18q-2 -1 -10 -3t-18 -7q-21 -14 -33 -24t-20.5 -21.5t-16 -26.5t-17.5 -39q-10 -34 -7 -64q2 -33 20 -61t57 -44q22 -3 28 -4.5t12 -0.5q28 2 62.5 13t54.5 27q12 3 28 14t33 26t33.5 32.5t28.5 32.5
q11 14 20.5 24t17 19.5t14.5 19.5t13 24q10 17 15.5 25.5t7.5 11.5t2.5 4.5t2.5 5t6 12t13 27.5q11 12 21.5 25.5t16.5 33.5l25 51q7 15 9 19l3 6t2.5 6t7.5 19q7 18 11.5 28.5t9 18.5t10 14.5t13.5 16.5q13 4 18 7t7 4.5t5 2.5t13 2q33 13 46.5 18t20 7.5t12.5 7t23 17.5
q7 1 10 1t5 0.5t4 1.5l8 4q20 12 25 16.5t9 6.5q2 2 6 2.5t12 2.5q13 9 23.5 16t19.5 14.5t17.5 16l19.5 19.5l48 52l9 21q5 11 6.5 14t1.5 6q0 2 -0.5 5t-1.5 11q-6 13 -9 20t-6.5 11t-10 5.5l-19.5 4.5q-13 4 -14 4q-2 0 -4.5 -0.5t-9.5 -0.5q-7 -2 -10 -2q-2 0 -4 -1h-6
q-3 0 -14 -2l-59 -23q-27 -16 -44.5 -27t-33.5 -28q-24 -14 -52 -43t-54 -64q-11 -14 -14.5 -18.5t-6.5 -10l-9 -16.5t-22 -38q-8 -14 -10 -19t-3 -9q-2 -2 -6 -7t-14 -19q-28 -8 -37.5 -10.5t-15.5 -4.5q-5 -1 -12 -2t-25 -3q-19 -2 -31.5 -3t-22.5 -1t-18 1t-16.5 3
t-19.5 5.5t-26 8.5q-17 13 -22 19t-5 14q0 5 1 13t2 21q11 12 11.5 15t5.5 3zM878 516q0 -7 -3 -15t-7 -20q-12 -23 -26 -38.5t-30 -28.5t-33.5 -25t-35.5 -27l-42 -22l-59 -30l-88 -37q-14 0 -14 8q0 6 6.5 15t10.5 15q23 39 47.5 79t56.5 75q20 17 40 32.5t41 26.5
q17 8 38.5 15t42.5 10q8 1 20 0t20 -4t11.5 -13t3.5 -16z" />
    <glyph glyph-name="T" unicode="T" horiz-adv-x="581" 
d="M862 429q0 11 -9.5 23.5t-31.5 12.5q-15 0 -28.5 -5.5t-26.5 -13.5q-10 -3 -13 -4.5t-5.5 -3t-6.5 -5.5t-16 -12q-5 -2 -7.5 -2.5t-4.5 -0.5t-5 0.5t-14 2.5q-11 4 -17.5 5.5t-12.5 2.5t-14 2.5t-21 5.5q-24 11 -39 19.5t-28 17.5t-27 19t-37 23q-26 10 -51 14t-51 4
q-10 0 -20.5 -0.5t-21.5 -1.5q-51 -8 -90 -50l-12 -12q-8 -8 -15 -15.5t-14 -19t-14.5 -27t-17.5 -37.5q-2 -12 -3.5 -23.5t-1.5 -22.5t2 -25t7 -26.5t14.5 -21t23.5 -8.5q7 0 14 3.5t18 9.5q22 17 34 26.5t17 32.5l11 18v9l-6 6h-4l-1 -2q-5 -12 -6.5 -17t-3.5 -8
q-2 -5 -5.5 -10.5t-14.5 -22.5q-12 -8 -16 -10.5t-7 -3.5q-2 -2 -5.5 -2.5t-11.5 -3.5q-12 4 -17.5 5t-7.5 3t-3.5 6.5t-7.5 16.5q-1 14 -1 21v12q0 4 0.5 7t1 7.5t2 12.5t4.5 22q17 39 42.5 68.5t63.5 46.5q13 2 17 3.5t7 1.5q2 0 4.5 -0.5t9.5 -2.5q8 0 11 0.5t5 0.5
t3.5 -1t7.5 -3q13 -2 18 -2.5t9 -2t11 -4.5t26 -10q24 -16 48 -31.5t52 -25.5q8 -5 10 -6l4 -2t5.5 -1.5t11.5 -2.5q10 -4 14 -5.5t6.5 -2t5.5 -0.5h13l7 -4q0 1 10 0q11 -5 14 -5q2 0 6 0.5t13 0.5l6 -2q0 1 2 -5l-64 -74q-15 -21 -27.5 -37.5t-23.5 -33t-21 -34.5t-21 -42
q-13 -28 -29 -61t-27 -56q-16 -28 -28 -51t-24 -44t-26.5 -41t-35.5 -41q-17 -15 -26.5 -24t-15.5 -14.5t-8.5 -8t-5.5 -4.5l-10 -5t-22 -13q-28 -10 -35.5 -13.5t-14.5 -3.5q-32 0 -54 12t-39 49l-1.5 16.5t-0.5 8.5q0 4 1.5 8.5t5.5 19.5q4 6 6 8t3 3.5t2 5t5 11.5
q6 4 8 5.5t3.5 3t3.5 4.5t8 11h5l8 -7h7q9 3 14.5 5t8.5 5t5.5 8.5t6.5 15.5q-7 7 -10 9.5t-8 2.5t-15 -3l-32 -21q-18 -21 -25 -28.5t-10.5 -13t-6 -14.5t-9.5 -33l-3 -26q1 -14 3.5 -23t6.5 -17q5 -8 11 -14t11 -12q16 -11 31.5 -15.5t37.5 -4.5h1q23 0 50.5 9t46.5 22
q12 8 16.5 10.5t8 4.5t10 5.5t22.5 13.5q22 21 34 31.5t19 17.5t12 11.5t13 13.5l25 41q12 19 22 34t18.5 28.5l17 27t17.5 30.5l22 53l29 58q7 14 12.5 25.5t10.5 22t11 22t14 26.5l27 43q3 8 4.5 10.5t3 4.5t5 5.5t10.5 13.5l26 33q13 4 17.5 5.5t8.5 2.5q3 1 8 1
q6 0 22 2q9 2 16.5 2.5t15.5 5.5q29 7 46 12.5t17 16.5zM839 436q-1 -8 -13 -13l-21 -7q-8 -3 -20.5 -4t-23.5 1l-3 5q5 8 7.5 9.5t9.5 7.5l19 2q11 5 13.5 6.5t6.5 1.5q2 0 5.5 -0.5t10.5 -0.5l6 -3z" />
    <glyph glyph-name="U" unicode="U" horiz-adv-x="564" 
d="M410 505q-9 -37 -24 -70t-33 -67q-6 -11 -11.5 -20.5t-12.5 -19.5t-16.5 -22t-23.5 -28t-21.5 -24t-12 -13t-7 -8.5t-7 -8.5t-12 -13.5t-21.5 -24.5l-14 -7q-14 -4 -19 -5t-8.5 -2.5t-8 -5.5t-17.5 -13q0 -2 -0.5 -4t-0.5 -4q0 -5 7 -8l14 6q5 -4 4 -4l6 -10
q4 -17 4.5 -20.5t0.5 -8.5v-17v-9q0 -2 1 -6t2 -11.5l3 -22.5q3 -9 3.5 -12.5t2 -6t4.5 -6t11 -12.5q14 -6 20.5 -8.5t12.5 -2.5q5 0 10.5 1t13.5 3l39 17l12 8q9 4 12 5t6 3t8.5 6t20.5 13q10 5 13 5q2 0 5 -11l6 -31v-3l10 -15q18 -11 32 -11q11 0 21.5 4t24.5 10
q11 7 15 9l6 3q2 2 13 6q9 5 12.5 7t5.5 3t4 3l8 8l10 7q5 3 12.5 8.5t7.5 8.5q0 2 -5 2q-2 0 -7 -2.5t-10 -6t-9 -6.5t-5 -3q-11 -7 -21.5 -11t-22.5 -10q-13 -5 -23 -5q-16 0 -27 10t-11 42v1l-1 23q5 15 6.5 20.5t4 9t9 9.5t20.5 21q15 16 20.5 21t9.5 9.5t10 13t23 29.5
q15 19 20.5 26t9.5 11.5t8.5 10.5t16.5 23l15 22q8 7 11 9.5t4.5 5t3 6t5.5 13.5q9 14 13 19t6 8.5t6 10t13 22.5q9 15 12 20.5t5 9t5 8t12 17.5q4 9 6.5 12t3.5 5t1.5 5t1.5 11q3 9 8 22.5t5 27.5q0 11 -4 19q-3 0 -6 0.5t-5 0.5q-19 0 -34.5 -11t-32.5 -21
q-38 -32 -60 -53.5t-37.5 -42t-29.5 -44.5t-36 -61q-16 -27 -33.5 -69t-37.5 -93q-6 -15 -10.5 -34t-6.5 -31q-5 -15 -6 -20.5t-3.5 -9t-8 -9t-18.5 -20.5q-19 -11 -34.5 -19.5t-36.5 -8.5q-12 0 -22 7q-8 10 -12.5 17t-7 14t-3.5 15t-2 19v49q-2 9 -2.5 12t-1.5 5.5t-3 5
t-6 9.5v6l7 6l40 39q22 27 31.5 37t14.5 16t12 14t25 31l22 27l24.5 31.5t18.5 27t15 28t15 34.5q7 16 12 30.5t7 30.5q1 6 1 11v9q0 11 -5 18.5t-20 21.5q-9 2 -11.5 3t-4.5 1h-4q-1 0 -6 -2q-9 -3 -14.5 -5t-12.5 -6t-17 -10.5t-29 -17.5q-32 -24 -50 -38.5t-32 -28
t-29 -30.5t-40 -45l-20 -35q-7 -10 -9 -13.5t-3.5 -7t-4 -10.5t-8.5 -23l-4 -37l2 -5q1 0 7 -4l10.5 -1.5t5.5 -0.5q4 0 7 3t16 12q10 3 13.5 4t6.5 3t8 7t18 16l5 12q1 2 1 5q0 4 -2 4q-3 0 -7 -8q-12 -13 -18 -17t-19 -12q-6 -2 -11 -4t-10 -2q-4 0 -6 3t-2 13q2 14 2 19
q0 6 1 9t3 6.5t8 12.5q1 5 2 7l1.5 3t2.5 3t6 8q10 17 13 22.5t6 9.5t7.5 8t16.5 16q11 15 21 28t27 23q15 14 30 26t32 25l28 18q13 7 21 7q19 0 19 -51v-7zM452 155l-4 -2q-2 0 -2 3q0 4 2.5 11t5.5 13.5t5.5 12t2.5 6.5q2 6 2.5 8t1 3.5t1.5 5t5 12.5l21 46
q20 43 42 83.5t52 77.5l31 38l35 45q8 11 15 15t12 4q9 0 9 -8l-5 -19l-5 -16l-3 -11q-2 -13 -2.5 -17t-2.5 -8t-7 -12t-15 -29q-9 -14 -12.5 -19t-5.5 -9t-5 -10.5t-11 -24.5q-15 -13 -20 -17t-8.5 -8.5t-9.5 -14t-22 -32.5q-12 -22 -19.5 -33.5t-15.5 -19.5t-18 -17.5
t-25 -27.5z" />
    <glyph glyph-name="V" unicode="V" horiz-adv-x="449" 
d="M325 454q14 0 15 -8.5t3 -20.5q-5 -17 -6.5 -23t-2.5 -11t-3 -13.5t-6 -29.5q-7 -15 -9.5 -20.5t-4 -9t-3.5 -8t-6 -16.5q1 -7 -1 -9t-5 -3.5t-6 -4t-4 -10.5l-10 -22l-18 -36t-8.5 -16.5t-7.5 -15.5t-14 -33q-12 -17 -20.5 -36.5t-10.5 -35.5q-8 -14 -12.5 -24.5
t-7.5 -21.5t-5 -23t-5 -27q-1 -10 -1 -18v-15q0 -18 4.5 -25.5t20.5 -7.5q9 0 11 1t12 7q7 1 9 1.5t4 1.5t6 2.5t13 6.5q44 29 86.5 72.5t84.5 87.5q25 34 35 47.5t16 21t14 17t31 35.5q6 9 8.5 12t3.5 5.5t2.5 5t6.5 9.5q8 9 13.5 16.5t10 14.5t9.5 14.5t11 17.5
q12 17 16.5 23t7.5 10.5t7.5 12.5t15.5 28q1 6 1.5 8.5t1.5 4t2.5 4.5t4.5 11q7 9 11.5 15.5t7 12.5t4.5 12.5t4 16.5q1 4 1.5 5.5t0.5 2.5t0.5 3t2.5 7q8 16 8 28t-4 25q3 9 3 16q0 8 -2.5 14.5t-5.5 15.5q-12 18 -25 18q-15 0 -33 -22q-1 -6 -1.5 -10.5t-0.5 -6.5
q0 -7 5 -10t22 -15q10 -11 13 -13.5t3 -7.5l-1 -21q-8 -15 -8 -30q0 -5 -1 -10t-6 -14q-6 -21 -17 -41t-23 -37q-1 -6 -6 -14.5t-11 -17.5t-12 -17l-9 -12q-2 -12 -2 -16q0 -3 -9 -7q-15 -15 -20 -21.5t-8 -12t-7 -12.5t-17 -24q-20 -26 -39.5 -50.5t-39.5 -50.5l-77 -82
q-6 -5 -9 -7l-4.5 -3t-2 -2.5t-2.5 -5.5q-21 -18 -29 -25t-13.5 -11t-13.5 -10t-30 -21q-4 0 -7 -0.5t-5 -0.5q-7 0 -4.5 4.5t-2.5 15.5q3 13 4 18.5t2 8.5t1 6t2 13q8 21 18 40t14 42q13 18 23.5 38.5t15.5 40.5q15 28 24 42t14.5 23t9 18t6.5 27q9 12 14.5 20t9 17.5
t7 22.5t9.5 36q3 12 4 27.5t1 29.5t-9 25.5t-23 18.5q-2 0 -4 0.5t-4 0.5q-19 0 -41.5 -13t-45.5 -32.5t-44 -42.5t-36 -42q-18 -23 -26 -32t-11 -14t-5.5 -10.5t-10.5 -20.5l-19 -31q-5 -11 -7 -15t-3 -6.5t-2 -6t-2 -13.5q-5 -16 -7 -19.5t-2 -8.5q0 -14 3.5 -27t21.5 -13
q7 0 14 2.5t16 4.5q22 15 31 21t13.5 9.5t7.5 7.5l12 16l4 9q-3 3 -5 3q-3 0 -10 -8t-30 -29l-22 -13q-5 -1 -9 -1.5t-8 -0.5q-12 0 -15 17q2 7 2.5 9t0.5 4t-0.5 3l-2.5 5l6 28q6 10 9 14t4.5 6.5t2 5.5t2.5 11q5 6 8 9t4.5 5t3 5.5t4.5 11.5q6 8 8.5 11.5t4 6t3 6.5
t5.5 14l15 15l7 7t6.5 8t12.5 18q7 6 9.5 8t4 3.5t3.5 4t8 9.5l23 27q9 3 12 4.5t6 4t9.5 8t22.5 17.5h7z" />
    <glyph glyph-name="W" unicode="W" horiz-adv-x="728" 
d="M906 505q0 3 -1 5.5t-3 10.5q-3 20 -8 25.5t-21 13.5q-13 0 -27.5 -9t-26.5 -22t-20 -29t-8 -29q0 -14 15 -23t27 -9q2 0 4.5 2t12.5 7q8 8 8 17q0 6 -3.5 12t-8.5 14q-1 7 -1.5 9.5t-0.5 4.5q0 3 1 5.5t4 12.5q8 12 15 12q5 0 7.5 -5t7.5 -13l-1 -30q0 -7 0.5 -13
t0.5 -11q0 -19 -3.5 -34.5t-11.5 -35.5q-2 -10 -2.5 -13.5t-1.5 -6.5t-4 -8t-10 -18q-12 -29 -16 -40.5t-8 -18.5q-2 -4 -5 -8t-8 -10.5t-12 -16.5t-18 -25q-1 -4 -1 -6q0 -1 -1 -2.5t-2.5 -4t-4.5 -8.5l-45 -64l-71 -74q-25 -22 -33.5 -29.5t-14.5 -11.5q-5 -4 -12 -8
t-26 -15q-15 -3 -22 -3q-8 0 -12 4.5t-13 15.5q-5 18 -7.5 25t-3.5 11.5t-1.5 11t-2.5 24.5l3 17q27 40 38.5 56t16 23.5t8.5 13.5t16 26q7 12 10 16t5 7t4.5 7.5t7.5 16.5q7 24 10 30t3 11q0 4 -4 19q-5 5 -6.5 7t-14.5 3q-26 -7 -42.5 -24t-33.5 -37q-16 -23 -25.5 -41.5
t-16 -36.5t-11 -39t-11.5 -48l-2 -24l-35 -41l-42 -34l-22 -12l-9 -1.5t-5 -0.5t-4 1t-8 6q-6 7 -8 10t-3 5t-1.5 6t-2.5 14l-1 38q-2 17 -2.5 23.5t-1.5 11t-3.5 10.5t-8.5 23l18 16l10 14l29 26q13 16 24.5 28t20.5 22.5t15 21t9 23.5q17 15 27 41t24 63q3 14 3.5 23.5
t1 17t1.5 13.5t5 12q3 5 1 12.5t-3 17.5q-1 20 -10.5 35.5t-23.5 21.5q-5 14 -23.5 18t-38.5 4q-6 0 -12.5 -0.5t-12.5 -1.5l-21 -8l-32 -19q-28 -23 -46.5 -39.5t-33.5 -33t-29 -35.5t-33 -47q-7 -16 -10 -22t-4.5 -9.5t-3 -9.5l-5.5 -22v-10l-2 -22q2 -5 3 -6.5t1 -3.5
q0 -1 0.5 -4t1.5 -10q5 -10 16 -21t25 -11q5 0 7.5 1t13.5 2q3 1 8 4.5t10 8t8.5 9t3.5 7.5l-4 2h-2q-16 -13 -34 -13q-20 0 -28 17.5t-8 34.5t3.5 33t8.5 30l8.5 8.5l4 4t1.5 2.5t2 6l11 17q12 19 16 27t7 12t7.5 8.5t16.5 18.5q9 12 13 16.5t7 7.5q5 4 13.5 9t33.5 22
q6 1 8 1q3 0 4 0.5t2.5 2t6.5 4.5q9 3 12.5 4.5t5.5 1.5q1 0 13 -3q28 -1 43 -24q-1 -14 7 -29.5t8 -34.5q0 -28 -6 -56t-12 -46l-7 -21l-13 -38q-15 -29 -29 -49t-18 -34l-42 -44q-3 -1 -6 -1q-3 3 -5 5.5t-6 2.5q-5 0 -23 -9q-6 -7 -10.5 -11t-8 -7.5t-5 -8.5t-1.5 -14
q0 -5 2 -7t13 -14l4 -8t1.5 -3.5t1 -5t2.5 -12.5v-13q0 -13 1.5 -22.5t4.5 -26.5q8 -17 10 -22.5t4 -9.5q8 -12 14.5 -16.5t14.5 -4.5q10 0 24.5 5.5t29.5 14t27 17.5t17 16q7 4 9 5t4 3.5t7.5 8t19.5 17.5h5l4 -4l4 -42q7 -15 19.5 -31.5t32.5 -16.5q11 0 22.5 5t19.5 7
l30 17q34 28 48.5 39t21 16.5t12.5 12t23 25.5q5 8 6.5 11t3.5 5t5.5 4.5t13.5 10.5q5 6 6 8t3 4l4 4t10 8q2 6 3 8t1.5 3.5t3 3.5t7.5 8q10 17 20 31t21 30q1 9 1.5 12t2 5t4 6t8.5 15l10 10t5 5.5t4.5 7.5t9.5 17q6 11 8.5 15t3.5 7t1.5 7t3.5 15q5 7 7.5 9.5t3.5 4t1 2.5
q0 2 1 8l11 23q2 6 2.5 8.5t1 4t1.5 4t4 9.5q1 13 1.5 18.5t0.5 8.5t1 7t4 15q0 18 0.5 24.5t0.5 9.5zM519 183l22 68q4 7 5.5 10t2 5t2 5t5.5 12q11 20 17.5 27.5t20.5 12.5q9 -2 9 -13t-7 -27.5t-15.5 -33t-17 -30t-11.5 -17.5q-17 -23 -23.5 -34t-8.5 -11t-2 7z" />
    <glyph glyph-name="X" unicode="X" horiz-adv-x="722" 
d="M1028 564q-6 16 -13 23.5t-17 10.5t-23.5 3.5t-32.5 2.5q-16 -3 -21.5 -3.5t-10 -1.5t-11 -3.5t-23.5 -7.5q-46 -15 -82.5 -31.5t-69 -37.5t-64 -46t-67.5 -56l-69 -82q-9 -10 -12 -10l-1 1q0 6 4 12q7 17 8.5 23.5t3 11t4 11t11.5 23.5q4 17 8.5 26l11.5 23
q1 2 3.5 10.5t5 19t4 21.5t1.5 17q-1 21 -10.5 40t-32.5 19q-8 0 -15.5 -1.5t-18.5 -3.5q-36 -15 -59.5 -28t-43.5 -28t-40 -33t-47 -43q-6 -7 -18 -19.5t-24 -28.5t-21 -33t-8 -33q0 -12 7 -20q3 -3 8 -3q7 0 16 2.5t18.5 6.5t18 8t14.5 7q-1 6 -3 6h-5q-11 -5 -14 -7.5
t-6 -3.5q-2 -1 -6 -1t-13 -2l-10 2q0 1 -5 10v15v7t1.5 4t5.5 8q11 23 25.5 38t32.5 32q5 8 7 10t4.5 3.5t7.5 5t16 12.5q18 15 24 21t10 9.5t10.5 8t24.5 16.5q19 12 40 24.5t39 12.5q9 0 13 -13t4 -21q1 -8 -0.5 -16.5t-3.5 -19.5q-8 -30 -17 -58t-21 -57
q-11 -29 -20.5 -56.5t-23.5 -55.5q-4 -8 -6 -10t-10 -4q-29 -8 -60.5 -13.5t-60.5 -11.5q-5 -7 -4 -9q0 -3 6 -3q7 0 17.5 3t13.5 4q15 2 27 4t20 2t19 -1t11 -6q1 -4 -5 -10t-11 -13q-38 -61 -84 -109t-101 -92l-51 -28q-17 -6 -22.5 -8.5t-10.5 -3.5q-5 -2 -11.5 -2.5
t-23.5 -3.5q-8 0 -12 -0.5t-6 -0.5q-3 0 -5 1.5t-10 6.5q-5 7 -9.5 15t-4.5 17q-2 13 10 25q13 0 20 3.5t18 10.5l7 1q18 19 18 26q0 4 -11 4h-20q-12 -3 -17 -3.5t-8 -2t-7 -6t-16 -13.5q-9 -16 -14.5 -27.5t-4.5 -25.5q1 -7 2.5 -14.5t5.5 -15.5q11 -13 20.5 -16.5
t22.5 -3.5l18 1h10l11 3l12 -1q33 11 54.5 22.5t48.5 31.5l57 41l35 33l56 56l24 30l45 63l2 -2l-10 -23l-18 -47q-5 -14 -13 -43.5t-7 -61.5q1 -13 4.5 -28.5t9.5 -25.5q22 -25 45 -31t49 -6q35 0 69.5 14.5t66.5 34.5l24 15l35 23l18 13q10 4 10 8l-5 2h-5l-11 -8l-17 -10
l-14 -10l-9 -4l-52 -26q-20 -11 -33 -16t-22.5 -6.5t-17.5 -1.5h-18q-16 6 -26 10t-17 9t-12 13t-11 22q-1 8 -1.5 14.5t-0.5 12.5q-2 27 0 48t6 39l8 48q6 12 8.5 19.5t5 12t7 6t13.5 1.5q10 0 35 -5q8 -2 17 -3t17 -1q12 0 12 5q0 3 -9 11l-20 5t-14 2.5l-12 1t-14 0.5
h-10t-8 3q0 2 3 6.5t5 9.5q14 21 20 29t10 13t10 11t20 23q15 19 27.5 33.5t25 27.5t26.5 26.5t31 30.5q25 20 42 33.5t32.5 23.5t33 19t43.5 21q22 10 38 16t29 9t25.5 4t28.5 3q15 0 26 -1t18 -5.5t11 -13t7 -23.5q0 -16 -3.5 -27.5t-10 -22.5t-17.5 -23.5t-27 -31.5
q-35 -31 -69 -48.5t-76 -28.5q-20 2 -27 6.5t-16 20.5q-5 2 -8.5 3.5t-8.5 1.5t-12 -4q-8 -10 -12 -16.5t-3 -14.5q1 -14 6.5 -20t19.5 -6q11 0 22.5 2.5t19.5 4.5q9 3 12.5 4.5t6 2t7 2t15.5 5.5l67 31q18 12 25 17t11.5 8l10.5 7t23 15l20.5 20.5t9 9.5t7 10.5t13.5 23.5
q6 10 6 14q0 2 -1 3q0 2 1.5 5t6.5 11z" />
    <glyph glyph-name="Y" unicode="Y" horiz-adv-x="571" 
d="M699 397q0 8 -4 12.5t-19 6.5q-18 -6 -32 -16t-29 -22q-18 -18 -30 -37t-20 -39q-17 -17 -31.5 -43t-29.5 -55q-6 -11 -9 -18t-18 -16q-13 -15 -17 -20.5t-9.5 -10t-18 -13t-43.5 -30.5l-85 -59l-36 -20q-5 -1 -12 -1q-10 0 -10 14q2 12 2.5 16t1 7t2.5 8t6 17
q8 25 21.5 47t26.5 45q23 32 39 61t36 64q7 12 15.5 26t16.5 28.5t14 29t8 28.5q11 22 14 44t3 42q-5 16 -9 25t-9.5 14.5t-14 8.5t-21.5 6l-9 -2q-14 -4 -19.5 -5t-8.5 -2t-6.5 -3t-12.5 -6q-54 -33 -97.5 -74.5t-69.5 -88.5q-5 -12 -8.5 -20t-5.5 -14t-3 -11.5t-1 -12.5
v-14q0 -8 2 -11.5t12 -10.5q12 0 12 2q0 9 -8.5 15.5t-8.5 15.5q0 2 1 5t4 14q9 19 15 32t12.5 24t16 23t26.5 30l21 22l16 12t7.5 5.5t8.5 6.5t18 15q16 9 25 15t15.5 9t14 4.5t21.5 1.5q13 -11 14 -21t2 -25q-8 -37 -22.5 -71t-28.5 -69q-9 -17 -18 -36t-19 -31
q-8 -12 -16.5 -28t-17.5 -30q-14 -21 -22.5 -37.5t-15.5 -35.5q-10 -10 -16 -24.5t-11 -28.5q-7 -19 -11.5 -33.5t-4.5 -34.5q0 -17 8 -26.5t25 -9.5q3 0 7.5 1.5t18.5 4.5q12 5 20 9t14.5 8t13 9.5t16.5 13.5q16 10 23 13.5t10 5.5t5 5.5t9 12.5q7 1 16.5 7.5t19.5 15
t19 16.5t14 13q10 6 13.5 10t5.5 4q1 0 4 -7l-12 -28l-25 -56l-36 -73l-25 -46l-10 -24l-20 -18l-79 -70l-55 -53q-32 -32 -51 -54.5t-33 -40.5q-20 -12 -36 -40t-37 -68l-13 -32.5t-9 -21t-5.5 -15.5t-1.5 -16q0 -12 3 -36q8 -17 12.5 -24t12.5 -7t34 9l16 9l21 19
q5 3 7 4.5t3 2.5t2.5 4l4.5 9l19 22q4 11 7 14.5t15 12.5q5 6 7.5 8t3.5 3.5t1.5 3.5t1.5 8q6 7 8.5 9.5l4 4t2 3.5t3.5 8q9 4 18 15.5t17 24.5t14.5 25t10.5 18q12 19 19.5 29.5t12.5 27.5q10 8 17.5 22t17.5 34l39 77l36 84l41 39q17 18 34.5 32t38.5 25q6 4 8 5t3.5 2.5
t3.5 4t8 8.5l10 7q5 3 13 8.5t8 8.5q-2 2 -6 2q-5 0 -5 -1l-9 -7q-9 -5 -12 -7t-5 -3l-5 -2.5t-10 -5.5q-18 -13 -24.5 -18t-11 -8.5t-12 -10t-26.5 -22.5q-5 -2 -7 -3t-3 -1t-1 2v5t1 8q9 11 13.5 23t9.5 26l21 40q8 16 14 24t11 15t9 15t8 25q6 15 7.5 18t3 5t6.5 9t19 31
q10 11 17 23t23 21q7 11 20 22.5t24 22.5q7 10 6.5 11t5.5 3q13 16 19 22.5t8.5 10.5t5 9.5t9.5 21.5q1 5 1 9v9zM343 -132l-2 -4l-25 -57l-8 -16l-23 -48q-20 -42 -42 -77t-47 -73l-18 -28l-72 -104l-16 -15q-5 -2 -7 -2q-1 0 -1.5 -1t-3.5 -3.5t-11 -9.5q-7 0 -10.5 -0.5
t-5.5 -0.5q-7 0 -10 10.5t-3 23.5q0 20 5 28q4 10 5.5 13.5t2 5.5t1 4.5t1.5 10.5l33 66q5 11 11.5 19t17.5 24q9 12 12.5 18.5t6 10.5t5.5 8t10 12l33 37l15 18q11 8 17.5 13t11.5 10t10 11.5t13 16.5l61 53l21 20l10 6h2z" />
    <glyph glyph-name="Z" unicode="Z" horiz-adv-x="489" 
d="M212 460q0 8 2 18t11 19q8 13 15.5 22t21.5 11q8 11 23 15t35 12l41 3l14 -3q2 0 7 5l1 5l-4 5q-7 3 -9 4t-4 1h-6q-3 0 -12 1h-11q-16 0 -27.5 -3t-22.5 -8q-82 -34 -87 -61q-15 -10 -24.5 -27t-9.5 -29q0 -10 3.5 -17.5t7.5 -15.5q11 -20 30.5 -34.5t48.5 -11.5
q13 1 20 0t11.5 -2.5t7.5 -3t8 -1.5t12 0.5t18 0.5l31.5 1.5t17.5 1.5t13.5 3t19.5 5l30 7q18 5 28 5q7 0 7 -5t-7 -13l-36 -66q-9 -16 -24 -35t-30.5 -36.5t-29.5 -31t-21 -19.5l-34 -1q-6 -5 -7 -5q-2 -1 -4 -1q-1 0 -6 -2q-14 -9 -19 -16t-5 -24q0 -4 2 -6t10 -4l18 4
q4 5 10 11t13 6q4 0 8 -4l7 -37q2 -14 3.5 -26.5t1.5 -24.5q0 -10 -1.5 -20.5t-3.5 -22.5l-17 -44l-16 -12q-20 -14 -40 -25t-39 -25l-47 -35q-25 -19 -42.5 -32.5t-33.5 -27t-32 -29t-37 -36.5l-20 -20t-14 -16t-17.5 -24.5t-31.5 -45.5l-4.5 -12t-3.5 -6q-6 -12 -11 -19
t-8 -14t-5 -15.5t-2 -22.5q0 -8 4 -15q3 -9 9.5 -12t14.5 -4q14 2 30.5 4.5t28.5 10.5q22 15 30.5 20.5t14.5 8.5t14.5 8.5t28.5 22.5l63 60l13 12l46 51l29 31l24 26l17 21l30 38l20 40q14 20 22 39t16 41q5 8 7.5 14t5.5 10q5 4 11.5 8t20.5 12l33 19q10 6 13.5 8.5t5 4
t3.5 3t9 6.5l17 11q5 4 5 5t-3 1t-8.5 -2t-9.5 -4q-7 -4 -10 -6t-4 -2.5l-2 -1l-5 -2.5l-48 -25q-4 -1 -6.5 -1.5t-4.5 -0.5q-8 0 -8 11q0 16 1 30.5t1 30.5q0 24 -4.5 43.5t-21.5 50.5q4 5 5 6.5t3 3.5l6 6t18 13l13 13t22 22.5t22.5 24.5t14.5 19q6 11 10.5 18t8 13t8 12
t12.5 17l14 20q11 16 14 20t5 6t3.5 2.5t5.5 2.5q21 11 27.5 16t13.5 11q11 11 18.5 23t12.5 23q0 2 0.5 4t0.5 4q0 16 -16 16q-13 0 -28.5 -7t-23.5 -11q-12 -13 -22.5 -24.5t-21.5 -24.5l-16 -13l-46 -14q-13 -4 -18 -5t-8.5 -1.5l-10.5 -1.5t-23 -5q-21 -1 -31 -1h-14
q-7 0 -21 4.5t-25 2.5q-17 8 -31 10.5t-21 10.5q-9 5 -17.5 16.5t-8.5 24.5v9zM301 -62q0 -3 -2.5 -10.5t-6.5 -16.5l-8 -18t-7 -15l-43 -69l-51 -66q-35 -46 -72 -85t-77 -77q-18 -14 -24.5 -19t-11 -8t-12 -7t-27.5 -15q-8 -1 -13 -1.5t-9 -0.5q-8 0 -10.5 3t-6.5 11
q-1 2 -2 7.5t-1 10.5q0 4 1 6q9 17 12.5 24t6 11t5.5 8.5t12 18.5q5 6 7 8t3 4.5t2 6.5t5 13q8 6 10.5 9.5t4.5 8.5q8 12 14.5 19.5t15 15.5t19.5 19t28 32q18 21 30 31.5t23.5 18.5t25 17t33.5 26q14 6 27.5 17.5t26.5 21.5q12 7 16 9.5t7 4.5t8 6t18 13q6 3 11.5 6.5
t9.5 2.5h1z" />
    <glyph glyph-name="bracketleft" unicode="[" horiz-adv-x="261" 
d="M355 360q2 1 3 3t9 3q13 5 13 10t-9 5l-7 -1q-10 -8 -17.5 -11.5t-14.5 -5t-15 -1.5h-17l-16 5q-7 8 -11.5 11.5t-16.5 5.5l-5 -2.5l-2 -1t-3 -0.5t-7 -1q-9 -6 -14 -9.5t-7 -7.5t-2.5 -9.5t-1.5 -15.5l-4 -12t-1.5 -6t-1 -7.5t-2.5 -16.5l-3 -5l-2 -8l-4 -12t-6 -11
q-9 -40 -26.5 -76.5t-40.5 -70.5q-1 -9 -8.5 -26t-17 -35.5t-19.5 -37.5t-16 -32q-2 -5 -2.5 -6.5t-1.5 -2.5t-1.5 -3t-2.5 -8l-11 -20q-5 -20 -11 -29.5t-16 -25.5l-1 -9h5q7 1 12 1.5l10 1t11 1t16 0.5l51 1l8 -3h12l11 -5l13 -3l13 -11q6 -3 12 -3t8 6l-2 5
q-11 10 -22.5 13t-27.5 6q-5 2 -9 3t-12 1h-20h-34q-8 7 -8 9t1.5 4t3.5 7q18 25 32 53.5t28 55.5q1 7 7 19.5t13.5 25t15 24t11.5 17.5q2 7 4.5 10.5t3.5 11.5q10 22 18.5 38t14.5 28t10 22t6 19q2 5 5.5 13.5t7.5 17.5t7 17.5t4 14.5q10 15 12 37q4 8 8 10.5t10 2.5l21 -2
q10 7 16 6t20 1z" />
    <glyph glyph-name="backslash" unicode="\" horiz-adv-x="322" 
d="M80 485l-18 -3q-7 -5 -10.5 -16t3.5 -31q3 -14 5 -21.5t3.5 -16t4 -21t7.5 -34.5q7 -33 12.5 -55.5t9.5 -40.5t7.5 -34.5t8.5 -38.5q10 -48 16 -72.5t10.5 -43t9.5 -41t13 -65.5q6 -34 11 -55.5t8.5 -35.5t6 -23.5t5.5 -20.5q1 -3 3.5 -9.5t5.5 -13t6.5 -11t6.5 -4.5
q4 0 3.5 7.5t0.5 9.5l-4 29l2 15l-20 77q-3 34 -10.5 61.5t-15.5 59.5l-18 76q-6 27 -9.5 41t-5.5 24.5t-4.5 24.5t-8.5 41q-2 19 -4 33t-4.5 27.5t-5.5 28.5t-5 35l1 22l-14 80z" />
    <glyph glyph-name="bracketright" unicode="]" horiz-adv-x="261" 
d="M21 -111q-5 1 -12 1q-6 0 -12.5 -0.5t-14.5 -2.5q-7 0 -9.5 -0.5t-4 -1.5t-5 -2t-13.5 -2q-17 -14 -17 -19q0 -4 6 -4t15 3q12 7 13 8q3 1 5 1t11 4q7 1 14 1.5t14 0.5q14 0 21 -4t11 -9t7.5 -9t11.5 -4q5 0 13 5q12 4 15.5 6.5t6.5 13.5q9 19 17 36.5t13 37.5l4 12
l51 98l29 63l49 89q5 15 12 26t15 25l27 47q5 10 12 21t7 19q0 6 -7 6q-22 -3 -43 -3.5t-43 -0.5h-3q-11 2 -15.5 7.5t-6.5 15.5q-11 12 -24 12q-7 0 -12.5 -4.5t-6.5 -13.5q3 -8 5 -12.5t5 -6.5t7 -3.5l12 -4.5l67 -1q5 0 10 -1t5 -4t-4 -7q-8 -14 -15 -27.5t-14 -28.5
l-24 -38q-6 -8 -17.5 -28.5t-23.5 -43t-22 -42.5t-12 -28l-10 -20q-9 -22 -19 -43.5t-19 -44.5l-11 -17q-1 -5 -2 -8t-2.5 -5t-2.5 -5t-2 -9q-5 -7 -5.5 -12.5t-4.5 -12.5l-7 -23l-8 -8z" />
    <glyph glyph-name="asciicircum" unicode="^" horiz-adv-x="193" 
d="M41 217h4l5 -1q8 5 11 3t12 5q15 8 31 14.5t32 14.5q10 4 20 11t20 12q3 2 9 5t11 3q6 0 6 -8l-1 -3q-6 -18 -10 -26.5t-4 -14.5q0 -7 19 -23q8 -2 14.5 -4t11.5 -2q9 0 9 6q0 5 -5.5 13.5t-5.5 24.5v6t1 8q3 4 4 5.5t1.5 3t0.5 4.5t1 11q2 6 4 10t2 9q0 9 -7 9
q-4 0 -11 -1t-12 -5q-16 -6 -29 -12.5t-28 -13.5q-4 -3 -5 -4l-2 -2q-2 0 -5 -1q-5 -3 -6 -4l-2 -2q-2 0 -6 -1q-7 -4 -8 -4l-8 -3q-4 -3 -5.5 -4t-2.5 -1.5t-3 -0.5h-7q-14 -8 -18 -10.5t-7 -3.5q-2 -1 -4.5 -3.5t-8.5 -4.5l-19 -11z" />
    <glyph glyph-name="underscore" unicode="_" horiz-adv-x="350" 
d="M189 -64q-32 -1 -64.5 0t-64.5 0h-25q-9 0 -18 -0.5t-19 -1t-24 -2.5q-12 -2 -20 -6t-8 -6q0 -5 12 -5q18 -2 36.5 -0.5t36.5 1.5h40q17 0 26.5 0.5t17.5 0.5h51q12 0 19 0.5t12 1.5q6 2 12.5 2.5t18.5 -0.5l101 -6l23 -3l30 7q4 3 4 7q1 4 -4 6t-12 3h-6t-5 -1
q-14 2 -22 2t-13 1h-10h-12t-21 -0.5t-37 -0.5h-55z" />
    <glyph glyph-name="quoteleft" unicode="&#x2018;" horiz-adv-x="215" 
d="M246 401q0 5 -2 4.5t-6 0.5q-11 -5 -23.5 -14t-20.5 -19q-8 -9 -18 -20t-18.5 -24t-14.5 -26t-6 -25q0 -4 1 -6q4 -4 4 -6t5 -3q15 0 31.5 13t16.5 34q0 2 -1 3q3 23 16 42.5t36 45.5z" />
    <glyph glyph-name="a" unicode="a" horiz-adv-x="240" 
d="M144 38q-5 -14 -7.5 -15.5t-2.5 -9.5q0 -7 6 -17l10 -4q8 2 10.5 2.5t4.5 1.5t4.5 2.5t9.5 5.5q9 6 12.5 8.5t6 4.5t6.5 4.5t15 10.5l11 7l17 13q4 7 4 9t-2 2q-4 0 -11.5 -4.5t-11.5 -6.5q-8 -5 -11 -7t-4.5 -3.5t-4 -3t-9.5 -5.5q-7 -3 -10.5 -5.5t-6.5 -2.5q-2 0 -3 3
t-1 4q0 9 7 20.5t9 16.5q2 4 3 9t1 7q0 5 -2 6.5l-6 4.5q-8 0 -12 1t-6 1q-2 5 -6.5 11.5t-15.5 6.5q-6 0 -14.5 -3t-8.5 -11q0 -9 4.5 -12.5t10 -5.5t10 -3.5t4.5 -5.5t-4.5 -9.5t-10 -11t-10.5 -10t-7 -6.5q-11 -10 -20 -13t-17 -3q-8 5 -8 6t-1 12q3 13 10.5 22.5
t15 15.5t13.5 10t6 8q0 6 -4 8.5t-9 2.5q-22 0 -44 -10.5t-43 -23.5q-9 -6 -21.5 -13.5t-12.5 -11.5q0 -2 6 -2l22 11l19 9l11 5q2 -1 5 -1t3 -3q0 -14 -8.5 -28t-8.5 -28q0 -16 5 -17.5t16 -2.5l20 9q13 7 21 12.5t14.5 9.5t12.5 8.5l14 10.5l5 3l1 -2z" />
    <glyph glyph-name="b" unicode="b" horiz-adv-x="235" 
d="M424 489l-3 5l-13 3l-3 -2q-24 -9 -44.5 -24.5t-41.5 -36.5q-24 -24 -43 -46.5t-36.5 -45t-34 -47t-35.5 -52.5l-30 -43l-25 -43q-6 -11 -16 -25t-30 -28l-27 -17l-26 -17q-2 -1 -6.5 -4t-9.5 -6t-9 -6.5t-4 -5.5t6 -2l42 24l24 10l5 -1l3 -6q-8 -16 -12.5 -28t-4.5 -25
q0 -20 4.5 -28t13.5 -8q12 0 30.5 10t36.5 24l12 9q13 -6 25 -6t22.5 4.5t24.5 11.5l21 15l6 10l-1 1q-6 -1 -15 -5.5t-14 -9.5q-8 -3 -13.5 -6t-19.5 -3h-8l-3 8l12 26q-3 18 -15 18q-9 0 -19 -12t-10 -29v-4l-3 -9q-13 -14 -20.5 -16.5t-20.5 -5.5q-4 0 -4 6q0 3 2.5 9.5
t5.5 13.5l6 14t5 11l18 40l23 25l98 76l22 25q9 6 13.5 8.5t9 6t10.5 11.5t20 26q23 22 38.5 43t31.5 50l23 59l6 32v18zM158 164q5 9 8 15t5.5 10.5t6 9.5t8.5 12q12 16 20 27.5t15 22.5t13.5 23.5t16.5 30.5q22 25 40 48t40 59l28 28t32 23h4q2 0 2 -1t-0.5 -3.5
t-0.5 -7.5l-2 -22l-6 -8q-5 -25 -13.5 -45t-20.5 -42q-19 -25 -36 -45.5t-35 -39t-38 -36t-45 -35.5q-18 -14 -24.5 -18.5t-9.5 -5.5h-8z" />
    <glyph glyph-name="c" unicode="c" horiz-adv-x="154" 
d="M99 75l3 -4q11 0 15 10t8 18q0 11 -4.5 14t-11.5 4q-8 0 -20.5 -7t-24.5 -17q-17 -14 -33.5 -29.5t-16.5 -38.5v-1q0 -8 2 -14t11 -11l10 -2l9 -3q10 1 17 2.5t12.5 4t11.5 6t15 8.5l19 12l25 16l13 10q6 6 6 8q0 1 -2 1t-7.5 -2.5t-11.5 -7.5l-37 -20q-14 -8 -21 -11
t-17 -3q-19 0 -19 19l2 11l3 11q4 11 16 26t27 15q5 0 6 -2.5t1 -6.5t-1 -7z" />
    <glyph glyph-name="d" unicode="d" horiz-adv-x="205" 
d="M394 437v3l-5 2q-14 -2 -32.5 -10.5t-41.5 -25.5q-17 -13 -28 -21t-19 -16.5t-15.5 -18t-17.5 -25.5q-8 -18 -10.5 -24.5t-3.5 -11.5t-2 -12.5t-6 -27.5l-4 -15l-13 -58q-7 -34 -16 -57.5t-20 -40.5t-25.5 -29.5t-32.5 -23.5l-20 -2l-3 1l-1 4l10 34l9 13q11 5 19.5 11.5
t8.5 11.5q0 9 -22 13q-20 -4 -30.5 -9.5t-27.5 -16.5l-22 -12q-2 -1 -7.5 -4t-11.5 -7t-10.5 -7.5t-4.5 -5.5t6 -2q12 6 19.5 10t12.5 6.5t10 4t12 3.5q7 -7 7 -15q0 -7 -4.5 -14.5t-7.5 -17.5q-2 -5 -2.5 -8.5t-0.5 -6.5q0 -14 8 -14q29 0 55.5 14.5t49.5 31.5
q34 37 55 73.5t41 78.5l6 15v16l4 13l10 52q1 15 3 25.5t5.5 19.5t8.5 18t12 22q28 29 46.5 40.5t40.5 15.5z" />
    <glyph glyph-name="e" unicode="e" horiz-adv-x="167" 
d="M63 20q-3 5 1.5 10t8.5 7l18 13q24 17 33.5 32t9.5 38q-8 11 -18.5 5t-19.5 -11q-27 -17 -49 -39t-32 -55q1 -14 3 -20t16 -10q34 2 58.5 12t50.5 30l12 9q9 5 15.5 11.5t6.5 8.5l-1 1q-2 0 -7 -2t-13 -8q-17 -11 -28 -17t-19 -9.5t-16.5 -5t-20.5 -3.5zM57 39l-2 16
q7 18 21 30q15 12 24 12q12 0 6 -13q-11 -14 -21.5 -24.5t-24.5 -21.5h-1z" />
    <glyph glyph-name="f" unicode="f" horiz-adv-x="197" 
d="M423 495q-2 16 -6.5 22.5t-18.5 8.5q-35 -10 -65 -42.5t-53 -70.5q-25 -29 -43.5 -55.5t-35 -54t-32.5 -56.5t-35 -62l-24 -41l-14 -19l-88 -60q-5 -4 -16 -10.5t-11 -9.5l2 -1q1 0 11 2l24 14l35 15l11 -4l-22 -62l-11 -19l-9 -29l-22 -57q-23 -47 -38.5 -86t-29 -77.5
t-26 -79.5t-28.5 -90v-1q0 -10 4 -10q5 0 15.5 20.5t23.5 58.5l23 44l36 69l15 43q21 39 38.5 78.5t35.5 80.5q14 21 25 32.5t23.5 19t27.5 14.5t36 19l22 13q6 6 7 8l-2 1q-5 0 -16 -4.5t-13 -5.5l-18 -8l-9 -3t-12 -4.5t-11.5 -4.5t-6.5 -2q-10 0 -12 1l-1 8
q0 14 12.5 38.5t29.5 47.5l6 6q17 20 34 33.5t37 28.5l67 67q12 9 17 14t9.5 11t10.5 15.5t19 28.5q17 26 28 45.5t22 46.5q10 18 12 38zM173 170l-1 7q4 10 11 23.5t15 27.5t16 27t14 22l8 17q20 45 33.5 69t24 39t20 26t22.5 29l23 33q8 5 14.5 8t11.5 3q8 0 9 -10
q-3 -45 -18.5 -82t-36.5 -77q-17 -20 -25 -29.5t-11 -14.5t-4 -7.5t-5 -7.5q-27 -25 -55.5 -52t-59.5 -50z" />
    <glyph glyph-name="g" unicode="g" horiz-adv-x="246" 
d="M180 22l11 33q-1 9 -2 14t-3.5 8.5t-6.5 6.5t-10 9q-2 11 -5.5 16.5t-19.5 7.5q-11 0 -17.5 -4t-6.5 -18q0 -5 7.5 -11t10.5 -14q-8 -19 -26.5 -32t-29.5 -15l-4 3l-1 7l2 14l10 22l17 20q4 8 4 13t-5.5 6.5t-13.5 3.5q-11 -3 -17 -5t-10.5 -5t-9.5 -6.5t-13 -9.5
l-28 -17q-1 0 -4.5 -2.5t-7.5 -6t-7.5 -7t-3.5 -5.5q0 -3 6 -3l25 14l14 5q8 3 12.5 5t6.5 2q3 0 3 -2t-2 -6t-4 -9q-2 -9 -5 -19t-3 -20q0 -9 2.5 -12t10.5 -3q6 0 12.5 2.5t11.5 4.5q20 8 33 19t30 28l3 -3v-5l-7 -24l-13 -24l-9 -21l-4 -7q-48 -46 -97 -89.5t-97 -88.5
q-14 -17 -26.5 -30t-22.5 -27t-16 -31t-8 -41l-2 -11q1 -20 1 -32q0 -13 1.5 -22t6 -15.5t15.5 -13.5h11q4 0 6 0.5t5 3t8 7.5t14 13q12 10 17 14t8 7t6.5 8t13.5 19q37 41 66.5 83.5t53.5 88.5l7 19q17 24 31.5 50t28.5 52q17 32 34 53t44 44l11 7l19 13q4 4 4 7q0 2 -3 2
q-4 0 -10 -3t-10 -6l-22 -15l-25 -14h-6zM96 -74l-14 -34l-64 -121l-15 -18q-35 -67 -65 -104.5t-51 -47.5q-14 0 -14.5 5t-3.5 16l-8 19q2 18 4.5 34t13.5 30l2 11q14 20 18.5 27t7.5 11q4 4 9.5 8.5t20.5 17.5l5 9l20 27l22 18l43 35l15 15l13 8l13 15l24 21z" />
    <glyph glyph-name="h" unicode="h" horiz-adv-x="256" 
d="M182 179q-1 -1 -4 -1q-4 0 -4 4t2 8.5t4 7.5l9 14l19 42l18 26l9 16l16 25l59 89l28 40l37 36l9 5h22l3 -5q-4 -40 -21 -77t-43 -69l-44 -53l-9 -11q-8 -12 -7 -14l2 -1q6 0 21 16l28.5 28.5t21 23t18.5 25.5t21 36l13 24l11 19l3 18l14 38v11l-9 18l-13 2
q-24 -6 -48.5 -24t-47 -40.5t-42.5 -46.5t-35 -43q-35 -56 -67.5 -115.5t-64.5 -107.5l-14 -18l-89 -59q-8 -7 -13.5 -11.5t-5.5 -6.5q0 -1 3 -1q5 0 10 1l18 12l28 16q8 5 15 8.5t11 3.5q3 -1 2.5 -4.5t-5.5 -12.5l-12 -19q-4 -6 -9.5 -18.5t-9.5 -23.5q0 -15 9 -15
q4 0 14 4q43 45 98 65l3 -3v-5q-6 -11 -9.5 -17.5t-5.5 -12t-3.5 -11.5t-2.5 -16q4 -10 11 -10q2 0 12 2q21 11 40 23.5t38 26.5q5 4 14 10t9 9q0 1 -2 1q-5 0 -8 -1l-12 -8l-27 -15q-16 -10 -22.5 -14t-9.5 -4q-2 0 -5 3q3 17 13 32.5t21 29.5q5 9 0.5 12.5t-6.5 4.5
q-17 -2 -31 -8t-28 -15q-8 -5 -13 -8.5t-9.5 -6t-9.5 -4.5t-12 -4l-2 2q0 4 4.5 12.5t10 17.5t11 17t7.5 11q17 16 28 30t30 28q21 15 37.5 30.5t33.5 34.5v1q0 3 -3 3q-5 -1 -13.5 -8.5t-13.5 -13.5z" />
    <glyph glyph-name="i" unicode="i" horiz-adv-x="157" 
d="M189 215l-27 41l-11 1l-4 -1q-11 -8 -12.5 -7.5t-1.5 -5.5v-1q0 -15 12.5 -28t27.5 -13q7 0 15 5zM127 136q-16 -5 -30.5 -15t-28.5 -19l-14 -8l-33 -20l-30 -21l-2 -7h7l19 11l15 10l17 8l12 4l13 -3v-6q-11 -21 -19 -36.5t-13 -38.5l3 -3h9q17 0 29.5 7t26.5 16l24 17
l11 7q5 4 15 10.5t10 10.5q0 2 -4 2t-7 -1l-12 -9l-20 -11l-14 -8l-6 -4h-6l-9 3v7l6 12q6 22 18 40t24 38q0 7 -6 7h-5z" />
    <glyph glyph-name="j" unicode="j" horiz-adv-x="163" 
d="M140 234q4 -6 11 -10.5t15 -4.5q13 0 19 14q-6 12 -6.5 18t-3.5 8q-4 2 -11 2q-5 -4 -15 -9t-10 -13zM134 43l-14 -10l-16 -6q-3 3 -3 7l4.5 12t2.5 6t1 3v7l12 27q1 9 2 14t0.5 7.5t-4.5 4t-12 3.5q-17 -3 -32 -12.5t-30 -18.5l-28 -17q-1 0 -5.5 -3t-9.5 -6.5t-9 -7
t-4 -5.5t6 -2l25 11q21 10 27.5 13t18.5 6q5 0 8 -5q-7 -26 -19.5 -49t-27.5 -45l-74 -62q-55 -47 -98 -94t-82 -107q-5 -14 -8.5 -23t-5 -16.5t-2 -16t-0.5 -21.5q0 -24 6 -28.5t30 -4.5q30 13 51 32.5t41 44.5q15 17 21.5 23t10.5 8.5t6 6.5l8 16q16 17 23 24t11 12
t7.5 13t12.5 28q7 16 14 24.5t12.5 15.5t10 14.5t7.5 20.5l7 7q1 0 3 9l16 27q8 21 14.5 34t13.5 22t16 16t22 17l16 13l12 7q6 5 14.5 11t8.5 9q0 2 -5 2h-4l-13 -9zM18 -61l-8 -22l-6 -9q-26 -52 -52.5 -99t-64.5 -92q-18 -22 -31.5 -37t-24 -25t-19.5 -15.5t-18 -8.5
q-8 4 -12 7t-5 6.5t-1 8.5v12l11 31q22 58 63 101.5t88 84.5l15 16l5 1l31 27l17 13l11 6z" />
    <glyph glyph-name="k" unicode="k" horiz-adv-x="243" 
d="M458 479q2 5 1 9t-6 11q-6 8 -13 9.5t-21 1.5q-29 -12 -54.5 -31t-47.5 -42.5t-41.5 -49.5t-37.5 -51q-31 -44 -54.5 -83.5t-50.5 -85.5l-23 -26l-55 -46q-8 -6 -18 -13t-19 -8q-19 -11 -24 -17.5t-5 -8.5l2 -1q3 0 6.5 2t11.5 6l25 15l26 21q10 8 16.5 11.5t16.5 5.5
l3 -5q-14 -23 -19.5 -33t-10 -17t-10 -16t-18.5 -28q-2 -4 -2 -9q0 -7 9 -7l11 -1q14 9 25 23.5t19 29.5l6 1l5 -1q5 -16 15.5 -28.5t24.5 -17.5l13 2l19 10l26 17l20 13l18 12q4 5 4 8l-1 1q-3 0 -10 -4t-11 -6q-13 -7 -21 -11.5t-13 -7t-9.5 -4t-11.5 -2.5q-31 9 -31 36
q0 4 1 7l9 5q20 6 34 14t29 22q5 7 5.5 10.5t-7.5 8.5q-21 -3 -36.5 -10t-32.5 -18l-1 4l5 10l19 32q11 10 26.5 24t32.5 28.5t33.5 27t29.5 18.5l53 55l17 22q16 10 31 27.5t27 37.5t21.5 41.5t14.5 40.5zM441 465q-8 -18 -10 -24t-4 -10q-2 -3 -5 -7t-11 -12
q-19 -35 -51.5 -73t-79.5 -76l-45 -37l-30 -22q-7 -1 -5 7l17 30l29 47l16 25l8 13q18 29 37 55t42 51l30 33q11 8 24 17.5t24 10.5q6 0 10 -4.5t4 -17.5v-6z" />
    <glyph glyph-name="l" unicode="l" horiz-adv-x="187" 
d="M156 41q-14 -7 -19.5 -9.5t-8.5 -4l-6 -3t-13 -4.5h-3q-5 0 -6 1.5t-2 9.5q5 30 16.5 54t31.5 48q36 34 71.5 66.5t66.5 69.5q22 26 43 51.5t43 51.5q12 20 27 40t14 45q8 10 12 13t4 5q-2 17 -8 20t-18 6q-15 -2 -22.5 -3.5t-13.5 -4.5t-12.5 -8t-17.5 -13
q-30 -23 -60 -58t-58 -75.5t-52.5 -82t-44.5 -76.5l-35 -60l-2 -4l-42 -31l-18 -11q-24 -15 -29 -17.5t-5 -7.5q0 -3 4 -3q5 0 14.5 7t13.5 9l19 9q6 3 15 3t9 -9l-9 -29q-2 -7 -3 -13.5t-1 -13.5v-1q0 -10 2 -12q7 -6 16 -6q19 0 48.5 14t54.5 34q7 6 14 11.5t7 8.5
q0 2 -2 2t-9.5 -3.5t-8.5 -4.5zM156 159q-2 4 -2 7q0 10 14 35l35 61l25 39l47 70q7 11 21.5 28.5t30.5 34t32.5 29t28.5 13.5q7 0 7.5 -2t3.5 -10q-1 -9 -1 -12q0 -2 -1.5 -5t-4 -10t-7.5 -24q-21 -25 -40.5 -50.5t-40.5 -51.5q-39 -48 -67.5 -77t-44.5 -43z" />
    <glyph glyph-name="m" unicode="m" horiz-adv-x="377" 
d="M290 78q6 0 6 -5q0 -1 -0.5 -2.5t-0.5 -3.5l-17 -25q-8 -14 -13 -20t-5 -14q0 -4 2 -8.5t5 -12.5q11 0 22.5 5t22.5 11.5t21 14.5t19 14l11 7l20 13q4 5 4 7t-2 2q-4 0 -10.5 -3.5t-9.5 -5.5q-14 -8 -27 -15t-27 -13q-6 4 -6 10q0 9 11 21t16 28q0 4 0.5 7t0.5 6
q0 6 -3 9t-14 4q-11 0 -24 -7t-25 -16.5t-23 -19.5t-19 -16l-13 -11l-11 -3l1 9q2 5 10 21t8 30q0 11 -8 15q-13 -3 -21 -6.5t-15 -8t-14.5 -11t-18.5 -15.5l-44 -31q-5 2 -5 7q0 4 3.5 10t7 13t7 14.5t3.5 13.5q0 11 -12 20q-13 -1 -18 -1q-4 0 -7.5 -2.5t-10 -7.5
t-22.5 -16l-25 -16q-8 -5 -18.5 -13.5t-10.5 -12.5q0 -2 4 -2h1l19 11l21 14l22 12h9l9 -5v-7l-23 -49q-2 -7 -4 -12t-2 -10t3 -9q12 0 24.5 6t21.5 14q18 20 34 33.5t39 26.5l11 4q3 -3 3 -5t-1 -4.5t-2 -5.5q-10 -20 -14 -27.5t-6 -11.5t-3 -8.5t-5 -17.5l3 -5q3 -1 9 -1
q11 0 19 5.5t19 13.5q13 13 21 21.5t13 13.5t8 8.5t6 5.5q4 4 10.5 7.5t22.5 13.5h7z" />
    <glyph glyph-name="n" unicode="n" horiz-adv-x="263" 
d="M155 28l-3.5 -10.5t-1.5 -8.5q0 -8 9 -14q26 1 47.5 14t46.5 30q8 6 14.5 12.5t6.5 9.5l-2 1q-4 0 -21 -10q-25 -14 -32.5 -19t-12.5 -7h-5q-2 0 -7 -1q-3 3 -3 8q0 7 5.5 15t10.5 14q3 8 8 18t5 20q0 9 -5 15q-20 0 -40 -11.5t-36 -24.5l-34 -28l-2 2l5 12q2 5 7 17
t5 23q0 13 -14 13q-24 -8 -44.5 -19t-41.5 -25l-29 -21l-2 -4q0 -2 2 -2q8 0 20 8l29 18q8 5 16 8t13 3q8 0 8 -8q0 -6 -5 -15l-32 -61l-1 -8l2 -2q7 0 16 5t18 12t17 14.5t13 11.5l52 41q4 2 8 5.5t8 3.5q5 0 6 -7z" />
    <glyph glyph-name="o" unicode="o" horiz-adv-x="192" 
d="M159 62q9 16 9 27q0 14 -14 26q-5 3 -12 3q-8 0 -17.5 -4.5t-14.5 -12.5l-8 -2l-11 3q-29 -4 -52 -18t-46 -31q-2 -2 -2 -5l1 -2q4 0 11.5 5t13.5 8q10 4 12.5 5.5t4.5 1.5q4 0 8 -2l-2 -7q-5 -6 -7 -8.5t-2.5 -4t-1 -4t-2.5 -8.5q-5 -10 -5 -18q0 -10 7.5 -14.5
t19.5 -9.5l13.5 -1.5t6.5 -0.5t3.5 1.5l6.5 6.5l9 2q0 -1 6 6q8 3 11 4t4.5 2.5t4.5 5.5t11 12l15 11q8 -1 11.5 -2t7.5 -1q5 0 23 7q9 5 17 12t8 9q0 1 -2 1q-6 0 -16 -5l-23 -4zM61 32q2 10 5 17t6.5 12.5t8.5 10.5l12 12q5 5 5.5 6.5t2.5 1.5l6 -2q3 -8 3 -12
q0 -3 1 -5.5t4 -5.5t11 -10l-1 -11q-15 -15 -21.5 -21t-17.5 -6q-7 0 -22 3z" />
    <glyph glyph-name="p" unicode="p" horiz-adv-x="256" 
d="M66 79q2 -3 2 -11q0 -12 -5 -27.5t-10 -23.5l-56 -121l-52 -111l-72 -168q-1 -4 -1 -9q0 -4 2 -4t10 5l73 119q7 11 21.5 36t25.5 52q6 6 12.5 16.5t13 23t12 25.5t9.5 24q9 20 15.5 40.5t14.5 45.5q5 14 8.5 22.5t8 14.5t10 12.5t14.5 15.5q13 14 19 19t23 5q2 -1 2 -6
q0 -6 -3.5 -16t-9 -20t-11 -18t-8.5 -10q-8 -2 -14.5 -8.5t-6.5 -13.5q0 -9 9 -13q5 -1 8 -1h7q10 0 13.5 3.5t13.5 14.5q20 11 39.5 23t39.5 24q23 14 23 21q0 1 -2 1t-7.5 -2t-13.5 -7l-19 -11l-10 -7l-18 -7h-5l-9 5l13 21l10 28q0 4 0.5 6.5t0.5 5.5q0 16 -14 20
q-25 -9 -40.5 -20.5t-36.5 -26.5h-6l-3 3q0 11 2 17.5t2 13.5q0 9 -9 21q-5 3 -9 3q-8 0 -17.5 -6t-19.5 -14t-19.5 -16.5t-15.5 -13.5l-28 -19q-2 -6 -2 -7l1 -1q3 0 9 3.5t14 8.5l22 12q12 5 13 6.5t6 1.5h11z" />
    <glyph glyph-name="q" unicode="q" horiz-adv-x="240" 
d="M131 24v-5l-13 -24l-27 -48l-39 -81l-15 -24l-30 -58l-14 -23l-6 -16q-11 -18 -15 -25.5t-6 -11t-3.5 -8t-7.5 -17.5l-23 -53q3 -9 6 -9q7 0 15 14t16 25l26 36q3 13 3.5 17t3 8t8.5 11t18 26q9 10 12 14t4.5 7.5t4.5 10t12 23.5q9 12 12.5 17t5 7.5t2.5 5t5 11.5
q16 23 22.5 31.5t10.5 14.5t8.5 14t17.5 31q25 35 46 59.5t54 47.5q5 7 5 8t-2 1q-4 0 -10.5 -3.5t-10.5 -5.5l-31 -24l-20 -17l-5 1l-1 7l10 21q4 9 3 23t-12 22q-2 14 -10 20.5t-20 8.5q-9 0 -17.5 -4t-8.5 -10q0 -10 8.5 -15t13.5 -8l10 -5q-3 -8 -9 -17t-13.5 -17.5
t-17 -14t-18.5 -5.5q-2 0 -5.5 3.5t-3.5 7.5q2 13 9.5 23.5t12.5 22.5q3 6 3 8v6q0 6 -4 9.5t-13 8.5q-19 -6 -35.5 -14.5t-33.5 -19.5l-29 -20l-3 -6l1 -1q3 0 9 3.5t17 9.5l13 5l16 5q6 1 8 2t4 1l6 -6v-4l-6 -14l-8 -19v-4q-2 -11 -3.5 -16.5t-1.5 -8.5q0 -5 3.5 -5.5
t14.5 -2.5q15 3 19.5 4t8.5 3.5t11.5 8.5t27.5 19z" />
    <glyph glyph-name="r" unicode="r" horiz-adv-x="151" 
d="M70 75l-1 -4l-7 -10l-14 -23q-3 -9 -6 -16.5t-3 -14.5q0 -12 13 -20q23 5 40.5 16.5t34.5 25.5l12 9l20 14q4 6 4 9l-2 1q-3 0 -36 -20l-24 -14q-9 -4 -14 -4l-9 1q1 7 1 9q0 3 1 5.5t3 6t6 13.5q8 7 11.5 10t5 4.5t3 3.5t4.5 8q-3 7 -8 9t-11 4q-1 3 -1 5q0 1 6 6
q1 2 1 5q0 9 -6.5 10.5t-14.5 1.5l-15 -14l-8 -11l-10 -9q-14 -8 -18.5 -11t-8 -5.5t-9 -7t-19.5 -15.5l-1 -7h2q5 0 22 13l23 16l20 6l10 2l3 -3v-5z" />
    <glyph glyph-name="s" unicode="s" horiz-adv-x="149" 
d="M123 126q-18 -7 -31.5 -12t-24.5 -20q-12 -4 -16 -5.5t-7 -3t-7 -4t-16 -8.5q-8 -5 -20 -13.5t-12 -11.5q0 -2 2 -2q1 0 1.5 0.5t2.5 0.5q19 10 33.5 16t31.5 11l1.5 -7.5t1 -4.5t2.5 -5t5 -10q2 -7 2.5 -10.5t0.5 -6.5t-3 -12l-47 -26q-6 -5 -14.5 -12t-8.5 -15
q0 -7 3.5 -8.5t9.5 -3.5q15 1 23 2t13.5 3.5t11 7t16.5 12.5l11 13l8 8l5 9l10 15q11 8 15 11.5t7 5t7.5 4t16.5 9.5q5 7 5 6q0 3 -4 3q-1 0 -10 -3q-8 -6 -10.5 -8t-4.5 -3t-5 -2t-13 -6l-3 3q2 6 2 10q0 11 -5 18.5t-11 17.5l3 6q11 10 17 12.5t19 7.5l3 5q-1 6 -9 6h-8z
M74 -5q0 -2 -1.5 -3.5t-5.5 -9.5q-2 -4 -11 -9t-16 -5q-8 0 -8 9q0 5 3 7.5t7 4.5q5 5 5.5 6.5t6.5 3.5q2 1 6 2t8 1q6 0 6 -7z" />
    <glyph glyph-name="t" unicode="t" horiz-adv-x="178" 
d="M62 95q11 10 24 22.5t24 23.5q5 5 11 11.5t12 6.5q1 0 5 -2q-5 -8 -12.5 -20.5l-15 -25t-14.5 -22t-12 -12.5q-14 9 -22 18zM35 74q7 -8 16.5 -16.5t10.5 -11.5q-2 -16 -4 -27q-2 -7 -3.5 -11t-1.5 -9q0 -6 4 -14q5 -1 7 -1.5t4 -0.5t3.5 0.5t6.5 2.5q7 8 12.5 22.5
t10.5 26.5q5 -2 11.5 -2.5t10.5 -0.5q7 0 16.5 2t22.5 7q7 4 17.5 9t10.5 9q0 2 -6 2h-4q-17 -11 -38 -9q-10 2 -19 5t-7 10q24 40 49 81t50 77l43 64l20 34l14 32q1 5 2 6.5t1 2.5t-1 2t-3 5q-5 2 -7.5 4t-4.5 2t-11 -6l-35 -41q-11 -14 -14 -18t-6.5 -10t-11 -18
t-28.5 -41l-35 -47q-18 -25 -41 -49t-44 -44q-5 4 -10.5 7.5t-8.5 3.5q-11 0 -11 -18q0 -6 5 -14q-6 -5 -17.5 -14t-19.5 -16l-2 -6h7l16 11z" />
    <glyph glyph-name="u" unicode="u" horiz-adv-x="253" 
d="M67 67l-1 -3l-22 -45l-8 -16l-1 -8l4 -5h23q26 10 44.5 24t40.5 31q3 0 4.5 -0.5t1.5 -5.5l-7 -8l-4 -13q-3 -6 -5.5 -9.5t-2.5 -7.5q0 -5 4 -10q5 -2 8 -2h6q8 0 14 2.5t15 7.5q16 10 31 19.5t29 20.5l19 14q6 7 6 9q0 1 -2 1q-3 0 -11.5 -4.5t-10.5 -6.5l-31 -21
l-22 -11l-10 -1q-1 2 -1 5q0 11 8 23.5t12 19.5q7 13 11.5 18t6 7.5t2 5t0.5 10.5l-2 3q-12 -2 -16.5 -4.5t-18.5 -13.5q-17 -17 -22.5 -23.5t-10.5 -10.5t-13.5 -10t-29.5 -22q-12 -3 -15 -3q-4 0 -4 8v4l18 38l12 18l6 16q1 2 1 5q0 5 -8 5t-15 -3t-9 -4l-43 -21l-36 -23
q-21 -13 -21 -17q0 -3 6 -3l20 10q10 5 17 8t11.5 4.5t8.5 1.5h9z" />
    <glyph glyph-name="v" unicode="v" horiz-adv-x="215" 
d="M194 56q-6 0 -7.5 2t-1.5 11q4 6 5 8t2 3.5t2.5 3l6.5 6.5l3 9l-3 6l-1.5 3t-2.5 1t-7 2q-20 -4 -24 -9t-8 -22v-9l-10 -16l-14 -12q-13 -10 -21.5 -14t-23.5 -9q-8 3 -8 4q0 -1 6 13q11 15 20 30.5t19 31.5q0 3 0.5 4.5t0.5 3.5q0 3 -1.5 4t-4.5 6q-14 0 -25 -4t-23 -9
q-23 -12 -42 -24t-40 -27q-3 -5 -3 -6t2 -1q3 0 11 4.5t19 11.5l18 9q15 5 23 5q10 0 10 -9v-1l-9 -14l-17 -43v-7t1 -3l2.5 -2.5t4.5 -5.5h7l9 1l38 16l23 14l18 14l11 10l6 1q7 -5 11 -6t8 -1q3 0 7 0.5t10 1.5q5 2 14 8t9 8q0 4 -3 4q-1 0 -2.5 -0.5t-3.5 -0.5l-11 -5
h-10z" />
    <glyph glyph-name="w" unicode="w" horiz-adv-x="312" 
d="M292 57q-4 2 -5 5q3 7 4 9t2 3.5t1 3.5v11q-8 14 -15 14q-15 0 -20 -10.5t-5 -23.5v-5q-15 -29 -31 -39.5t-49 -14.5q-10 3 -10 6q0 2 1.5 5l3.5 7q10 13 18.5 24.5t19.5 22.5l17 23q2 8 2 9q0 2 -5 6q-3 1 -8 1q-11 0 -20 -9.5t-24 -29.5l-11 -15q-12 -13 -20.5 -19.5
t-16 -9.5t-15 -4t-17.5 -2q-3 4 -3 6l2 6l12 19l17 29q5 6 7 8.5t3 4t1.5 4t2.5 9.5l-3 2q-6 2 -10 2q-9 0 -17.5 -3t-16.5 -6q-26 -11 -48.5 -24t-47.5 -29q0 -2 -0.5 -2.5t-0.5 -2.5t2 -2q3 0 8.5 3t16.5 8l21 12q11 3 18 6.5t13 3.5q7 0 7 -6t-6.5 -16t-10.5 -18
q-5 -9 -13 -21t-8 -22q0 -12 19 -12q8 0 14.5 4t20.5 9l23 14l28 18q3 0 3 -1q0 -2 -3.5 -7t-3.5 -13q-1 -4 -1 -8q0 -8 6 -9.5t17 -4.5l49 18q17 10 33.5 19.5t31.5 21.5l10 -2q9 -2 15 2t18 9q2 2 3.5 2.5t1.5 2.5t-4 2q-6 0 -15 -4h-9z" />
    <glyph glyph-name="x" unicode="x" horiz-adv-x="244" 
d="M-25 -60q18 0 38 14.5t38 31.5q13 13 25 24.5t17 13.5q5 -5 5.5 -15t6.5 -18l8 -8t14 -3q7 0 20.5 6t24.5 14l15 11l15 10l18 11l36 26v2q0 4 -3 4q-4 0 -10.5 -5t-7.5 -5q-9 -6 -15.5 -10.5t-12.5 -8t-13 -6.5t-17 -7q-4 -1 -11.5 -3.5t-10.5 -2.5q-12 0 -18 8.5
t-6 20.5q0 7 -1 8t-1 3q0 9 16 22l25 21q14 12 19.5 14.5t16.5 2.5q8 0 13 -6q3 -13 12 -13q6 0 11.5 5.5t5.5 12.5q0 10 -14 13q-8 3 -14 3q-3 0 -5.5 -0.5t-6.5 -1.5q-9 0 -23 -7t-29 -18q-11 -8 -18 -16t-11 -8q-2 0 -3.5 5t-3.5 13q-7 8 -10 10.5t-15 2.5
q-11 0 -23 -5.5t-24 -12.5l-26 -16l-28 -20l-9 -8q0 -1 2 -1h3l26 11l29 17q12 8 26 8q18 0 20 -19q0 -2 0.5 -5t0.5 -5q0 -8 -8 -19t-38 -40q-11 -11 -21.5 -19.5t-19.5 -11.5l-4 3q-5 8 -13 8h-1q-10 0 -18 -8t-8 -19q0 -4 1 -6.5t6 -2.5h7z" />
    <glyph glyph-name="y" unicode="y" horiz-adv-x="252" 
d="M160 6v4q8 9 13.5 16.5t11.5 20.5l10 14l1 9l8 9l1 8l10 16q0 9 -3 9q-2 0 -10 1l-10 -4q-11 -10 -14.5 -14t-7.5 -7.5t-11.5 -9t-25.5 -18.5q-18 -9 -23.5 -11.5t-8.5 -3.5q-2 -1 -6 -1q-3 0 -11 -2q-5 3 -5 8q0 3 2 7t4 10l22 34l2 7l-1 4h-4q-7 0 -12.5 -2t-10.5 -3
l-26 -15l-21 -12l-17 -11q-14 -7 -20 -12t-6 -8q0 -2 3 -2h2l24 10l21 7l5 -3v-2q-14 -31 -14 -41q0 -11 18 -11q15 0 22 3.5t21 11.5l43 23l12 3l2 -3v-3l-7 -9l-7 -19q-9 -15 -17.5 -29.5t-16.5 -30.5l-15 -20l-12 -5q-34 -29 -53.5 -45t-31 -25.5t-18.5 -16t-17.5 -16.5
t-27.5 -27t-48 -47q-18 -29 -26 -40t-11.5 -16.5t-5.5 -11.5t-8 -25q-2 -10 -2 -15q0 -29 28 -29q8 0 19 3q16 9 22.5 13t10 6l7 4t14.5 9l20 19l30 31l73 104l15 19l5 18l11 15l12 29l29 46q12 15 20 24t15.5 17t16.5 16.5t23 21.5q18 16 30 23t30 19q4 5 4 7t-2 2
q-3 0 -9.5 -3.5t-10.5 -5.5q-18 -13 -37 -26t-39 -23zM13 -206l-66 -96l-41 -37q-8 -5 -16.5 -10.5t-17.5 -5.5q-8 0 -15 5q0 6 -0.5 10t-0.5 7q0 8 2.5 13.5t9.5 28.5q10 12 14 17t5.5 9t4.5 9t12 17q12 10 22.5 17.5t19 14.5t16 15.5t15.5 20.5l36 28q14 11 28 23.5
t19 12.5l2 -2q0 -3 -4 -11.5t-15 -24.5l-14 -34z" />
    <glyph glyph-name="z" unicode="z" horiz-adv-x="178" 
d="M134 135v9q0 8 -3.5 9.5t-13.5 3.5l-8 -6q-6 -1 -8.5 -1.5t-4 -1t-4 -2t-9.5 -5.5q-14 -10 -14 -17q0 -5 4 -12l-6 -9l-12 -6l-27 -18q-15 -9 -25.5 -17t-10.5 -12q0 -2 7 -3l20 13l38 20l18 8q8 -2 12 -2.5t6.5 -2t4 -5t4.5 -9.5q-4 -13 -6 -19t-5 -10q-5 -6 -21 -18
q-17 -2 -24.5 -5.5t-20.5 -11.5v-2q0 -6 6.5 -8t14.5 -5l13 -23l-9 -14l-21 -23l-54 -55l-129 -141l-43 -51q-7 -11 -13 -21t-6 -21q0 -10 5 -16q9 -6 14.5 -8t12.5 -2q8 0 31 3l5 8l14 1l32 17q37 19 61.5 46t53.5 57l7 15l19 22l2 7l9 10l7 14q13 16 20.5 29.5t12.5 27
t8 28t8 34.5q0 13 0.5 21t2 14t4.5 12.5t9 17.5l14 10l10 10l14 10l8 10l19 14q3 4 3 6q0 1 -2 1q-4 0 -11 -3t-9 -5q-18 -13 -34 -27t-33 -28l-9 -2l-8 11l24 22q14 16 19 27t5 22q0 5 -0.5 10t-1.5 11q-7 6 -7 7t-2 13zM67 -84l-25 -61l-5 -10l-6 -17l-11 -18l-3 -10
l-45 -62l-61 -64q-19 -13 -25 -18t-11 -8q-5 -2 -11 -4t-23 -8q-15 0 -20 1.5t-5 6.5t5 20l31 55l39 47l17 16l12 19l19 17l25 37l28 22l7 8l24 17l5 8l18 14l18 12z" />
    <glyph glyph-name="braceleft" unicode="{" horiz-adv-x="245" 
d="M362 407q1 3 -2.5 5t-6.5 1q-10 0 -16.5 -5t-6.5 -9q14 4 19 3t13 5zM204 249q0 -11 -1 -21.5t-6 -19.5q-11 -24 -33.5 -42t-45.5 -30l-4 -6l2 -3h4q7 0 10 -3.5t5 -9t3 -11t4 -9.5q-5 -23 -18.5 -42t-30.5 -36q-3 -9 -10 -16.5t-10 -16.5q-8 -8 -13 -17.5t-11 -18.5
q-5 -14 -8.5 -27.5t-3.5 -27.5q0 -7 1 -10q4 -9 11.5 -14.5t14.5 -11.5q5 -1 9 -1.5t9 -0.5q16 0 25 5q3 -1 9 -1q12 0 23 3.5t22 8.5q0 2 2 3t2 3l-2 2q-9 -3 -18 -3q-5 0 -11 0.5t-11 0.5q-7 0 -10 -1q-11 5 -20.5 16.5t-11.5 24.5q0 28 12 51q4 14 13 26.5t17 25.5
t18.5 24.5t20.5 23.5t16.5 25.5t6.5 30.5v6q-1 9 -8.5 12.5t-14.5 6.5q5 8 14 13.5t17 11.5q11 5 17.5 13t11.5 17t10.5 17.5t13.5 15.5q3 8 4 14.5t1 12.5q0 9 -1 17.5t-1 17.5q0 14 5 24q2 12 10.5 20t12.5 19q8 12 20.5 18t23.5 14q0 3 -5 3q-4 0 -11.5 -4t-13.5 -8
q-11 -2 -17 -6t-9.5 -8t-7.5 -8t-10 -7q-7 -7 -12.5 -11.5t-10 -8.5t-7.5 -9.5t-6 -14.5q-5 -9 -6 -19.5t-1 -21.5v-21z" />
    <glyph glyph-name="bar" unicode="|" horiz-adv-x="215" 
d="M244 545q0 8 -6 8q-9 0 -17.5 -6.5t-15.5 -16t-11.5 -20t-7.5 -18.5q-6 -12 -7.5 -16t-1.5 -9q0 -4 -0.5 -12t-5.5 -29q-16 -65 -26 -119t-23 -112q-8 -45 -21 -104.5t-25 -114.5t-20.5 -94.5t-8.5 -45.5q0 -5 3 -9.5t6 -4.5t5.5 5t6 18.5t9 37t14.5 59.5q7 28 13.5 54.5
t6.5 43.5q5 8 9 21.5t7 27.5t5.5 25.5t4.5 16.5q10 51 21 102t23 102q6 16 9.5 28.5t6.5 23.5t6 24t9 31l21 63q2 8 6.5 20t4.5 20z" />
    <glyph glyph-name="braceright" unicode="}" horiz-adv-x="245" 
d="M187 367q5 1 10.5 4t11.5 1q8 6 18.5 5t21.5 -1q14 -10 13.5 -26t-3.5 -32q-14 -26 -32 -49.5t-33 -49.5q-9 -14 -15.5 -29.5t-11.5 -31.5q-7 -16 -0.5 -28t16.5 -22l-10 -9q-26 -11 -44.5 -32t-38.5 -41q-13 -13 -20.5 -30t-10.5 -35.5t-1.5 -37.5t6.5 -35
q-2 -37 -33 -62q-2 -5 -9 -8t-9 -7h5l8 5q18 5 34 18.5t27 28.5q10 9 14 21t5 24.5t0 26t0 25.5q-5 13 -2 28t8 27q17 35 48 62t64 47q3 5 1 9t-5 8t-6 7.5t-4 8.5l4 40q5 10 10.5 19t7.5 20q16 17 25 37t24 37q5 14 14.5 25.5t7.5 28.5q2 11 -5.5 20t-15.5 14q-9 3 -18 1.5
t-17 -3.5q-13 4 -22.5 -3.5t-21.5 -8.5q-5 -4 -13 -5.5t-10 -10.5z" />
    <glyph glyph-name="asciitilde" unicode="~" horiz-adv-x="304" 
d="M291 94q0 3 -3 3q-1 0 -5 -2l-6.5 -6.5l-2.5 -2.5t-3.5 -1.5t-8.5 -1.5q-3 -3 -14 -5.5t-16 -2.5q-17 0 -24 5.5t-14 12.5t-18 12.5t-35 5.5h-17q-6 0 -11.5 -1t-12.5 -4t-19 -8q-5 -4 -7 -5t-3 -2q-2 -1 -3.5 -1.5t-6.5 -2.5l-27 -20q-1 -2 -1 -5q0 -2 2 -2q3 0 9 3
q19 14 28.5 18.5t23.5 4.5q11 0 19 -5t17 -11t21 -11t31 -5q17 0 28 1t31 6q9 5 14.5 8t10.5 5.5t9.5 6.5t12.5 10q1 1 1 3z" />
    <glyph glyph-name="exclamdown" unicode="&#xa1;" horiz-adv-x="253" 
d="M274 187q-1 9 -8.5 16.5t-16.5 7.5q-12 0 -18.5 -5.5t-12.5 -19.5q-2 -6 -2.5 -8t-0.5 -4q1 -9 13 -17.5t21 -8.5q13 0 20 14t5 25zM92 -84l32 50q9 14 21 35.5t37 62.5q5 16 4 19q0 1 -3 1q-2 0 -4 -1q-14 -12 -19 -19t-9 -11q-4 -5 -11 -14t-14.5 -18.5t-14 -17.5
t-8.5 -10q-10 -13 -26.5 -36.5t-33.5 -49t-31.5 -49t-21.5 -36.5q-5 -5 -10.5 -13.5t-10.5 -17.5q-8 -15 -14.5 -27t-11.5 -24t-8.5 -26t-4.5 -32l6 -11q4 -7 7 -6q2 1 8 7l23 54q7 13 16.5 30t19.5 34.5t20.5 33.5t19.5 27z" />
    <glyph glyph-name="cent" unicode="&#xa2;" horiz-adv-x="215" 
d="M124 15q-10 0 -14.5 -1t-6.5 -1t-4 1t-2 5q0 2 1 4q4 7 5.5 10t2 4.5t1 2.5t2.5 6q9 16 18.5 31.5t19.5 30.5q4 2 8 2q8 0 8 -8q-2 -6 -3 -9.5t-1 -5.5q0 -1 2 -1t4.5 1l7.5 3q6 5 9 8t5 5.5t3 6t2 9.5q-5 7 -10 8t-11 2q-7 0 -7 3q0 4 7 9l18 22q12 9 20 20t15 23
q-1 4 -4 4q-10 -2 -20 -12t-14 -15q-14 -16 -24 -29.5t-17 -22.5q-20 -3 -34.5 -8.5t-26.5 -13t-23 -18t-23 -22.5q-11 -14 -15 -25.5t-4 -19.5q0 -3 2.5 -9t7.5 -12t13.5 -11t19.5 -6q4 -3 4 -8t-1 -7q-7 -14 -12.5 -27t-13.5 -26q-7 -14 -7 -16t2 -2q1 0 5 2l21 28l5 10
q8 12 11 17t3.5 7t1 5.5t3.5 12.5q1 2 3 3t9 6q14 3 19.5 4t8.5 1.5t7 2.5t15 7l12 2l2 3q1 0 6.5 3t11.5 6t10.5 6t4.5 5l-3 1q-2 0 -4.5 -0.5l-7.5 -1.5l-13 -4l-12 -4zM101 97q9 2 14.5 5t14.5 8l7 1q0 -1 -7 -8.5t-18 -27.5l-28 -51l-3 -4q0 1 -6 0q-7 4 -10 6.5
t-4.5 4.5t-2 5t-2.5 10q2 9 3.5 13.5t4 7.5t6 6l10.5 9z" />
    <glyph glyph-name="sterling" unicode="&#xa3;" horiz-adv-x="575" 
d="M412 -66q15 -2 19.5 -3t9.5 -1q3 0 8.5 0.5t19.5 2.5l3 2q7 1 10 1.5t4.5 1t3.5 2t8 5.5l11 4q3 0 7 4q0 2 -7 2l-8 -4l-20 -4t-21 -2q-5 0 -9 0.5t-9 1.5l-21 3.5t-17.5 3t-16.5 4.5t-19 8q-6 1 -8.5 1.5t-4 1.5t-3.5 2.5t-7 4.5q-12 5 -16.5 7.5t-13.5 4.5
q-14 7 -18.5 9.5t-6.5 4.5q-2 1 -5 1t-10 1q-4 4 -25 7q-5 3 -18.5 7t-19.5 5l-33 6l-2 3v2l26 15l24 16q8 7 13.5 12.5t10 10.5t9 11t11.5 15t13 15.5t10.5 12.5t9.5 12t11 15q3 5 4.5 7t2.5 3t3 1.5t7 3.5l152 5h18q3 0 8 1.5t10.5 3.5t9.5 4t4 4q0 6 -14 6q-7 0 -15 -0.5
t-16 -1.5q-6 -4 -15.5 -2.5t-20.5 1.5l-108 -5q-2 2 -4 3t-2 3l1 20l8 14q5 8 8 13t5 8.5t4.5 7t7.5 8.5q9 4 15 6.5t25 9.5l10 9q6 2 8.5 3t4 2t4 3t10.5 7l12 7l15 12q12 4 20 9.5t16 13.5q12 12 26.5 29t14.5 36q0 17 -10.5 22.5t-25.5 5.5q-8 0 -15.5 -2t-18.5 -5
q-22 -9 -35.5 -16t-24.5 -14.5t-22 -18t-27 -25.5q-3 -5 -4 -7l-2 -4t-3 -3.5t-7 -8.5q-8 -11 -14 -22.5t-13 -22.5l-7.5 -22.5t-6.5 -10.5t-11.5 -3.5l-22.5 -1.5q-5 2 -6.5 2.5t-3.5 0.5h-5t-13 1q-11 3 -16.5 8.5t-10.5 14.5l-2 9v12q0 5 1 8.5t2.5 7t3.5 10.5l19 19
q4 4 4 6h-1q-2 0 -4 -1l-4 -2q-18 -13 -32 -25.5t-28 -29.5q-2 -5 -3 -9t-1 -8q0 -6 2 -9l1 -13q14 -15 25.5 -19.5t24.5 -4.5q27 0 41 5t30 5q3 0 3 -6q0 -8 -3.5 -12.5t-7.5 -12.5q-5 -8 -6 -11t-2 -5q-1 -1 -2.5 -1.5t-5.5 -5.5l-32 -4l-8 -4l-25 -4q-11 -2 -20.5 -4
t-20.5 -4q-3 -3 -6.5 -8.5t-3.5 -7.5q0 -4 7 -4q23 8 38 12t37 8q6 2 11 3t8 1q7 0 7 -8q0 -2 -4 -8.5t-5 -10.5l-22 -31q-11 -15 -16 -22.5t-9.5 -13.5t-11 -12.5t-19.5 -18.5l-47 -31q-18 -3 -29.5 -6t-21 -6.5t-19 -9t-24.5 -13.5q-12 -11 -12 -18q0 -6 13 -6q4 0 8 0.5
t9 0.5q3 2 4 3t2 1q2 0 5 0.5t10 2.5q14 9 22 12.5t16 3.5t16 -1.5t21 -3.5q7 -3 11 -4.5t8 -2.5t8 -1q5 0 13 -1q12 -4 26.5 -6.5t26.5 -4.5q14 -5 23.5 -8t23.5 -3q16 -5 25.5 -8.5t17 -5.5t15 -3t19.5 -2l17 -1q4 -2 9 -2h7zM531 420q0 -8 -6 -23q-12 -17 -19 -26
t-15 -15.5t-20 -14t-33 -20.5q-7 -3 -9.5 -4t-4 -2l-4.5 -3t-10 -7l-20 -9q-9 -3 -10 -3q-2 0 -2.5 1.5t-3.5 5.5q2 9 5.5 17t5.5 17q5 8 10.5 15.5t9.5 16.5q7 9 9.5 12t4 5l3 4t5.5 8q16 15 29 24.5t36 17.5l4 1q35 -1 35 -18z" />
    <glyph glyph-name="yen" unicode="&#xa5;" horiz-adv-x="319" 
d="M55 -32q-9 0 -17.5 -0.5t-17.5 -2.5q-13 -2 -13 -8q0 -2 3 -3q7 -1 13 -1h15h25q11 0 22.5 -1t22.5 -3l-4 -13q-28 -48 -54 -95.5t-56 -94.5q-9 -8 -15.5 -17.5t-13.5 -19t-15.5 -16.5t-20.5 -8q-7 4 -8 10.5t-4 11.5q-1 2 -1 6v5q0 6 -4 7l-4 1q-12 0 -21.5 -9
t-18.5 -15q-2 -3 -4.5 -8.5t-2.5 -10.5q0 -13 14 -17q10 -10 22 -10q16 0 30.5 12t28.5 17q36 33 66.5 70.5t57.5 75.5q11 15 19.5 31.5t17 32.5t19 31t24.5 28q11 4 24 4q16 0 31 -1.5t31 -6.5q7 -6 18 -6q8 0 11 2v1q0 13 -8 13q-17 1 -34.5 6.5t-34.5 5.5h-13
q-13 0 -19 5q5 16 8.5 23.5t12.5 21.5q9 -1 14 -1t9 0.5t9 0.5h14l36 -2q15 -4 26 -4q5 0 11.5 0.5t15.5 1.5l6 6l-3 3h-6q-5 0 -14.5 2t-13.5 2q-14 0 -23 1t-16.5 1.5t-16 1.5t-22.5 1h-3q-7 1 -7 6q0 3 2 6.5t2 6.5q18 31 33 63t35 62q8 7 15 16.5t14.5 17.5t16.5 14
t21 6q4 0 7 -1q2 3 7.5 3.5t5.5 5.5v2q-9 3 -15 3q-14 0 -24.5 -8t-20.5 -16q-44 -27 -77.5 -69.5t-51.5 -87.5q-2 -4 -4.5 -7.5t-6.5 -4.5q-24 4 -37 33q2 10 -2.5 21t-6.5 27q-2 29 -4.5 52t-16.5 44q-3 5 -9 9.5t-11 5.5q-11 3 -21 0t-24 -11q-7 -4 -17.5 -9.5
t-11.5 -7.5t5 -4q3 -1 13.5 4.5t25.5 5.5q6 0 12 -17t8 -47q4 -52 17.5 -82t42.5 -38q-5 -3 -17.5 -3.5t-26.5 -0.5h-27t-19 -2q-10 -5 -10 -9t8 -4q2 0 2.5 0.5t2.5 0.5q9 1 18 1h19q18 0 36 -1t35 -3q-8 -14 -12.5 -25.5t-15.5 -22.5q-9 -2 -18.5 -2.5t-19.5 -0.5h-25z
" />
    <glyph glyph-name="florin" unicode="&#x192;" horiz-adv-x="307" 
d="M261 232q11 1 15.5 1.5t7 1.5t5.5 3.5t12 9.5q9 2 14 6.5t12 10.5q13 7 17 9.5t7.5 6l11 11t26.5 24.5q9 11 15.5 18.5t11.5 14.5t9.5 15t10.5 20q4 13 4 25q0 11 -2.5 18t-6.5 13q-9 5 -18.5 9t-19.5 4q-11 0 -21 -7q-13 -2 -19 -4q-12 -5 -12 -10q0 -3 4 -3q8 0 19 8
l17 1l23 -12q9 -18 9 -29t-5 -20.5t-11 -23.5q-11 -18 -19.5 -28.5t-18 -19t-20 -16.5t-25.5 -20l-10 -4q-9 -7 -17 -12t-16 -5t-18 7l-7 2q-8 -5 -17.5 -10t-9.5 -14q0 -4 4.5 -6t10.5 -2t14 3zM105 120q-4 -22 -13 -48t-20.5 -53t-23 -53.5t-20.5 -49.5q-3 -6 -9.5 -17
t-13 -24t-11.5 -24.5t-5 -17.5q-8 -15 -20 -36t-26 -43t-27.5 -41.5t-24.5 -31.5q-5 -6 -11 -13t-13 -13.5t-14.5 -11t-16.5 -4.5q-34 0 -49.5 22.5t-15.5 52.5q0 15 3 30q1 7 10.5 27t22.5 41t26 37t20 16q3 0 6 -5t5.5 -11.5t4 -12.5t1.5 -9q0 -7 -6 -22l-11 -30
q3 -14 9 -14t11.5 10.5t7.5 17.5q11 16 21.5 39t13.5 42q-3 14 -9 23t-16 9q-9 0 -21 -9l-7.5 -1.5t-3.5 -1t-2 -1.5l-4 -4q-17 -11 -26.5 -18t-15.5 -14t-11 -16.5t-15 -25.5l-10 -16q-14 -29 -21 -49t-7 -40q0 -15 3.5 -31.5t11 -30t20.5 -22t31 -8.5q14 0 31 9.5t33.5 23
t30.5 27.5t22 24q4 7 14 19t20 25t18 24t9 16l6 8q30 51 59.5 102t48.5 107l28 57l11 31q5 8 7.5 11.5t3 5t0.5 3.5v10l8 19q2 11 4.5 14t11.5 8q9 1 16 3t15.5 3.5t20 3t28.5 2.5q26 2 49.5 2.5t48.5 3.5q3 3 6 5.5t3 4.5t-6 4q-6 1 -12 1h-11q-9 0 -18 -0.5t-18 -0.5
q-29 -2 -57 -8t-46 -6q-5 0 -11 2q-4 3 -4 8q0 10 7 22t10 20q8 20 15.5 37t12.5 40q10 19 17.5 32t14.5 22.5t14.5 18t18.5 17.5l15 18q5 1 7 1t3.5 1t4 3t9.5 7q0 3 -1 3t-2.5 -0.5t-4.5 -0.5l-20 -14q-6 -1 -15 -7t-18 -13.5t-17.5 -15.5t-13.5 -12q-34 -32 -52.5 -69
t-38.5 -79l-16 -32q-8 -12 -10.5 -16t-4.5 -6q-3 -2 -7 -3.5t-12 -6.5q-17 -2 -27.5 -8.5t-24.5 -16.5q2 -5 1 -5l5 -2l6 4l23 12l22 3l4 -3z" />
    <glyph glyph-name="section" unicode="&#xa7;" horiz-adv-x="302" 
d="M286 356q-17 -1 -35.5 -14t-32.5 -29q-14 -15 -23.5 -36.5t-9.5 -52.5q0 -21 3.5 -33.5t8 -25t8.5 -27.5t4 -40v-12q0 -5 -2 -10q-5 -29 -12 -48.5t-17 -33.5t-23 -23t-31 -15q-4 -2 -5 -2q-6 0 -6.5 7.5t-3.5 16.5q-5 14 -7.5 30.5t-2.5 33.5v13q0 15 4.5 35.5
t12.5 40.5q6 2 10.5 12t23.5 22q14 10 19 14.5t6 7.5l-4 3q-8 0 -23.5 -10.5t-32.5 -24.5q-20 -17 -33 -37t-20 -55q-4 -16 -4 -36q0 -25 3 -38.5t6.5 -26.5t6.5 -31t3 -53q0 -6 -5 -14.5t-7 -16.5q-2 -13 -10 -25.5t-19 -23t-23.5 -19.5t-23.5 -14q-2 -2 -9.5 -4t-9.5 -2
q-13 0 -13 11q0 9 9 14q8 3 10 5.5t2 5.5q0 2 -0.5 4t-0.5 4q0 1 0.5 1.5t0.5 1.5q-2 3 -8 3q-17 0 -23.5 -7.5t-14.5 -21.5q-2 -5 -3 -7t-2 -8v-3q0 -15 22 -15q10 0 18.5 1.5t21.5 9.5q12 1 25 9t24 18q23 21 47 51t31 72q1 5 1 15q0 12 2.5 14t5.5 4q15 6 33 16t22 21
q20 17 36.5 35.5t23.5 35.5q5 12 7 17.5t2 8.5l-2 2q5 6 5.5 23t0.5 25q0 10 -1.5 20t-6.5 16q2 9 -3.5 27t-10.5 28q-2 8 -4.5 20t-2.5 20q0 40 17.5 63t34.5 24h3q7 0 7 -4t-3.5 -10t-3.5 -12q0 -4 1 -6q2 -2 4.5 -5.5t6.5 -3.5q10 2 18 10t14 16q2 3 2 9q0 5 -2 7t-4 6
q-5 6 -13 6h-20z" />
    <glyph glyph-name="currency" unicode="&#xa4;" horiz-adv-x="276" 
d="M229 -9l-31 30q5 10 9 23t4 30q0 15 -4 27.5t-9 23.5l32 28l-18 20l-29 -33q-8 9 -20 13t-26 4q-13 0 -25 -4t-20 -13l-28 33l-18 -20l32 -28q-6 -11 -10.5 -24t-4.5 -31q0 -16 4.5 -27.5t10.5 -21.5l-31 -30l17 -20l26 32q19 -16 47 -16t46 18l28 -34zM137 134
q23 0 35.5 -18.5t12.5 -43.5q0 -32 -15 -47t-33 -15q-17 0 -32 15t-15 47q0 27 12.5 44.5t34.5 17.5z" />
    <glyph glyph-name="quotesingle" unicode="'" horiz-adv-x="149" 
d="M144 212q0 -14 1.5 -19t4.5 -5q2 0 5 4.5t6 11t5 13.5t3 13l5 9l2 8q4 15 6.5 18.5t3.5 4t1.5 2.5t2.5 13q5 9 5 12t3 16q-2 2 -2.5 3.5t-2.5 1.5q-1 0 -2 2.5t-3 2.5h-1l-15 -4q-19 -5 -22 -15t-3 -26v-1q0 -8 -1 -12l-1 -25l-1 -12v-16z" />
    <glyph glyph-name="quotedblleft" unicode="&#x201c;" horiz-adv-x="311" 
d="M281 313q3 23 18 42.5t38 45.5q0 5 -2 4.5t-6 0.5q-11 -5 -19.5 -13.5t-16.5 -17.5t-19.5 -21t-21.5 -24.5t-17 -26t-7 -25.5q0 -4 1 -6q4 -4 3.5 -3.5t4.5 -1.5q19 0 31.5 11t12.5 31v4zM137 269q0 -6 2.5 -13.5t10.5 -7.5q10 0 20.5 7t15.5 17l4 19q5 23 14.5 40
t22.5 37l17 20q0 4 -5 4t-9 -2q-5 -5 -13 -11.5t-16 -13.5t-14.5 -14t-9.5 -13l-9 -10q-14 -16 -20 -28t-11 -28v-3z" />
    <glyph glyph-name="guillemotleft" unicode="&#xab;" horiz-adv-x="375" 
d="M256 62q-2 1 -1 2q0 3 7 7q6 4 14 9.5t15 7.5q3 1 8.5 2.5t13.5 3.5q6 3 10.5 4t10.5 3q7 2 16 4t25 6l18 4q6 3 6 7q1 5 -5 6t-9 2q-6 0 -15.5 -0.5t-16.5 -2.5q-20 -6 -35 -11.5t-29 -11.5t-28 -12.5t-31 -15.5l-16 -8q-2 -2 -5.5 -4t-4.5 -5q0 -1 4 -7q11 -4 17.5 -6
t11.5 -4q11 -5 19 -15t16 -19q4 -6 10 -7h1q4 -1 18 6q8 3 13 5.5t10 7.5v1q0 5 -5 8q-11 7 -17.5 11.5t-12 7.5t-11 5t-13.5 5zM251 130q0 4 -5 4l-3 1l-13 -3l-14 -5q-40 -15 -75.5 -35.5t-71.5 -40.5q-9 -5 -12 -6.5t-5 -3.5q-3 -2 -4 -3l-9 -7q0 -8 3 -8q1 -1 5 -1
q8 -2 13 -2.5t9 -1.5q5 -1 8 -1q4 0 9 -1q8 -1 27 -12q13 -12 16 -16q3 -2 4.5 -3.5t3.5 -1.5l2 -1q5 0 10 -1q12 5 22 9.5t14 9.5q-5 5 -9.5 9t-9.5 7.5t-12.5 6.5t-18.5 8q-4 2 -7 2q-10 2 -14 3q-6 1 -11 1h-7q-2 0 -3 1q-4 0 -5 4l2 4q31 16 54 28.5t50 24.5
q16 8 22.5 10t9.5 4q4 2 7.5 3.5t14.5 7.5q2 4 2 5z" />
    <glyph glyph-name="guilsinglleft" unicode="&#x2039;" horiz-adv-x="236" 
d="M145 -6q14 3 22.5 8t15.5 16q-6 6 -10 9.5t-12 6.5q-7 2 -19 7q-4 2 -7 1q-11 3 -16 3q-6 1 -11 1h-7q-1 0 -1.5 0.5t-1.5 0.5q-4 0 -4 4l3 3q32 20 65 39t69 33q6 2 11.5 4.5t16.5 9.5q2 4 2 5q1 3 -4 5l-3 1l-13 -4l-14 -6q-40 -17 -81 -40t-78 -45q-15 -9 -16 -10
q-3 -1 -4 -4l-9 -7q0 -8 4 -8q3 0 5 -1q7 -2 12 -2t10 -1h8t9 -1q5 -2 10.5 -4t16.5 -8q6 -5 8.5 -7t4.5 -4q1 -1 1.5 -2t2.5 -2l4 -1h10z" />
    <glyph glyph-name="guilsinglright" unicode="&#x203a;" horiz-adv-x="236" 
d="M143 73q-43 -18 -75 -34t-63 -39q-3 -13 6 -15q5 -1 10 1.5l9 4.5q20 15 34.5 24t27.5 16q14 7 27.5 12.5t30.5 13.5l30 8q26 4 27 9q2 5 -1.5 8t-7.5 5q-24 5 -37.5 14t-28.5 29q-8 5 -10 5q-3 1 -8 -1q-2 0 -5.5 -0.5l-10.5 -1.5q-5 -2 -9.5 -5t-6.5 -8q0 -6 2 -10
q10 -7 14 -11t9 -7t11.5 -5t18.5 -7z" />
    <glyph glyph-name="fi" unicode="&#xfb01;" horiz-adv-x="344" 
d="M397 228l-22 32h-12l-4 -1q-10 -9 -11.5 -8.5t-1.5 -6.5q2 -15 11.5 -24t24.5 -8q9 2 14 7zM-8 46l25 14l34 15l11 -4v-6l-11 -33l-9 -29l-22 -58q-12 -33 -30 -77t-38 -93.5t-39.5 -102t-35.5 -101.5v-1q0 -10 3 -10q5 0 16.5 19.5t25.5 57.5q12 26 16.5 35.5t8 16
t10 19t21.5 44.5l22 46q10 23 23.5 51.5t34.5 60.5t51 66t74 68l18 13q1 1 7.5 5.5t15 9.5t16.5 9t13 4q8 0 5 -9v-6q-11 -21 -19.5 -36.5t-12.5 -38.5l3 -3h9q17 0 29 7t26 16l25 17l11 7q5 4 15 10.5t10 10.5q0 2 -4 2t-7 -1l-13 -9l-19 -11l-14 -8l-6 -4h-6l-9 3v7l6 12
q6 22 18 40t24 38q0 7 -6 7q-14 0 -22 -1t-16 -6q-15 -10 -33 -22.5t-35 -24.5t-31 -23t-21 -17q-24 -23 -45 -40.5t-28 -17.5l-2 3q0 11 9 31t22 49q3 7 8.5 15t10.5 15.5t9 14t6 9.5l7 6q17 18 33 34t36 31q17 17 33 34t33 34l26 22l31 41q19 25 30 44t23 45l12 18l2 19
l12 37q-2 16 -5.5 22.5t-17.5 9.5q-35 -8 -67.5 -38.5t-56.5 -67.5q-26 -28 -44 -55.5t-33 -55.5t-30.5 -57.5t-36.5 -60.5l-26 -39l-17 -19l-88 -60q-5 -4 -16 -10.5t-11 -9.5l3 -1zM399 483q-5 -45 -21 -81t-37 -75l-41 -42l-9 -11q-27 -25 -51 -49t-55 -47l-6 -1l-1 7
q8 21 21.5 47.5t25.5 46.5l8 17q19 45 33 68.5t25.5 37.5t22.5 24t25 27l25 32l10 5h20z" />
    <glyph glyph-name="fl" unicode="&#xfb02;" horiz-adv-x="380" 
d="M247 7q-1 -11 5.5 -14t14.5 -6q31 6 53.5 18.5t47.5 32.5q7 6 15 12.5t8 9.5q0 2 -4 2q-7 0 -8.5 -2.5t-9.5 -7.5l-19 -11l-32 -18l-14 -6h-3q-3 0 -5.5 1.5t-3.5 8.5q5 30 18 55.5t33 48.5q38 32 75.5 62.5t69.5 66.5q23 24 45.5 48.5t45.5 49.5q14 20 30 39t16 43
q2 3 4 4.5t4 3.5q8 8 8 17q0 11 -7.5 14.5t-16.5 5.5q-15 -1 -23 -2.5t-14 -4t-12.5 -7t-17.5 -12.5q-32 -21 -63.5 -54t-61.5 -72t-57 -79.5t-49 -74.5l-38 -59l-3 -4l-42 -31l-17 -11q-15 -10 -29.5 -17t-30.5 -14q-5 -2 -13.5 -4.5t-12.5 -2.5q-17 0 -17 15q0 7 3.5 17
t8.5 21t10.5 21.5t8.5 16.5q12 18 28.5 48.5t33.5 62t32.5 59t24.5 40.5q23 32 39.5 54t31 37.5t27.5 26.5t28 20q6 2 9.5 3.5t6.5 1.5q4 0 15 -7q6 -11 6 -23q1 -18 -8 -36.5t-20 -34.5l-30 -30q-3 -4 -5.5 -7t-2.5 -6t6 -4q25 14 43 32t26 35q15 23 21 31t6 22q0 3 -0.5 6
t-1.5 7q-6 11 -7.5 16.5t-3 9t-5 5.5t-13.5 5q-6 -2 -13 -2q-6 0 -20 -4q-52 -25 -92.5 -64.5t-72 -84t-56 -88t-44.5 -75.5l-25 -39l-17 -19l-88 -60q-5 -4 -16 -10.5t-11 -9.5l3 -1l10 2l25 14l34 15l11 -4v-6l-11 -19l-9 -29l-22 -58q-45 -93 -78 -191t-65 -197v-1
q0 -10 3 -10q5 0 15.5 20.5t24.5 58.5l23 44l35 69l12 43q20 39 40 78.5t37 80.5q14 21 25 32.5t23.5 19t27.5 14.5t36 19q15 9 26.5 15t27.5 13q7 4 12.5 7.5t9.5 3.5t6 -9l-11 -33zM355 157q-2 4 -2 6q0 7 4 15t12 19l38 60l27 37l51 67q8 11 23 28t32 33t33.5 27.5
t28.5 11.5q10 0 11 -13q-2 -8 -2 -11q0 -2 -1.5 -5t-4 -10t-8.5 -24q-23 -24 -43.5 -48t-43.5 -50q-42 -46 -71.5 -72.5t-46.5 -40.5z" />
    <glyph glyph-name="endash" unicode="&#x2013;" horiz-adv-x="355" 
d="M339 85v2q-2 4 -8.5 8t-11.5 4t-6 -3q-58 -3 -117 -7t-116 -9l-22 -3l-9 -4l-15 -4q-19 -15 -19 -17q0 -1 14 -4q15 3 24 5t17.5 3t18.5 2t25 3q22 3 59 5t87 2q21 0 35.5 -1t19.5 -3l4 -2q12 5 16 8.5t4 14.5z" />
    <glyph glyph-name="dagger" unicode="&#x2020;" horiz-adv-x="317" 
d="M268 176q-16 -5 -28.5 -5.5t-17.5 -14.5q-1 -4 7 -4q6 0 12.5 1.5t8.5 1.5q26 0 40.5 -3t31.5 -3q18 0 26 3t10 21q1 8 -3.5 10t-11.5 2h-15q-7 0 -12 -2q-8 -4 -14.5 -5t-17.5 -2h-16zM270 344l-1 1q-15 -5 -32.5 -11.5t-23.5 -24.5q2 -8 0 -17q-2 -12 -5.5 -25
t-7.5 -25q-4 -8 -7.5 -19.5t-8 -23.5t-10.5 -22t-14 -15q-7 -4 -13 -4h-22t-13 0.5t-9 0.5h-10q-2 0 -7 1.5t-9 1.5t-5 -1q-9 -7 -14 -7.5t-9 -9.5q4 -14 17 -14h20q2 0 13.5 1.5t16.5 1.5q8 2 16 3.5t16 1.5t12 -6q-2 -11 -4.5 -23.5t-7.5 -23.5q-8 -18 -17.5 -46.5
t-18.5 -59t-17 -59t-15 -47.5q-5 -5 -10.5 -20.5t-11.5 -33.5t-12 -33.5t-11 -21.5q-3 -5 -5 -13q0 -5 3 -6l10 8q7 14 15.5 26.5t12.5 27.5q6 23 17.5 44.5t18.5 44.5q9 16 17 34t14.5 35.5t12 32.5t9.5 24q3 22 13 40.5t15 40.5q5 6 10.5 19.5t12.5 19.5q4 7 4 13
q1 2 0.5 4.5t0.5 5.5q0 5 4 13q8 15 15 29t12 34t11.5 39.5t15.5 37.5q0 5 -4.5 6t-4.5 6q2 5 6.5 6t5.5 6q0 3 -3 3z" />
    <glyph glyph-name="daggerdbl" unicode="&#x2021;" horiz-adv-x="341" 
d="M195 191q-8 0 -19.5 1t-19.5 2q-11 1 -18 2t-17 1q-8 0 -16.5 -0.5t-10.5 -5.5q-1 -6 5 -7.5t14 -1.5h19q17 0 33.5 -2t27.5 -2q4 0 9.5 -1t4.5 -6q-3 -15 -15.5 -38.5t-19.5 -46.5v-4q-1 -3 -4.5 -6t-5.5 -6q-3 0 -8 -2t-9 -2q-8 0 -21 -0.5t-18 -0.5h-5q-6 0 -9 0.5
t-6 1.5t-8 1.5t-14 0.5q-8 0 -18 -2t-12 -7q-1 -6 0.5 -5t3.5 -4q5 -2 8 -2h8q7 0 14 1t18 1q3 0 13 -0.5t21 -0.5q9 0 18 -1t15 1v-1q-2 -8 -6 -18t-8.5 -20t-8.5 -19.5t-7 -16.5q-18 -43 -32 -85t-34 -82q-12 -24 -22 -48.5t-21 -49.5q1 -2 4 -2h5q13 11 19 24.5t14 27.5
q2 9 8.5 20t13.5 22t12.5 20t6.5 14q1 0 0.5 0.5t0.5 0.5q14 32 28 63.5t29 63.5q1 7 5.5 19t10.5 24t12 22.5t11 16.5q2 2 5 4.5t6 2.5h3l9 -1q9 0 24 1t29.5 1.5t26 1.5t13.5 1q7 0 18 6.5t12 12.5q1 3 0.5 7.5t-8.5 4.5q-6 0 -10 -2t-11 -4q-17 -2 -26 -4.5t-26 -2.5
q-2 0 -7.5 -0.5t-12.5 -0.5t-12.5 -0.5t-7.5 -0.5q-5 0 -6.5 3.5t-4.5 5.5q6 10 10.5 24t8.5 27.5t8.5 24.5t10.5 14q5 2 15 2h26h20l6 -2t6 -1l21 4l1 -1h11q11 0 18.5 3t15.5 14q4 4 5.5 7.5t2.5 5.5q2 10 -14 10q-7 0 -21 -4.5t-26 -7.5q-11 0 -17 -2t-18 -2
q-8 0 -16.5 -2.5t-13.5 -2.5q-13 0 -12 4q0 2 4 10t9 19t11 22.5t11 19.5q10 17 18.5 32t10.5 30q1 11 -10 11q-13 0 -32 -11.5t-28 -22.5q-8 -14 -11 -34q-1 -5 -1.5 -10t-2.5 -10q-1 -4 -3.5 -13t-5.5 -19t-6 -18.5t-5 -11.5h-20z" />
    <glyph glyph-name="periodcentered" unicode="&#xb7;" horiz-adv-x="223" 
d="M145 78q0 13 -6 20.5t-21 16.5q-11 4 -12 4q-10 0 -19 -12t-9 -21q0 -14 15 -23t27 -9q10 0 17.5 7t7.5 17z" />
    <glyph glyph-name="paragraph" unicode="&#xb6;" horiz-adv-x="550" 
d="M658 587q-4 3 -9 3h-5q-23 -11 -44.5 -26t-36.5 -35q-5 -4 -9 -7.5t-8 -8.5q-8 -10 -18 -21t-27 -11q-3 0 -5 1q-5 0 -10.5 0.5t-10.5 0.5q-32 0 -62 -10t-59 -21q-39 -23 -69.5 -45.5t-53.5 -57.5q-1 -3 -3.5 -9.5t-5.5 -14t-5 -14.5t-2 -10q0 -20 11 -40q14 -14 33 -21
t38.5 -9.5t38.5 -1t34 5.5q5 2 10 3.5t10 1.5q7 -2 7 -10l-6 -10q-2 -18 -8 -39.5t-13.5 -42t-15 -38t-12.5 -27.5q-3 -8 -8 -17q-9 -15 -17 -27t-13 -30h10q23 23 36.5 48.5t21.5 54.5q7 11 15 22t13 24q0 11 2.5 21t2.5 20q5 12 10.5 23t9.5 24q0 10 6 15q8 10 14 12.5
t-2 10.5l-3.5 3.5t-1.5 3.5v2q5 4 5.5 8t0.5 8v5q0 9 6 14q5 17 12 33t16 32q7 7 16 20.5t19 27.5t21 24t23 10q14 6 36 7.5t39 3.5v-1l-18 -13q-34 -33 -56.5 -70.5t-42.5 -75.5q-2 -13 -9 -24t-9 -24q-17 -35 -32 -70t-34 -69q-9 -17 -14 -34t-13 -34q-9 -20 -32 -55
t-53.5 -73t-65.5 -71.5t-68 -50.5q-14 -7 -24.5 -13.5t-21.5 -11.5t-23 -8t-29 -3q-10 0 -20.5 -0.5t-19.5 2.5q-21 6 -30.5 17t-12.5 31q-5 9 -2.5 16.5t2.5 16.5q0 13 5.5 30t14.5 34t20 32t22 25q16 11 31 22.5t35 16.5q5 1 14 1h20t16 -8q4 -4 10.5 -8.5t15 -5t17.5 5
t19 22.5q2 5 -0.5 10.5t-4.5 10.5q-7 11 -17 13.5t-22 2.5l-33 -1q-47 -16 -86 -46.5t-65 -65.5q-16 -22 -27 -53.5t-14 -60.5q3 -25 7.5 -41t14 -25t26.5 -12.5t45 -3.5q42 0 80.5 14t70.5 34q9 9 19 15.5t19.5 12.5t19 13t16.5 16q18 14 43 44t50.5 65t46.5 68.5t32 54.5
q7 8 10.5 17.5t8.5 18.5q7 25 20.5 47.5t24.5 46.5q9 19 18 37.5t17 37.5q14 34 33 70q12 24 23.5 47.5t31.5 43.5q3 17 16.5 25t27.5 10q5 3 13.5 5.5t13.5 3.5q4 4 9 4.5t9 1t7 2t3 7.5q0 5 -1 8q-4 1 -7 1.5t-6 0.5q-6 0 -12.5 -2t-12.5 -4q-10 0 -18 -3.5t-15 -8
t-14.5 -8.5t-16.5 -4q-17 -9 -38 -8.5t-39 -4.5q-8 -2 -13 -2q-6 0 -9 3q-1 1 -1 3q0 1 0.5 2t0.5 2l2 3q12 12 23.5 25t24 25t27 21.5t32.5 15.5v7zM498 464l1 -4q0 -3 -3.5 -9.5t-8 -13t-8.5 -13t-5 -9.5q-17 -29 -30.5 -57t-27.5 -57q-3 -6 -3 -12q-2 -6 -4 -14t-11 -9
q-10 -2 -18 -2h-16q-23 0 -35 10.5t-12 18.5q-1 3 -5 14.5t-4 16.5q0 11 3.5 32t8.5 29q14 21 28.5 35.5t44.5 28.5q6 3 24.5 8.5t39.5 6.5h41z" />
    <glyph glyph-name="bullet" unicode="&#x2022;" horiz-adv-x="263" 
d="M200 117q0 16 -7.5 23.5t-26.5 7.5l-13 -5l-12 -3q-21 -8 -33 -18t-22 -29l-1 -13q0 -29 10 -40t24 -11q9 0 19 3.5t17.5 8.5t12.5 9.5t5 7.5q16 12 25 39z" />
    <glyph glyph-name="quotesinglbase" unicode="&#x201a;" horiz-adv-x="161" 
d="M105 35q0 6 -1.5 9.5t-7.5 5.5q-26 0 -35.5 -11.5t-9.5 -25.5q0 -15 8 -25q-2 -16 -7 -26.5t-11.5 -19.5t-14.5 -17.5t-16 -20.5q0 -5 2 -5h5q10 5 22 14.5t19 20.5q14 20 30.5 42t16.5 48v11z" />
    <glyph glyph-name="quotedblbase" unicode="&#x201e;" horiz-adv-x="256" 
d="M123 -14q-7 -23 -14.5 -40t-20.5 -37l-18 -20q0 -5 5 -5q3 0 5.5 1t4.5 2q9 7 13 10t5.5 4.5t3.5 4t7 9.5l10 10l4.5 4.5t2.5 4t5 8.5l8 10q14 16 21 26t12 26q1 1 1 4q0 6 -2.5 13t-10.5 7q-11 0 -21.5 -6.5t-14.5 -17.5zM41 -32q-14 -27 -25.5 -46.5t-30.5 -41.5
q0 -5 2 -4.5t6 -0.5q11 5 19.5 13.5t16.5 17.5t19 21t21 25t17 26t7 25v7l-4 3q1 0 -4 1q-20 0 -32 -10.5t-12 -30.5v-5z" />
    <glyph glyph-name="quotedblright" unicode="&#x201d;" horiz-adv-x="311" 
d="M332 400q0 6 -2.5 13.5t-10.5 7.5q-10 0 -20.5 -7t-15.5 -18l-6 -18q-6 -23 -14 -40t-21 -37l-17 -20q0 -5 5 -5q2 0 4.5 1t4.5 2q9 7 13 10l6 4.5t4 4t7 9.5l10 10t4 4.5t2 4t5 8.5l8 10q14 16 21.5 26.5t12.5 25.5v4zM195 361q-14 -28 -25 -47.5t-31 -41.5q0 -4 2 -4
t6 -1q11 5 19.5 13.5t16.5 17.5t19.5 21t21.5 25t17 26.5t7 25.5q0 2 -0.5 3t-0.5 3l-4 3q1 0 -4 1q-19 0 -31.5 -10.5t-12.5 -30.5v-4z" />
    <glyph glyph-name="guillemotright" unicode="&#xbb;" horiz-adv-x="375" 
d="M332 81q-24 5 -42.5 15.5t-34.5 29.5q-6 5 -10 6q-2 0 -3.5 -0.5t-3.5 -0.5q-5 -2 -16 -3q-5 -2 -10 -5t-6 -8q-1 -4 2 -10q8 -5 14.5 -10t14.5 -9q6 -3 14 -6t21 -7l6 -6q-17 -8 -33.5 -15t-31.5 -16q-14 -8 -27 -18t-29 -26q-3 -13 5 -15q5 -1 10.5 1.5t9.5 4.5
q18 15 31 25q7 5 12.5 9t10.5 8q10 7 21.5 12.5t28.5 13.5l29 9q26 4 27 9q1 3 -3 9q-1 0 -3 2l-2 1h-2zM137 61l-1 -2l-6 -5q-16 -7 -31 -15.5t-31 -19.5l-30 -20t-29 -20q-3 -11 3 -11h6q2 1 8 1q7 4 9.5 4.5t4.5 1.5t3 3t3 4l34 24l82 46q3 1 7.5 1.5t9.5 2.5q5 1 9 4
t5 8l-2 2q-22 11 -32 15.5t-16 8.5q-3 2 -11 8q-3 3 -7.5 7t-10.5 10q-2 0 -4.5 1t-4.5 1h-3q-2 -1 -3 -1t-3 -1q-7 0 -10 -1q-2 -1 -4 -2.5t-9 -5.5q-2 -8 3 -12t10 -6l4.5 -3t3.5 -3q5 -3 9 -4t9 -3q7 -6 10.5 -7.5t11.5 -3.5z" />
    <glyph glyph-name="ellipsis" unicode="&#x2026;" horiz-adv-x="464" 
d="M392 53q0 12 -7 21.5t-20 9.5q-11 0 -17.5 -5.5t-6.5 -19.5q0 -5 2 -12t6 -14t9 -11.5t11 -4.5q8 0 15.5 8.5t7.5 27.5zM227 39q0 11 -9.5 22t-21.5 11q-10 0 -16 -7t-6 -16q0 -6 6 -18t12 -14q6 -3 12 -3q9 0 16 6.5t7 18.5zM104 31q0 11 -11.5 17.5t-21.5 6.5
q-8 0 -13.5 -5.5t-5.5 -12.5q0 -11 7 -19.5t18 -8.5q8 0 17.5 7t9.5 15z" />
    <glyph glyph-name="perthousand" unicode="&#x2030;" horiz-adv-x="579" 
d="M192 288q-6 -2 -12 -6.5t-11.5 -10t-8.5 -10.5t-3 -8q2 -5 6 -6.5t8.5 -2t8 -2t4.5 -6.5l1 -1q-2 -8 -11 -16t-20.5 -15t-24.5 -11.5t-22 -4.5q-6 4 -7 8q-1 1 -1 3q0 8 8 16t17.5 15t17.5 12.5t8 9.5v1h-2q-2 0 -4 -0.5t-4 -0.5q-2 -1 -4.5 -1.5t-4.5 -2.5
q-11 -7 -23.5 -12.5t-22.5 -16.5q-3 -3 -8.5 -9.5t-10.5 -14t-8.5 -15.5t-3.5 -14q0 -10 13 -10q7 0 12 1q5 2 10 3t10 3q15 3 32.5 11t34 19t30 24t18.5 27q4 1 8 1h9q8 0 13.5 0.5t13.5 0.5q12 0 30 6.5t27 12.5q2 -2 3.5 -2.5t1.5 -2.5q-5 -6 -16 -16t-23 -21.5
t-23.5 -21.5t-17.5 -16q-35 -33 -70 -68t-71 -70q-12 -12 -27.5 -31t-32 -40.5t-32.5 -43.5t-31 -41q0 -1 -4.5 -8t-10 -15.5t-9.5 -15.5t-4 -8q0 -3 -3.5 -10t-3.5 -12l2 -2q8 1 13 8t12 19q1 1 5.5 7.5t10 13.5t10.5 13.5t7 8.5q10 15 19.5 26.5l19 23t20.5 23.5t25 27
q10 10 24 25t28.5 29.5l27 27t19.5 18.5q25 24 44.5 42t35.5 32.5t29.5 26t25.5 23.5q27 25 43.5 40.5t27 24.5t16 13.5t10.5 7.5q6 0 13 2.5t13.5 6.5t11 9.5t4.5 10.5q0 17 -13.5 20.5t-26.5 -6.5q-11 -10 -33 -24.5t-48 -28.5t-53.5 -24t-49.5 -10q-5 1 -8.5 6.5l-7 11
t-7 10t-8.5 4.5h-11zM248 -36q12 3 29 12t35 22.5t35 30.5t29 36q10 -3 22 -3q5 0 9 0.5t9 1.5q-5 -7 -5 -8q-8 -11 -15 -27.5t-9 -30.5q0 -4 -1 -7t-1 -6q0 -4 3 -8q6 -10 20 -10q7 0 15 3q13 5 33 20t39 33.5t33 37.5t14 34q0 8 -4 13q-5 7 -13 10t-17 3q-11 0 -26.5 -6.5
t-15.5 -18.5q0 -2 5.5 -3t7.5 -1q14 0 23.5 -5.5t9.5 -12.5q0 -8 -7 -22q-7 -8 -12 -13.5t-10 -9t-12 -7t-19 -8.5q-8 -2 -13 -2q-9 0 -15 7q-3 6 -3 16q0 11 3.5 21t11.5 13l1 1q2 1 3.5 1.5t3.5 1.5q8 2 10 7q0 2 0.5 4t0.5 4q0 1 -0.5 2t-0.5 2q-1 2 -4 2q-4 0 -15 -9
q-9 -3 -16 -3q-9 0 -16.5 4t-17.5 11l-2 4q-6 11 -16 11q-3 0 -5 -1q-11 -2 -18 -7t-7 -10q0 -6 11 -13q3 -3 3 -6q0 -1 0.5 -2t0.5 -3q0 -6 -2.5 -13t-6.5 -12q-17 -15 -27 -23.5t-33 -13.5q-3 -1 -8 -1q-11 0 -13 10v6q0 13 7 28.5t17 18.5q2 0 3.5 0.5t3.5 0.5q8 3 10 7
q2 3 3 5.5t1 5.5l-1 2q0 3 -3 3q-4 0 -11 -4.5t-13.5 -10.5t-12 -11.5l-6.5 -6.5q-10 -11 -20.5 -28t-15.5 -31q-2 -5 -3.5 -9t-1.5 -9v-5q2 -9 9 -12t15 -3h5z" />
    <glyph glyph-name="questiondown" unicode="&#xbf;" horiz-adv-x="326" 
d="M350 196q-11 9 -8.5 23.5t0.5 28.5q-2 4 -6 4h-6q-7 -5 -16 -10t-16.5 -11.5t-13 -14.5t-5.5 -18q14 -6 28.5 -13.5t30.5 -6.5q5 3 9.5 7.5t2.5 10.5zM281 102l-4 6q-12 1 -24 -3.5t-23 -10.5q-9 -5 -18.5 -10.5t-14.5 -14.5q5 -4 8.5 -1.5t7 6.5t7.5 7t10 0
q5 -16 -1.5 -30t-14.5 -27q-23 -20 -41 -44.5t-41 -43.5q-39 -43 -72.5 -87.5t-57.5 -93.5q-4 -15 -9 -29.5t-3 -31.5q3 -14 9 -27.5t21 -19.5q9 -8 18.5 -9t19.5 1.5t19.5 6.5t18.5 7q17 1 32.5 7.5t30.5 12.5q8 5 15 12t11 15q-10 -2 -18 -7t-17 -7q-24 -5 -47.5 -0.5
t-39.5 23.5q-16 22 -13 53t15 53q3 8 10 13.5t6 13.5q22 26 40.5 53t42.5 52q13 5 19 16t14 20q14 12 28.5 25t26.5 27.5t20 31t9 35.5z" />
    <glyph glyph-name="grave" unicode="`" 
d="M173 161q2 -2 6 -4q6 -9 13 -9q4 0 4 3q0 1 -0.5 1.5t-0.5 1.5l-13 19q-13 19 -21.5 35t-13.5 38q-5 7 -6 9.5t-3 3.5q-2 2 -4 3t-7 5q-4 1 -9 1q-8 0 -8 -7q0 -3 0.5 -7t0.5 -10q2 -6 2.5 -8.5t1 -4t2 -3.5l4.5 -6q2 -4 2.5 -5.5t1.5 -2t2 -2t4 -4.5q5 -9 16.5 -21.5
t19.5 -18.5z" />
    <glyph glyph-name="acute" unicode="&#xb4;" 
d="M238 266q0 2 -2 2l-8 -2q-5 -2 -6 -3l-2 -2t-2.5 -2t-7.5 -3l-13 -7l-15 -7.5t-18.5 -8.5t-19 -6.5t-15.5 -2.5q-17 -2 -17 -25q0 -2 0.5 -3.5t0.5 -3.5q7 -10 11 -10t18 6l10 5q9 4 15 8.5l14 10.5q11 7 18.5 15t15.5 17l6 5l5 3q5 4 8.5 8t3.5 6z" />
    <glyph glyph-name="circumflex" unicode="&#x2c6;" 
d="M104 155q5 1 13 5.5t12 8.5q12 11 25.5 21t25.5 20q6 3 6.5 4t7.5 6q2 2 5.5 5t7.5 3t3 -4l-1 -3q-2 -7 -6 -16t-4 -17q0 -5 4 -13q3 -3 9.5 -9t11.5 -6q3 0 3 3q2 3 3.5 14.5t1.5 24.5q0 6 1 10q4 7 3.5 7.5t1.5 11.5l3 7.5t1 6.5q0 7 -5 7q-11 0 -15 -3
q-12 -5 -23.5 -12t-22.5 -15q-8 -8 -19 -14t-22 -16q-9 -8 -11.5 -10.5t-4.5 -3.5q-2 -2 -2.5 -3.5t-4.5 -3.5q-2 -2 -7 -6t-4 -9z" />
    <glyph glyph-name="tilde" unicode="&#x2dc;" 
d="M131 206l-6 -3l-17 -14v-3l1 -2l5 2q11 11 17 13.5t15 2.5q7 0 11.5 -4.5l10 -10t12.5 -10t19 -4.5q11 0 17.5 3.5t18.5 7.5q11 8 15 10.5t13 11.5l1 2q0 2 -3 2l-2 -2l-5 -6l-7 -2q-2 -2 -8.5 -3.5t-10.5 -1.5q-10 0 -14.5 4.5t-8 10t-10 10t-21.5 4.5q-12 0 -17.5 -2.5
t-19.5 -10.5z" />
    <glyph glyph-name="macron" unicode="&#xaf;" 
d="M224 221q-14 0 -29.5 -2t-30 -5t-25 -6.5t-14.5 -6.5q-3 -6 -3 -9q0 -5 8 -5h8q17 2 45 7t51 5q5 0 9.5 -0.5t9.5 -1.5q3 2 7 4.5t4 5.5q0 10 -13.5 12t-24.5 2h-2z" />
    <glyph glyph-name="macron" unicode="&#x2c9;" 
d="M224 221q-14 0 -29.5 -2t-30 -5t-25 -6.5t-14.5 -6.5q-3 -6 -3 -9q0 -5 8 -5h8q17 2 45 7t51 5q5 0 9.5 -0.5t9.5 -1.5q3 2 7 4.5t4 5.5q0 10 -13.5 12t-24.5 2h-2z" />
    <glyph glyph-name="breve" unicode="&#x2d8;" 
d="M204 174q14 2 19 5.5t13 9.5q14 7 20 12t15 15q6 3 13.5 13t7.5 16q0 3 -3 3q-5 0 -6.5 -1.5l-4.5 -4.5q-13 -15 -21.5 -23t-14.5 -12.5t-12 -6.5t-14 -4q-22 0 -25 8.5t-5 25.5q2 6 3 8t1.5 3.5t3 3t7.5 6.5l-1 5q-1 0 -2 -0.5t-3 -0.5q-7 -5 -15.5 -12t-16 -15.5
t-12.5 -17.5t-5 -18q0 -11 3.5 -15.5t19.5 -8.5z" />
    <glyph glyph-name="dotaccent" unicode="&#x2d9;" 
d="M233 208q0 11 -11.5 18t-21.5 7q-8 0 -13.5 -5.5t-5.5 -13.5q0 -10 4.5 -15.5t16.5 -12.5q5 -2 6 -2.5t3 -0.5q8 0 15 9t7 16z" />
    <glyph glyph-name="dieresis" unicode="&#xa8;" 
d="M192 224q0 9 -6 9q-3 0 -8 -3.5t-9 -7.5t-7 -7.5l-3 -3.5q-5 -9 -7 -12t-2 -8q0 -19 8 -19q5 0 10 3.5t10 6.5q5 10 9.5 20t4.5 22zM121 209q-1 5 -3 11.5t-10 6.5q-7 0 -14 -12.5t-9 -16.5q-3 -11 -3 -17q0 -9 17 -12q7 4 11 7t5.5 6.5t2.5 9.5t3 17z" />
    <glyph glyph-name="ring" unicode="&#x2da;" 
d="M155 169q23 0 41.5 8t32.5 28q2 5 4 10.5t2 10.5q0 14 -12.5 18.5t-24.5 4.5q-10 0 -25 -5q-7 -3 -17 -9t-19.5 -13.5t-16.5 -16t-7 -16.5q0 -14 11.5 -16.5t22.5 -3.5h8zM205 225q-3 -10 -4.5 -15.5t-4 -9.5t-5.5 -7l-7 -7q-19 0 -26.5 4t-7.5 10q0 12 13 23.5t25 11.5
q5 0 10 -3t7 -7z" />
    <glyph glyph-name="cedilla" unicode="&#xb8;" 
d="M80 -52q-2 6 -3.5 8.5t-8.5 7.5q-8 8 -11.5 10.5t-3.5 7.5q0 4 1 7l7 8l-1 1h-1q-12 -4 -18.5 -5.5t-14.5 -9.5q-4 -5 -4 -9t1 -7q8 -8 16.5 -13t8.5 -13q0 -5 -5 -11l-13.5 -6t-7.5 -2q-7 0 -10 5.5t-10 5.5q-11 0 -16 -10q9 -12 26 -12q13 0 19 5q15 4 26.5 12.5
t22.5 19.5z" />
    <glyph glyph-name="hungarumlaut" unicode="&#x2dd;" 
d="M197 215q0 -4 1 -6l4.5 -6t5.5 -2q3 0 16 5q26 11 44 26t40 29q3 2 7.5 5.5t4.5 5.5q0 1 -2 1q-4 0 -8 -1q-15 -5 -29.5 -13t-30.5 -12q-8 -2 -17 -3t-17 -3.5t-13.5 -8t-5.5 -17.5zM139 241q-3 1 -5 1q-11 0 -16.5 -7.5t-5.5 -18.5q0 -5 2.5 -10.5t8.5 -5.5q4 0 11.5 4
t15 9t14.5 10.5t10 8.5q9 7 15 14.5t13 15.5q6 5 5.5 4.5t3.5 3.5l6.5 6.5t4.5 6.5l-2 1q-3 0 -8 -4l-5 -2.5t-1.5 -1.5t-2.5 -2t-7 -3l-11 -7q-9 -7 -14.5 -10t-15.5 -7z" />
    <glyph glyph-name="ogonek" unicode="&#x2db;" 
d="M101 -69q-6 0 -14.5 1t-16.5 4t-14 8t-6 13q0 10 9 21l14 4v3q-18 0 -33.5 -8t-28.5 -21l-4 -11q5 -19 15 -20.5t26 -4.5q17 -1 22 -1h9h6t12 2q6 -1 8.5 -1.5t4.5 -0.5t4.5 1t10.5 4l14 2q5 4 5 6q0 3 -6 3t-11 -1t-12 -3h-14z" />
    <glyph glyph-name="caron" unicode="&#x2c7;" 
d="M190 200q-7 0 -7 4q0 2 0.5 4t1.5 5l15 41q0 19 -13 19q-11 0 -22 -10t-13 -18l-2 -17q-5 -6 -5.5 -12t-2.5 -17q-6 -14 -6 -23t7 -9q9 0 21 8q19 7 30 16t23 17l6 6q7 2 15.5 8.5t14.5 12.5q6 1 7 1q2 0 3.5 1.5t5 4.5t11.5 9q5 2 12 4.5t7 11.5h-5q-8 1 -10.5 -2
t-10.5 -8t-11 -6t-5 -1.5t-5.5 -2.5t-13.5 -8q-6 -4 -11 -7.5t-11 -8.5q-7 -3 -6.5 -6t-7.5 -8z" />
    <glyph glyph-name="emdash" unicode="&#x2014;" horiz-adv-x="600" 
d="M582 91v2q-3 6 -23 9t-50 3q-27 0 -64.5 -1.5t-79 -4t-84 -6t-78.5 -6t-62.5 -5t-36.5 -3.5q-17 -2 -29.5 -4.5t-29.5 -7.5q-25 -19 -25 -21t19 -5q19 4 31 6t22.5 3.5t23 2.5t32.5 4q14 2 54.5 5.5t89.5 6.5t98 5.5t81 2.5q27 0 51 -4.5t29 -7.5l5 -2q16 5 21 9.5
t5 18.5z" />
    <glyph glyph-name="AE" unicode="&#xc6;" horiz-adv-x="869" 
d="M141 106q4 17 6 23.5t4 11t7 11t16 24.5q2 20 14.5 34t23.5 31q15 24 18.5 33t7.5 12q11 7 18.5 15t14.5 24q2 2 4.5 5t7.5 8t13 14.5t20 25.5l22 20q15 14 23.5 21.5t13.5 12.5t8.5 7.5t9.5 6.5t16 10.5t28 18.5q17 7 32 15t32 16q26 2 38.5 -10.5t3.5 -42.5q0 -8 4 -11
t9 0q2 4 5 7q0 4 3 19q-3 15 -5.5 25t-7.5 16t-14 10t-26 8q-21 -2 -32.5 -4.5t-20.5 -6t-19 -9.5t-28 -16q-46 -21 -79 -50t-73 -65q-42 -50 -79 -100t-69 -107q-12 -22 -19.5 -39.5t-12 -34t-7.5 -34.5l-7 -42q4 -19 11 -23q6 -5 28 -5q33 5 69 27.5t68 51.5q11 8 15 11
t7 5.5t8.5 7t19.5 15.5q12 7 17 9.5t8 4.5q5 3 10.5 9t25.5 22q18 15 29.5 24.5t19 15.5t12 10t8.5 8q3 3 6.5 7.5t8.5 10.5l12.5 15t19.5 22l34 40l30 39l10 14q5 1 12 1q6 0 6 -3q0 -1 -4 -9l-35 -44q-22 -28 -44 -58.5t-40 -63t-29 -67.5t-11 -72q0 -29 19 -39.5
t45 -10.5q23 0 46 4.5t36 9.5l24 9q12 -9 27.5 -15t32.5 -11l19 -6l30 -2q19 1 41.5 5t45 10t43 14t34.5 17l10 7q5 3 13 9t8 9q0 2 -4 2q-2 0 -4 -1l-12 -8l-17 -10q-24 -14 -52 -20t-58 -12l-47 2q-10 2 -21.5 8t-21 15.5t-17 23.5t-9.5 32q9 42 42 72t75 44l16.5 5.5
l7.5 2.5t6.5 3t12.5 8l8 6q5 9 7 12.5t4 5.5q1 2 6 4t5 5q9 24 10 30.5t1 7.5t1 3.5t9 19.5q1 7 2 10t2 5t3 5t7 12q1 7 1.5 10t1.5 4.5t2 3.5l4 8l12 13q10 14 13.5 20t6.5 9q4 4 10.5 9t25.5 19q24 14 49 23.5t48 9.5q7 0 12.5 0.5t10.5 0.5q14 0 25.5 -4t22.5 -18
q-1 -11 -5 -22t-9 -19q-11 -13 -17 -25t-14 -20q-20 -21 -27.5 -30.5t-8.5 -12.5q0 -1 2 -1l13 4q5 7 6.5 9t2.5 4q1 1 2.5 2t6.5 5l21 24q14 16 28 40t14 45q0 11 -5.5 19.5t-19.5 13.5l-62 -2l-14 -2l-61 -22q-29 -15 -53.5 -29t-45 -31t-37.5 -37.5t-31 -47.5
q-9 -21 -16.5 -48t-10.5 -39q-4 -7 -8.5 -11.5t-9.5 -7.5l-31 -13q-25 -11 -47.5 -21.5t-41.5 -24.5t-34 -32.5t-25 -44.5q-2 -18 3.5 -31.5t16.5 -22.5v-1l-20 -3q-20 -5 -37 -0.5t-30 7.5l-21 20q-7 17 -7.5 34t7.5 35l19 49q9 25 21.5 44t26.5 36t28 34.5t28 38.5l27 28
q17 8 22.5 13.5t6.5 26.5l-5 7l-4 1l-25 -8q-23 0 -34 1.5t-23 10.5q-17 13 -30 6t-16 -18q-2 -8 2.5 -15t18.5 -7l-1 -11l-1 -6q-12 -18 -15.5 -22.5t-7 -7.5t-11 -11t-26.5 -32q-19 -18 -29.5 -27.5t-16.5 -15.5l-10 -10t-10.5 -11t-17.5 -18t-30 -31q-38 -29 -73.5 -56
t-76.5 -51l-33 -12q-11 -3 -16 -3q-6 0 -7.5 2.5t-1.5 7.5q0 4 0.5 9t0.5 11z" />
    <glyph glyph-name="ordfeminine" unicode="&#xaa;" horiz-adv-x="267" 
d="M262 279q0 4 -1.5 5.5t-5.5 4.5h-4q-8 0 -10.5 1t-4.5 8q-4 13 -7 16t-16 8l-17 -4q-16 -11 -16 -18t7.5 -14.5t12.5 -9.5l-1 -12l-5 -14l-15 -14q-9 -11 -15.5 -11.5t-20.5 -2.5l-2 3v12l6 18l10 21q12 7 12 15v1q0 5 -4 7.5t-9 2.5q-3 0 -8.5 -6.5t-12 -16.5t-13 -20.5
t-10.5 -17.5q-2 -8 -6.5 -16.5t-4.5 -16.5v-3q0 -14 5 -15t16 -2l19 9q12 7 20 11t14 8t11.5 9.5t13.5 16.5q8 10 11 13t5 3l1 -1q0 -3 -3 -6l-5 -12q-5 -14 -8.5 -20.5t-4.5 -14.5q0 -6 6 -16l9 -4q6 1 15 6t17 10.5t13.5 11.5t5.5 11q0 2 -3 2h-2q-7 -1 -8 -4.5t-9 -3.5
q-3 0 -3 5v2q0 2 3.5 8t5.5 11l13 23q3 7 3 12v1zM144 126q7 0 23 -2t28 -4q4 2 6 9q0 5 -7 10q-13 2 -28 3.5t-20 1.5t-11 -0.5t-17 -2.5q-4 0 -13.5 -1.5t-20 -3.5t-19 -5.5t-8.5 -9.5q0 -3 3 -3.5t5 -0.5q5 0 8 1q30 2 43.5 5t27.5 3z" />
    <glyph glyph-name="Oslash" unicode="&#xd8;" horiz-adv-x="454" 
d="M509 252q-3 -9 -9 -25t-15 -32q-12 -17 -21.5 -40.5t-19.5 -37.5q-11 -14 -33.5 -34.5t-45.5 -42.5q-7 -2 -13 -8t-14.5 -12.5t-20.5 -13.5t-30 -11q-6 -3 -17 -5.5t-26 -2.5q-13 0 -21.5 12.5t-13.5 23.5q-2 11 -3.5 23.5t-1.5 26.5t2 28.5t5 26.5l5 9q9 5 18 9t19 9
l60 28q41 19 81.5 37.5t82.5 36.5q12 5 21 8t16 6zM656 327q1 5 -2 7h-2q-10 1 -17 1q-6 0 -12 -0.5t-13 -2.5t-17 -6q-11 -3 -14.5 -4t-6.5 -2.5t-9.5 -4.5t-23.5 -9v5q0 13 -6 33q-4 12 -8 12q-3 0 -5 -7t-3 -12l4 -9q0 -18 -4 -30q-14 -6 -21 -8.5t-12 -5t-11 -6
t-19 -9.5q-60 -30 -114.5 -56t-113.5 -52q0 2 3 10q22 44 43 89q9 10 12 14t5 7t4.5 9t9.5 20l15 13q18 0 22.5 -2.5t8.5 -2.5q3 0 6 1t11 3q21 4 29.5 4.5t12.5 1t6.5 2t11.5 6.5q10 1 14.5 1.5t7 1.5t5.5 3t11 7q10 3 14 3.5t7 2t8 4.5t19 9q8 7 10.5 9t4.5 4t15 7
q14 14 24.5 27.5t10.5 26.5q0 22 -31 36h-17q-27 0 -43.5 -2.5t-30.5 -8t-29.5 -15t-39.5 -23.5q-24 -18 -33 -24.5t-15 -11t-14 -12.5t-30 -28h-12q-20 8 -32 20t-12 26q0 4 -1 10.5t0 12.5q10 24 29.5 35.5t38.5 18.5q1 1 5 1h6q2 0 3.5 -1t2.5 -1q3 0 8 -1q16 0 16 9
q0 5 -11.5 6.5t-19.5 1.5t-19 -3t-23 -8.5t-22.5 -12t-16.5 -12.5q-7 -7 -16.5 -13.5t-9.5 -15.5q-8 -8 -9.5 -17t-1.5 -20t10.5 -25.5t21.5 -16.5q12 -5 19.5 -7t12 -3.5t7 -4.5t3.5 -9q-10 -14 -16 -23.5t-10 -16t-6.5 -12t-5.5 -11.5q-5 -9 -15.5 -23t-29.5 -48
q-5 -14 -12 -28t-10 -26q-41 -17 -64 -27.5t-35 -15.5q-4 -2 -8 -5t-4 -6q0 -4 5 -5q8 -2 12 -2l22 9l12 2l52 25q-4 -10 -5 -19t-3 -20l3 -56l7 -14q5 -23 25.5 -31.5t41.5 -8.5q12 0 20 1.5t16 4.5t17.5 7.5t23.5 10.5q21 10 35 18.5t25.5 18.5t23 21t27.5 26q7 7 10 9
t5 4.5t5.5 6.5t12.5 14q10 13 12.5 18t3 8t3 7.5t11.5 16.5q9 16 13 23t7 12t6.5 11.5t10.5 20.5l12 24q6 21 9 36q5 3 13 6t18 7l17 4zM556 435q0 -14 -13 -28q-19 -17 -34.5 -27t-31 -16.5t-34.5 -11.5t-46 -12l-13.5 -1.5t-7.5 -0.5q-5 0 -13 -1t-28 2q-3 1 -3 5
q0 5 9 12.5t10 8.5q6 6 8.5 7.5t4.5 3t5 5t12 11.5q26 17 46.5 34t51.5 26q17 5 24 7t12 2q41 0 41 -26z" />
    <glyph glyph-name="OE" unicode="&#x152;" horiz-adv-x="867" 
d="M565 349q0 -8 -1.5 -16.5t-9.5 -25.5l-34 -52q-6 -7 -8.5 -9.5t-3.5 -4.5l-2.5 -5t-5.5 -12q-9 -12 -13 -16t-6 -6.5t-4 -6t-7 -13.5q-8 -7 -10.5 -9.5t-5 -5.5t-6 -8.5t-12.5 -18.5q-6 -6 -9 -8.5t-4 -4l-2 -3t-4 -7.5l-16 -16q-17 -21 -34.5 -36t-36.5 -31
q-20 -14 -31.5 -19t-21.5 -5q-5 0 -10.5 1.5t-13.5 3.5l-16 14q-11 19 -14.5 38t-5.5 40l4 13l3 43q3 7 4 9.5t2 4.5t1 4q0 3 2 11l4 8t1.5 3.5t0.5 3.5t1 7q3 7 4 9.5t2 4.5t2 5t3 11q8 17 16.5 30.5t16.5 30.5q13 18 24 32.5t22 27.5t23 26t27 29q6 4 8.5 5.5t4 3l4 4
l8.5 8.5l12 8l-1 5q-7 -4 -9.5 -4.5t-4.5 -0.5h-1q-2 0 -8.5 -4t-33.5 -23q-20 -20 -42 -43.5t-43.5 -49.5t-41 -54t-34.5 -56l-20 -36q-4 -8 -5 -10.5t-1 -5.5q0 -2 -0.5 -7t-3.5 -18q-2 -4 -3 -5t-1 -3v-5q0 -3 -1 -11l-8 -17q-2 -23 -4 -33t-2 -22q0 -3 1 -11.5t3.5 -19
t7 -21t12.5 -16.5q17 -10 36 -10q17 0 29 9l13 3l15 7l10 2l34 16l9 6l10 4l65 56l41 46l13 13l29 34l20 28l36 47q14 21 27 41.5t25 42.5l12 22l9 1q9 -1 18 -1h17q43 0 84 10q11 3 14 5t5 2t7 -4q0 -12 -0.5 -18t-2.5 -11t-5 -10.5t-9 -14.5q-17 -17 -21 -22.5t-7 -7.5
q-1 -2 -11 -5l-70 -63q-12 -14 -17 -19t-7 -7.5t-3.5 -6t-7.5 -12.5q-9 -11 -12 -15.5l-5 -7.5t-3.5 -8t-7.5 -17q-4 -12 -6 -17.5t-3.5 -10.5t-2.5 -11.5t-3 -18.5q1 -14 2 -22.5t3.5 -14.5t7 -12t13.5 -15q20 -11 36.5 -15t33.5 -4q12 0 24 1.5t26 4.5l18 4q20 5 38 11
t35 15l9 1l12 9h3l16 11q12 8 12 11l-1 1q-2 0 -7 -2l-10 -4l-13 -8l-30 -10q-25 -9 -45 -13t-32 -4h-4l-35 3q-6 5 -8 6l-4 2q-1 1 -9 5l-11 9q-9 12 -14 20t-7 16t-3 17.5t-2 23.5q3 31 9.5 43.5t15.5 24.5q8 13 11 17t6 6t8 6t16 16q26 24 53 46.5t53 46.5q8 10 12 16.5
t6 12.5t3 13.5t4 19.5l7 9l13 8q14 9 19 12t8 4q2 1 6 0.5t14 1.5q14 10 14 13q0 2 -6 2q-4 0 -7.5 -0.5t-5.5 -0.5q-6 -5 -8 -7.5t-4 -3t-6 -0.5h-12l-21 -10q-8 1 -8 2q0 2 0.5 3.5t0.5 4.5q6 13 9.5 21t6.5 13t5.5 9.5t7.5 10.5q17 15 27 25.5t17.5 16.5t13.5 9t14 4
l22 11l18 7l17 2l7 2l12 -1l6 -5v-13l-7 -13l-24 -33q-8 -5 -10.5 -6.5t-4 -3t-4 -4.5t-9.5 -10l-38 -24v-4q0 -4 3 -4q5 0 12.5 5.5t11.5 7.5l13 10q11 6 15 8.5t6.5 4.5t6 6t13.5 14q17 11 27 20.5t21 26.5v7q0 24 -30 24q-5 0 -10 -0.5t-10 -1.5l-12 -6l-13 -2
q-25 -10 -50 -18.5t-46 -25.5l-6 -1q-44 -24 -71 -66l-7 -16q-3 -12 -3.5 -17.5t-1 -7.5t-2 -4t-5.5 -6q-16 -6 -29 -8t-27 -2q-15 0 -30.5 2t-32.5 4q-10 6 -14.5 8.5t-4.5 6.5q0 6 4 14.5t9.5 23t9.5 37t4 55.5v13q0 9 -0.5 19t-3.5 18.5t-8.5 14t-14.5 5.5q-2 0 -8 -2
q-23 -10 -35.5 -15t-20.5 -11.5t-15.5 -17t-19.5 -29.5q-15 -33 -15 -59q0 -11 2.5 -23t7.5 -26l17 -19l40 -31v-9zM625 516q-1 -16 -1.5 -31t-3.5 -29.5t-9.5 -27t-18.5 -23.5q-4 -2 -6 -2q-8 0 -12 9.5t-11 18.5q-11 20 -15.5 32t-4.5 23q0 8 2 17.5t6 23.5l5 10l14 24
q14 13 24 13t23 -22z" />
    <glyph glyph-name="ordmasculine" unicode="&#xba;" horiz-adv-x="264" 
d="M252 319q-11 -3 -18 -7.5t-7 -10.5q0 -7 11 -12q3 -3 3 -7q0 -1 0.5 -2t0.5 -2q0 -7 -2.5 -14t-6.5 -12q-17 -15 -27 -23.5t-33 -13.5q-3 -1 -8 -1q-10 0 -13 10v7q0 12 7 28t17 18q2 1 3 1q2 0 4 1q7 1 10 7q4 6 4 10q0 2 -1 2q0 3 -3 3q-4 0 -11 -4.5t-13.5 -10.5
t-12 -11.5l-6.5 -6.5q-10 -11 -20.5 -27.5t-15.5 -31.5q-2 -5 -3.5 -9t-1.5 -9v-4q2 -10 9 -13t15 -3h5q14 4 34 15.5t40.5 28t38 37t27.5 42.5l-5 15q-6 10 -16 10h-5zM202 113q0 5 -6 10q-14 2 -21 2.5t-13 0.5q-5 0 -11.5 -0.5t-17.5 -2.5q-17 -2 -23 -2.5t-10 -1.5
t-9 -2.5t-18 -5.5q-3 -5 -3 -8q0 -4 8 -4q2 0 4 0.5t4 0.5q16 1 27 2.5t19.5 3t14.5 2t13 0.5q14 0 37 -4q5 3 5 9z" />
    <glyph glyph-name="ae" unicode="&#xe6;" horiz-adv-x="357" 
d="M144 44l1 -2q0 -2 -1 -4q-5 -11 -5.5 -13t-0.5 -7v-4q0 -7 5 -16l11 -4q2 1 5 1q2 0 3.5 -1t3.5 -1t4.5 2t10.5 4q14 2 23 6q6 -15 25 -15q7 0 19 3t26.5 8t30 13t28.5 18l12 9q9 5 16 11.5t7 8.5q0 1 -2 1t-6.5 -2t-13.5 -8q-35 -22 -54 -30t-25 -8q-17 0 -17 4
q0 2 4 5.5t10 8.5q8 4 17.5 12t18 18.5t14.5 23.5t6 27l-4 5q-8 2 -12 2q-10 0 -24 -9.5t-27 -23.5q-3 -3 -9.5 -10.5t-13.5 -16t-12.5 -17.5t-8.5 -16q-2 -7 -8 -8.5t-8 -1.5t-4 0.5t-4 0.5q-5 0 -7 6.5t-2 7.5q0 9 7 20.5t9 16.5q2 4 3 9t1 7q0 5 -2 6.5l-6 4.5
q-8 0 -12 1t-6 1q-2 5 -6.5 11.5t-15.5 6.5q-6 0 -14.5 -3t-8.5 -11q0 -9 4.5 -12.5t10 -5.5t10 -3.5t4.5 -5.5t-4.5 -9.5t-10 -11t-10.5 -10t-7 -6.5q-11 -10 -20 -13t-17 -3q-8 5 -8 6t-1 12q3 13 10.5 22.5t15 15.5t13.5 10t6 8q0 6 -4 8.5t-9 2.5q-22 0 -44 -10.5
t-43 -23.5q-9 -6 -21.5 -13.5t-12.5 -11.5q0 -2 6 -2l22 11l19 9l11 5q2 -1 5 -1t3 -3q0 -14 -8.5 -28t-8.5 -28q0 -16 5 -17.5t16 -2.5l20 9q13 7 21 12.5t14.5 9.5t12.5 8.5l14 10.5zM244 35l3 14q1 3 7 12.5t14.5 19t18 17t17.5 7.5q5 0 5 -3t-2.5 -8t-2.5 -10
q-1 -3 -7.5 -10.5t-15.5 -15.5t-18.5 -15t-15.5 -10h-1z" />
    <glyph glyph-name="dotlessi" unicode="&#x131;" horiz-adv-x="157" 
d="M127 136q-16 -5 -30.5 -15t-28.5 -19l-14 -8l-33 -20l-30 -21l-2 -7h7l19 11l15 10l17 8l12 4l13 -3v-6q-11 -21 -19 -36.5t-13 -38.5l3 -3h9q17 0 29.5 7t26.5 16l24 17l11 7q5 4 15 10.5t10 10.5q0 2 -4 2t-7 -1l-12 -9l-20 -11l-14 -8l-6 -4h-6l-9 3v7l6 12
q6 22 18 40t24 38q0 7 -6 7h-5z" />
    <glyph glyph-name="oslash" unicode="&#xf8;" horiz-adv-x="184" 
d="M102 99l-11 3q-29 -4 -52 -18t-46 -31q-2 -4 -2 -5q0 -2 2 -2q3 0 10.5 5t13.5 8q10 4 12.5 5.5t4.5 1.5q4 0 8 -2l-2 -7q-5 -6 -7 -8.5t-2.5 -4t-1 -4t-2.5 -8.5q-5 -10 -5 -18q0 -3 -8 -13t-24 -24q-2 -4 -3.5 -7.5t-1.5 -7.5l1 -1q2 0 3.5 1t4.5 2q6 6 18 14t25 18
l12 -6q10 -1 14 -1.5t6 -0.5t3.5 1.5l6.5 6.5l9 2q0 -1 7 6q7 3 10 4t4.5 2.5t4.5 5.5t11 12q14 11 22 17t13 17q8 15 8 27q0 3 -1 6t2 5q24 16 31 16q3 0 5.5 4t2.5 7q0 10 -10 10q-2 0 -6 -1t-4 -4q-7 -5 -17 -14t-17 -3q-5 3 -12 3q-8 0 -17 -4.5t-15 -12.5zM59 20
q11 9 20.5 16t15.5 12q4 4 17.5 14.5t20.5 15.5q2 1 5 1t3 -3q0 -4 -3 -9.5t-5 -8.5l-8 -12q-15 -15 -21.5 -21t-16.5 -6q-3 0 -8 -1t-10 -1q-2 0 -4.5 0.5t-4.5 0.5zM54 31l-1 2q2 10 5 17t7.5 12.5t9.5 10.5l12 12q5 5 8.5 6t5.5 1l6 -2q6 4 8 0l3 -6q-8 -7 -19.5 -18.5
t-19.5 -17.5l-11 -9l-12 -6z" />
    <glyph glyph-name="oe" unicode="&#x153;" horiz-adv-x="292" 
d="M298 65l-13 -9q-11 -7 -18 -11t-13 -6.5t-13 -5t-17 -5.5q-7 -1 -13.5 -2t-11.5 -1q-12 0 -19 5q-3 4 -3 9q0 7 13 14l12 3q23 6 35.5 16t24.5 30l5 10t2 7q0 4 -6 12q-8 2 -10 2q-7 0 -12.5 -2.5t-12.5 -5.5l-5 -8v-2l8 2l8 -4q3 -8 3 -11q0 -6 -3 -10.5t-8 -11.5
q-10 -5 -16.5 -9.5t-16.5 -4.5q-2 0 -3 0.5t-3 0.5q0 1 -0.5 1.5t-0.5 2.5q0 7 7 15t15 16l4 7q0 2 0.5 2.5t0.5 1.5t-1 1q1 0 -5 -2l-6 -5q-7 -3 -10 -4l-4.5 -1.5t-3.5 -2t-8 -4.5q-5 -3 -10.5 -12.5t-7.5 -9.5q-5 0 -4 13t-2 21q-11 11 -19 11q-6 0 -18 -6
q-5 -8 -5.5 -13t-1.5 -14q4 -13 6.5 -14t14.5 -7q1 -3 1 -7q0 -10 -9 -17t-17 -12q-8 -3 -14.5 -5t-11.5 -2t-9.5 3t-6.5 12q3 9 5 14t3.5 9t4 8t7.5 11q7 9 8 9q1 1 2.5 2t6.5 5q-1 12 -9 12q-4 0 -8 -1t-9 -2q-16 -7 -25.5 -11.5t-17.5 -9t-16 -10t-21 -14.5l-2 -8h5
l22 12q5 2 11 5t10 3q3 0 3 -3q0 -4 -1 -6q-5 -6 -7 -8.5t-2.5 -4t-1 -4t-2.5 -8.5q-6 -12 -6 -17q0 -4 9 -17q9 -4 16 -7t14 -3q12 0 24 7t21.5 15.5t15.5 15.5t7 7q2 0 3 -1q1 -2 -0.5 -6.5t-1.5 -6.5q0 -8 2.5 -9t6.5 -8l15 -7.5t10 -2.5q3 0 7 0.5t10 1.5l22 6
q20 8 33.5 13.5t32.5 18.5l11 8q5 4 14 10t9 9q0 2 -5 2h-4z" />
    <glyph glyph-name="germandbls" unicode="&#xdf;" horiz-adv-x="341" 
d="M48 51q-4 -12 -5 -17t-2 -7.5t-3 -5.5t-7 -11q-12 -26 -19 -41t-11.5 -23.5t-6.5 -13l-4 -9t-4.5 -12l-7.5 -22.5q-15 -27 -24 -52.5t-21 -56.5q-6 -4 -6 -9v-4q0 -2 -2.5 -10.5t-6 -18.5l-7 -20t-5.5 -16l-8 -12t-3 -5.5t-1.5 -6t-3.5 -13.5q-6 -9 -8.5 -12t-4 -6
t-4.5 -8.5t-10 -20.5q-5 -23 -5 -29q0 -4 2 -4q4 0 16 16q5 11 11 22.5t10 24.5q11 13 16 17.5t7 7.5t2 8q0 4 2 16q6 9 9 12.5t4 5.5t2 5l4 12q12 21 17.5 29.5t8 13t4 9.5t6.5 20q9 16 13 22t6.5 9.5t5 9.5t8.5 21l21 50q8 19 12 26t6 11l4 8t7 18l23 43q7 15 10 20.5t4 9
t3 7t8 13.5q11 21 16 28.5t7 12t4.5 10.5t9.5 22q5 13 7.5 18l4 8l3.5 7l8 16q10 21 15.5 32.5t8.5 18.5t5.5 11.5t5.5 11.5t9 18.5t17 31.5q10 20 13.5 27.5t6.5 12.5t8 12.5t18 27.5q7 11 9.5 15.5t5.5 7.5q3 5 10 11.5t27 29.5q7 6 11 10t7 6.5t7 4.5t13 4
q15 -8 17 -11.5t8 -16.5l-1 -15q-6 -21 -14 -36.5t-19.5 -29.5t-26.5 -28.5t-35 -32.5q-13 -21 -19 -29t-8 -12.5t-3 -10.5t-3 -22q2 -11 2.5 -15t2 -6.5t4.5 -7t11 -15.5q2 -17 3.5 -25.5t1.5 -15.5q0 -8 -1.5 -15t-3.5 -20q-11 -23 -16 -33.5t-10 -18t-12.5 -16
t-22.5 -27.5q-13 -16 -23.5 -17.5t-29.5 -3.5q-20 -5 -28 -6t-12 -2t-8 -3t-15 -9q-7 -7 -11 -10.5t-6.5 -7.5t-4 -8.5t-2.5 -12.5q0 -21 9.5 -26.5t32.5 -5.5q19 0 38 15t32 26q8 8 15 14.5t15 14.5l12 10l37 18l17 8.5t8.5 3.5t8 3.5t16.5 8.5q5 2 16 10t11 11q0 1 -3 1
q-4 0 -9 -2l-22 -12l-27 -12q-20 -9 -23 -9l-1 1q2 2 3.5 5t4.5 5l21 32q21 24 33 54t12 62q0 16 -5 31t-16 43l-6 32q5 20 21.5 39.5t39.5 39.5q11 16 18 26t11.5 19.5t8 20.5t7.5 28q-3 11 -5 18t-6 11.5t-10 6.5t-17 3l-27 -8q-30 -18 -47.5 -29.5t-30 -22t-25 -25
t-33.5 -38.5q-14 -20 -26.5 -40t-24.5 -40l-23 -49q-12 -25 -17.5 -34.5t-8.5 -15.5t-6.5 -14t-13.5 -30l-20 -46q-5 -8 -7.5 -11t-3.5 -4.5t-1.5 -3t-0.5 -6.5zM144 -11l32 2q5 -3 5 -6q0 -4 -4 -9t-9 -10l-13 -17l-13 -5q-6 -4 -8.5 -6t-4 -2.5t-4.5 -0.5h-9
q-14 2 -18 6.5t-4 19.5q0 4 2.5 5.5t12.5 10.5z" />
    <glyph glyph-name="degree" unicode="&#xb0;" horiz-adv-x="164" 
d="M113 194q13 0 30 3q17 7 26 13t18 20q6 13 6 21q0 15 -13 17t-23 3q-16 -5 -25.5 -8t-16.5 -7t-14.5 -9.5t-20.5 -14.5q-5 -7 -7 -9t-2 -9q0 -14 11.5 -17t23.5 -3h7zM124 244q6 6 14.5 9t13.5 4q8 -2 10 -3.5t2 -5.5q0 -16 -8 -26.5t-25 -10.5q-8 8 -8 10t0.5 5t0.5 10
v8z" />
    <glyph glyph-name="oacute" unicode="&#xf3;" horiz-adv-x="192" 
d="M159 62q9 16 9 27q0 14 -14 26q-5 3 -12 3q-8 0 -17.5 -4.5t-14.5 -12.5l-8 -2l-11 3q-29 -4 -52 -18t-46 -31q-2 -2 -2 -5l1 -2q4 0 11.5 5t13.5 8q10 4 12.5 5.5t4.5 1.5q4 0 8 -2l-2 -7q-5 -6 -7 -8.5t-2.5 -4t-1 -4t-2.5 -8.5q-5 -10 -5 -18q0 -10 7.5 -14.5
t19.5 -9.5l13.5 -1.5t6.5 -0.5t3.5 1.5l6.5 6.5l9 2q0 -1 6 6q8 3 11 4t4.5 2.5t4.5 5.5t11 12l15 11q8 -1 11.5 -2t7.5 -1q5 0 23 7q9 5 17 12t8 9q0 1 -2 1q-6 0 -16 -5l-23 -4zM61 32q2 10 5 17t6.5 12.5t8.5 10.5l12 12q5 5 5.5 6.5t2.5 1.5l6 -2q3 -8 3 -12
q0 -3 1 -5.5t4 -5.5t11 -10l-1 -11q-15 -15 -21.5 -21t-17.5 -6q-7 0 -22 3zM238 246q0 2 -2 2l-8 -2q-5 -2 -6 -3l-2 -2t-2.5 -2t-7.5 -3l-13 -7l-15 -7.5t-18.5 -8.5t-19 -6.5t-15.5 -2.5q-17 -2 -17 -25q0 -2 0.5 -3.5t0.5 -3.5q7 -10 11 -10t18 6l10 5q9 4 15 8.5
l14 10.5q11 7 18.5 15t15.5 17l6 5l5 3q5 4 8.5 8t3.5 6z" />
    <glyph glyph-name="Odieresis" unicode="&#xd6;" horiz-adv-x="454" 
d="M529 480q-27 0 -43.5 -2.5t-30.5 -8t-29.5 -15t-39.5 -23.5q-24 -18 -33 -25t-15 -11.5t-14 -12.5t-30 -28h-12q-20 8 -32 20t-12 26q0 4 -1 10.5t0 12.5q10 25 29.5 36.5t38.5 18.5q1 1 5.5 0.5t5.5 -0.5q2 0 3.5 -0.5t2.5 -0.5q2 0 3 -0.5t5 -0.5q16 0 16 9
q0 5 -11.5 6.5t-19.5 1.5t-19 -3.5t-23 -8.5t-22.5 -11.5t-16.5 -13.5q-7 -7 -16.5 -13t-9.5 -16q-8 -8 -9.5 -17t-1.5 -19q0 -12 10.5 -26.5t21.5 -17.5q12 -5 19.5 -7t12 -3.5t7 -4t3.5 -8.5q-20 -28 -26 -40l-12 -24q-5 -9 -15.5 -23t-29.5 -48q-7 -18 -15.5 -35.5
t-10.5 -31.5q-7 -13 -8.5 -25.5t-3.5 -26.5l3 -56l7 -15q5 -23 25.5 -31.5t41.5 -8.5q12 0 20 1.5t16 4.5t17.5 7.5t23.5 10.5q21 10 35 18.5t25.5 18.5t23 21.5t27.5 26.5q7 7 10 9t5 4.5t5.5 6.5t12.5 14q10 13 12.5 18t3 8t3 7.5t11.5 17.5q9 16 13 23t7 12t6.5 11
t10.5 21l12 24q6 23 9 37.5t3 29.5q0 13 -6 34q-4 12 -8 12q-3 0 -5 -7t-3 -12l4 -9q-1 -25 -3.5 -39.5t-8.5 -37.5q-3 -9 -9 -25t-15 -32q-12 -17 -21.5 -41t-19.5 -38q-11 -14 -33.5 -35t-45.5 -43q-7 -2 -13 -7.5t-14.5 -12.5t-20.5 -14t-30 -11q-6 -3 -17 -5.5t-26 -2.5
q-13 0 -21.5 13t-13.5 24q-2 11 -3.5 23.5t-1.5 25.5q0 15 2 29.5t5 26.5q6 10 8 14t3 6.5t2.5 7t4.5 16.5q11 22 21.5 44t21.5 45q9 10 12 14t5 7t4.5 9t9.5 20l15 14q18 0 22.5 -3t8.5 -3q3 0 6 1t11 4q21 4 29.5 4.5t12.5 1t6.5 2t11.5 6.5q10 1 14.5 1.5t7 1.5t5.5 2.5
t11 6.5q10 3 14 4t7 2.5t8 4.5t19 9q8 7 10.5 9t4.5 4t15 7q14 14 24.5 27.5t10.5 27.5q0 20 -31 36h-17zM556 436q0 -14 -13 -28q-19 -17 -34.5 -27t-31 -16.5t-34.5 -12t-46 -12.5q-9 0 -13.5 -0.5t-7.5 -0.5q-5 0 -13 -1t-28 2q-3 1 -3 5q0 5 9 12.5t10 7.5q6 6 8.5 8
t4.5 3.5t5 5t12 11.5q26 17 46.5 34.5t51.5 26.5q17 5 24 7t12 2q20 0 30.5 -7.5t10.5 -19.5zM617 608q0 13 -8 13q-5 0 -12.5 -4.5t-14 -10t-11.5 -10.5l-5 -5q-7 -12 -10.5 -16.5t-3.5 -11.5q0 -15 3.5 -20.5t9.5 -5.5q7 0 14.5 4.5t15.5 8.5q8 14 15 27.5t7 30.5z
M507 588q-2 8 -4.5 16t-15.5 8q-5 0 -10.5 -5t-10.5 -12t-9 -13.5t-6 -9.5q-2 -7 -3 -12t-1 -10q0 -8 5.5 -11.5t20.5 -5.5q12 6 17.5 10t8.5 9t4 13t4 23z" />
    <glyph glyph-name="odieresis" unicode="&#xf6;" horiz-adv-x="192" 
d="M159 62q9 16 9 27q0 14 -14 26q-5 3 -12 3q-8 0 -17.5 -4.5t-14.5 -12.5l-8 -2l-11 3q-29 -4 -52 -18t-46 -31q-2 -2 -2 -5l1 -2q4 0 11.5 5t13.5 8q10 4 12.5 5.5t4.5 1.5q4 0 8 -2l-2 -7q-5 -6 -7 -8.5t-2.5 -4t-1 -4t-2.5 -8.5q-5 -10 -5 -18q0 -10 7.5 -14.5
t19.5 -9.5l13.5 -1.5t6.5 -0.5t3.5 1.5l6.5 6.5l9 2q0 -1 6 6q8 3 11 4t4.5 2.5t4.5 5.5t11 12l15 11q8 -1 11.5 -2t7.5 -1q5 0 23 7q9 5 17 12t8 9q0 1 -2 1q-6 0 -16 -5l-23 -4zM61 32q2 10 5 17t6.5 12.5t8.5 10.5l12 12q5 5 5.5 6.5t2.5 1.5l6 -2q3 -8 3 -12
q0 -3 1 -5.5t4 -5.5t11 -10l-1 -11q-15 -15 -21.5 -21t-17.5 -6q-7 0 -22 3zM211 227q0 9 -6 9q-3 0 -8 -3.5t-9 -7.5t-7 -7.5l-3 -3.5q-5 -9 -7 -12t-2 -8q0 -19 8 -19q5 0 10 3.5t10 6.5q5 10 9.5 20t4.5 22zM140 212q-1 5 -3 11.5t-10 6.5q-7 0 -14 -12.5t-9 -16.5
q-3 -11 -3 -17q0 -9 17 -12q7 4 11 7t5.5 6.5t2.5 9.5t3 17z" />
    <glyph glyph-name="Ecircumflex" unicode="&#xca;" horiz-adv-x="405" 
d="M604 457q0 11 -6 19.5t-20 13.5l-61 -2l-15 -2l-60 -22q-60 -29 -104 -64.5t-72 -90.5q-3 -13 -4 -18.5t-2 -9.5q-1 -3 -2.5 -7t-4 -11.5t-7 -20t-10.5 -32.5q-4 -6 -8.5 -11t-8.5 -8l-32 -13q-14 -6 -29.5 -13.5t-29 -15.5t-23 -15t-10.5 -12q-7 0 -15 -6t-15.5 -15.5
t-14.5 -21.5t-11 -24q-2 -25 2 -31q-1 -6 5.5 -11.5t15.5 -13.5l10.5 -10.5t9.5 -4.5q4 -7 18.5 -10t25.5 -6l19 -5l31 -3q29 3 53.5 7t48 11.5t47.5 19.5t51 31l10 7q5 3 13 9t8 9q0 2 -4 2q-2 0 -4 -1l-12 -8l-17 -10q-30 -17 -49 -26t-34 -14t-29 -7.5t-35 -6.5l-46 1
q-21 5 -43 24t-27 55q10 42 42.5 72t74.5 44l16.5 5.5l7.5 2.5t6.5 3t12.5 8l8 6q6 9 7.5 12.5t3.5 5.5q1 2 6 4t6 6q8 24 11 33.5t5 14.5t5 11t11 23q1 7 1.5 10t1.5 5t3 5t7 12q2 7 2.5 10t1 4.5t2 3.5t4.5 8l12 13q9 14 12.5 20t7.5 9q3 4 10 8.5t25 18.5
q24 15 49.5 24.5t48.5 9.5q6 0 12 0.5t11 0.5q14 0 25 -4t22 -18q-1 -11 -4.5 -22t-8.5 -19q-15 -21 -28 -38t-27.5 -31t-32 -26.5t-41.5 -25.5l-17 -3l-26 2l-9 4v18l-3 3l-7 -2q-11 -5 -18 -12.5t-7 -14.5q8 -8 12 -10t10 -2h10q11 -4 20 -4q14 0 26.5 6.5t26.5 12.5
q14 11 29 19t30 19q8 12 9 13l9 6l20 25q14 16 28.5 40t14.5 45zM635 642q0 8 -7 8q-6 0 -10.5 -0.5t-9.5 -3.5q-16 -6 -31.5 -16t-29.5 -19q-11 -11 -26 -19.5t-29 -21.5q-11 -11 -15 -14t-6 -5q-2 -1 -3 -3.5t-6 -5.5q-2 -2 -8.5 -8t-6.5 -11q0 -2 4 -2q8 1 18 7.5
t15 11.5q16 14 34 27.5t34 27.5q8 4 9 5.5t10 7.5q3 2 7.5 6.5t9.5 4.5q3 0 4 -0.5t1 -5.5l-2 -3q-3 -10 -8.5 -22.5t-5.5 -22.5q0 -2 1 -4.5t5 -13.5q5 -4 13 -11t15 -7q2 0 5 3q2 5 3.5 20t1.5 32q0 3 0.5 6t1.5 7q3 5 4 6.5t1 2.5v5t1 11q3 6 4.5 10t1.5 10z" />
    <glyph glyph-name="ucircumflex" unicode="&#xfb;" horiz-adv-x="253" 
d="M67 67l-1 -3l-22 -45l-8 -16l-1 -8l4 -5h23q26 10 44.5 24t40.5 31q3 0 4.5 -0.5t1.5 -5.5l-7 -8l-4 -13q-3 -6 -5.5 -9.5t-2.5 -7.5q0 -5 4 -10q5 -2 8 -2h6q8 0 14 2.5t15 7.5q16 10 31 19.5t29 20.5l19 14q6 7 6 9q0 1 -2 1q-3 0 -11.5 -4.5t-10.5 -6.5l-31 -21
l-22 -11l-10 -1q-1 2 -1 5q0 11 8 23.5t12 19.5q7 13 11.5 18t6 7.5t2 5t0.5 10.5l-2 3q-12 -2 -16.5 -4.5t-18.5 -13.5q-17 -17 -22.5 -23.5t-10.5 -10.5t-13.5 -10t-29.5 -22q-12 -3 -15 -3q-4 0 -4 8v4l18 38l12 18l6 16q1 2 1 5q0 5 -8 5t-15 -3t-9 -4l-43 -21l-36 -23
q-21 -13 -21 -17q0 -3 6 -3l20 10q10 5 17 8t11.5 4.5t8.5 1.5h9zM112 158q5 1 13 5.5t12 8.5q12 11 25.5 21t25.5 20q6 3 6.5 4t7.5 6q2 2 5.5 5t7.5 3t3 -4l-1 -3q-2 -7 -6 -16t-4 -17q0 -5 4 -13q3 -3 9.5 -9t11.5 -6q3 0 3 3q2 3 3.5 14.5t1.5 24.5q0 6 1 10
q4 7 3.5 7.5t1.5 11.5l3 7.5t1 6.5q0 7 -5 7q-11 0 -15 -3q-12 -5 -23.5 -12t-22.5 -15q-8 -8 -19 -14t-22 -16q-9 -8 -11.5 -10.5t-4.5 -3.5q-2 -2 -2.5 -3.5t-4.5 -3.5q-2 -2 -7 -6t-4 -9z" />
    <glyph glyph-name="logicalnot" unicode="&#xac;" horiz-adv-x="276" 
d="M152 14q1 -8 1 -11q0 -2 4 -2q5 0 8 1.5l7 3.5q13 7 19 10.5t10 7t7 9l9 16.5q19 27 28 39t21 23q-2 5 -3.5 8.5t-4.5 3.5q-5 -2 -18 -5.5t-26 -6.5q-33 -2 -65 -4.5t-64 -5.5l-22 -3l-9 -4l-15 -4q-19 -15 -19 -17q0 -1 14 -4q15 3 24 5t17.5 3t18.5 2t25 3
q22 3 38.5 4.5t32.5 1.5q21 0 11 -13q-4 -5 -10.5 -13t-18.5 -25z" />
    <glyph glyph-name="Edieresis" unicode="&#xcb;" horiz-adv-x="405" 
d="M604 457q0 11 -6 19.5t-20 13.5l-61 -2l-15 -2l-60 -22q-60 -29 -104 -64.5t-72 -90.5q-3 -13 -4 -18.5t-2 -9.5q-1 -3 -2.5 -7t-4 -11.5t-7 -20t-10.5 -32.5q-4 -6 -8.5 -11t-8.5 -8l-32 -13q-14 -6 -29.5 -13.5t-29 -15.5t-23 -15t-10.5 -12q-7 0 -15 -6t-15.5 -15.5
t-14.5 -21.5t-11 -24q-2 -25 2 -31q-1 -6 5.5 -11.5t15.5 -13.5l10.5 -10.5t9.5 -4.5q4 -7 18.5 -10t25.5 -6l19 -5l31 -3q29 3 53.5 7t48 11.5t47.5 19.5t51 31l10 7q5 3 13 9t8 9q0 2 -4 2q-2 0 -4 -1l-12 -8l-17 -10q-30 -17 -49 -26t-34 -14t-29 -7.5t-35 -6.5l-46 1
q-21 5 -43 24t-27 55q10 42 42.5 72t74.5 44l16.5 5.5l7.5 2.5t6.5 3t12.5 8l8 6q6 9 7.5 12.5t3.5 5.5q1 2 6 4t6 6q8 24 11 33.5t5 14.5t5 11t11 23q1 7 1.5 10t1.5 5t3 5t7 12q2 7 2.5 10t1 4.5t2 3.5t4.5 8l12 13q9 14 12.5 20t7.5 9q3 4 10 8.5t25 18.5
q24 15 49.5 24.5t48.5 9.5q6 0 12 0.5t11 0.5q14 0 25 -4t22 -18q-1 -11 -4.5 -22t-8.5 -19q-15 -21 -28 -38t-27.5 -31t-32 -26.5t-41.5 -25.5l-17 -3l-26 2l-9 4v18l-3 3l-7 -2q-11 -5 -18 -12.5t-7 -14.5q8 -8 12 -10t10 -2h10q11 -4 20 -4q14 0 26.5 6.5t26.5 12.5
q14 11 29 19t30 19q8 12 9 13l9 6l20 25q14 16 28.5 40t14.5 45zM642 607q0 13 -8 13q-5 0 -12.5 -4.5t-14 -10t-11.5 -10.5l-5 -5q-7 -12 -10.5 -16.5t-3.5 -11.5q0 -15 3.5 -20.5t9.5 -5.5q7 0 14.5 4.5t15.5 8.5q8 14 15 27.5t7 30.5zM532 587q-2 8 -4.5 16t-15.5 8
q-5 0 -10.5 -5t-10.5 -12t-9 -13.5t-6 -9.5q-2 -7 -3 -12t-1 -10q0 -8 5.5 -11.5t20.5 -5.5q12 6 17.5 10t8.5 9t4 13t4 23z" />
    <glyph glyph-name="Otilde" unicode="&#xd5;" horiz-adv-x="454" 
d="M529 480q-27 0 -43.5 -2.5t-30.5 -8t-29.5 -15t-39.5 -23.5q-24 -18 -33 -25t-15 -11.5t-14 -12.5t-30 -28h-12q-20 8 -32 20t-12 26q0 4 -1 10.5t0 12.5q10 25 29.5 36.5t38.5 18.5q1 1 5.5 0.5t5.5 -0.5q2 0 3.5 -0.5t2.5 -0.5q2 0 3 -0.5t5 -0.5q16 0 16 9
q0 5 -11.5 6.5t-19.5 1.5t-19 -3.5t-23 -8.5t-22.5 -11.5t-16.5 -13.5q-7 -7 -16.5 -13t-9.5 -16q-8 -8 -9.5 -17t-1.5 -19q0 -12 10.5 -26.5t21.5 -17.5q12 -5 19.5 -7t12 -3.5t7 -4t3.5 -8.5q-20 -28 -26 -40l-12 -24q-5 -9 -15.5 -23t-29.5 -48q-7 -18 -15.5 -35.5
t-10.5 -31.5q-7 -13 -8.5 -25.5t-3.5 -26.5l3 -56l7 -15q5 -23 25.5 -31.5t41.5 -8.5q12 0 20 1.5t16 4.5t17.5 7.5t23.5 10.5q21 10 35 18.5t25.5 18.5t23 21.5t27.5 26.5q7 7 10 9t5 4.5t5.5 6.5t12.5 14q10 13 12.5 18t3 8t3 7.5t11.5 17.5q9 16 13 23t7 12t6.5 11
t10.5 21l12 24q6 23 9 37.5t3 29.5q0 13 -6 34q-4 12 -8 12q-3 0 -5 -7t-3 -12l4 -9q-1 -25 -3.5 -39.5t-8.5 -37.5q-3 -9 -9 -25t-15 -32q-12 -17 -21.5 -41t-19.5 -38q-11 -14 -33.5 -35t-45.5 -43q-7 -2 -13 -7.5t-14.5 -12.5t-20.5 -14t-30 -11q-6 -3 -17 -5.5t-26 -2.5
q-13 0 -21.5 13t-13.5 24q-2 11 -3.5 23.5t-1.5 25.5q0 15 2 29.5t5 26.5q6 10 8 14t3 6.5t2.5 7t4.5 16.5q11 22 21.5 44t21.5 45q9 10 12 14t5 7t4.5 9t9.5 20l15 14q18 0 22.5 -3t8.5 -3q3 0 6 1t11 4q21 4 29.5 4.5t12.5 1t6.5 2t11.5 6.5q10 1 14.5 1.5t7 1.5t5.5 2.5
t11 6.5q10 3 14 4t7 2.5t8 4.5t19 9q8 7 10.5 9t4.5 4t15 7q14 14 24.5 27.5t10.5 27.5q0 20 -31 36h-17zM556 436q0 -14 -13 -28q-19 -17 -34.5 -27t-31 -16.5t-34.5 -12t-46 -12.5q-9 0 -13.5 -0.5t-7.5 -0.5q-5 0 -13 -1t-28 2q-3 1 -3 5q0 5 9 12.5t10 7.5q6 6 8.5 8
t4.5 3.5t5 5t12 11.5q26 17 46.5 34.5t51.5 26.5q17 5 24 7t12 2q20 0 30.5 -7.5t10.5 -19.5zM623 579q0 2 -2 2q-3 0 -5 -2q-4 -4 -5 -5.5t-2 -2t-3 -1t-7 -1.5q-3 -2 -12 -4.5t-14 -2.5q-14 0 -20 5.5t-12 12.5q-5 7 -14 12.5t-30 5.5q-17 0 -25 -3.5t-27 -12.5l-9 -6
q-2 -1 -3 -1t-6 -2l-22 -18q-1 -1 -1 -3t2 -2q4 0 7 2q16 13 24 16.5t20 3.5q10 0 16.5 -5.5t14.5 -11.5q8 -7 18 -12.5t26 -5.5q14 0 24 4t27 9q7 4 12 7t8.5 5.5t8 5.5t10.5 8q1 1 1 3z" />
    <glyph glyph-name="uacute" unicode="&#xfa;" horiz-adv-x="253" 
d="M67 67l-1 -3l-22 -45l-8 -16l-1 -8l4 -5h23q26 10 44.5 24t40.5 31q3 0 4.5 -0.5t1.5 -5.5l-7 -8l-4 -13q-3 -6 -5.5 -9.5t-2.5 -7.5q0 -5 4 -10q5 -2 8 -2h6q8 0 14 2.5t15 7.5q16 10 31 19.5t29 20.5l19 14q6 7 6 9q0 1 -2 1q-3 0 -11.5 -4.5t-10.5 -6.5l-31 -21
l-22 -11l-10 -1q-1 2 -1 5q0 11 8 23.5t12 19.5q7 13 11.5 18t6 7.5t2 5t0.5 10.5l-2 3q-12 -2 -16.5 -4.5t-18.5 -13.5q-17 -17 -22.5 -23.5t-10.5 -10.5t-13.5 -10t-29.5 -22q-12 -3 -15 -3q-4 0 -4 8v4l18 38l12 18l6 16q1 2 1 5q0 5 -8 5t-15 -3t-9 -4l-43 -21l-36 -23
q-21 -13 -21 -17q0 -3 6 -3l20 10q10 5 17 8t11.5 4.5t8.5 1.5h9zM260 258q0 2 -2 2l-8 -2q-5 -2 -6 -3l-2 -2t-2.5 -2t-7.5 -3l-13 -7l-15 -7.5t-18.5 -8.5t-19 -6.5t-15.5 -2.5q-17 -2 -17 -25q0 -2 0.5 -3.5t0.5 -3.5q7 -10 11 -10t18 6l10 5q9 4 15 8.5l14 10.5
q11 7 18.5 15t15.5 17l6 5l5 3q5 4 8.5 8t3.5 6z" />
    <glyph glyph-name="eacute" unicode="&#xe9;" horiz-adv-x="167" 
d="M63 20q-3 5 1.5 10t8.5 7l18 13q24 17 33.5 32t9.5 38q-8 11 -18.5 5t-19.5 -11q-27 -17 -49 -39t-32 -55q1 -14 3 -20t16 -10q34 2 58.5 12t50.5 30l12 9q9 5 15.5 11.5t6.5 8.5l-1 1q-2 0 -7 -2t-13 -8q-17 -11 -28 -17t-19 -9.5t-16.5 -5t-20.5 -3.5zM57 39l-2 16
q7 18 21 30q15 12 24 12q12 0 6 -13q-11 -14 -21.5 -24.5t-24.5 -21.5h-1zM226 241q0 2 -2 2l-8 -2q-5 -2 -6 -3l-2 -2t-2.5 -2t-7.5 -3l-13 -7l-15 -7.5t-18.5 -8.5t-19 -6.5t-15.5 -2.5q-17 -2 -17 -25q0 -2 0.5 -3.5t0.5 -3.5q7 -10 11 -10t18 6l10 5q9 4 15 8.5l14 10.5
q11 7 18.5 15t15.5 17l6 5l5 3q5 4 8.5 8t3.5 6z" />
    <glyph glyph-name="iacute" unicode="&#xed;" horiz-adv-x="157" 
d="M127 136q-16 -5 -30.5 -15t-28.5 -19l-14 -8l-33 -20l-30 -21l-2 -7h7l19 11l15 10l17 8l12 4l13 -3v-6q-11 -21 -19 -36.5t-13 -38.5l3 -3h9q17 0 29.5 7t26.5 16l24 17l11 7q5 4 15 10.5t10 10.5q0 2 -4 2t-7 -1l-12 -9l-20 -11l-14 -8l-6 -4h-6l-9 3v7l6 12
q6 22 18 40t24 38q0 7 -6 7h-5zM234 266q0 2 -2 2l-8 -2q-5 -2 -6 -3l-2 -2t-2.5 -2t-7.5 -3l-13 -7l-15 -7.5t-18.5 -8.5t-19 -6.5t-15.5 -2.5q-17 -2 -17 -25q0 -2 0.5 -3.5t0.5 -3.5q7 -10 11 -10t18 6l10 5q9 4 15 8.5l14 10.5q11 7 18.5 15t15.5 17l6 5l5 3q5 4 8.5 8
t3.5 6z" />
    <glyph glyph-name="icircumflex" unicode="&#xee;" horiz-adv-x="157" 
d="M127 136q-16 -5 -30.5 -15t-28.5 -19l-14 -8l-33 -20l-30 -21l-2 -7h7l19 11l15 10l17 8l12 4l13 -3v-6q-11 -21 -19 -36.5t-13 -38.5l3 -3h9q17 0 29.5 7t26.5 16l24 17l11 7q5 4 15 10.5t10 10.5q0 2 -4 2t-7 -1l-12 -9l-20 -11l-14 -8l-6 -4h-6l-9 3v7l6 12
q6 22 18 40t24 38q0 7 -6 7h-5zM82 188q5 1 13 5.5t12 8.5q12 11 25.5 21t25.5 20q6 3 6.5 4t7.5 6q2 2 5.5 5t7.5 3t3 -4l-1 -3q-2 -7 -6 -16t-4 -17q0 -5 4 -13q3 -3 9.5 -9t11.5 -6q3 0 3 3q2 3 3.5 14.5t1.5 24.5q0 6 1 10q4 7 3.5 7.5t1.5 11.5l3 7.5t1 6.5q0 7 -5 7
q-11 0 -15 -3q-12 -5 -23.5 -12t-22.5 -15q-8 -8 -19 -14t-22 -16q-9 -8 -11.5 -10.5t-4.5 -3.5q-2 -2 -2.5 -3.5t-4.5 -3.5q-2 -2 -7 -6t-4 -9z" />
    <glyph glyph-name="registered" unicode="&#xae;" horiz-adv-x="382" 
d="M335 460q-2 -8 -3.5 -10.5t-6.5 -7.5l-16.5 -9t-16.5 -3h-5l-3 2l5 21l-3 4h-9t-12 -4q-5 -3 -8 -7.5t-5 -9.5q-1 -3 -4 -11t-6 -17t-5.5 -17t-2.5 -9q0 -4 -4 -4q-5 -2 -9.5 -4t-5.5 -7l2 -2q11 -1 18.5 -1.5t13.5 -0.5h12h16l4 3v3q0 1 -6 7q-6 2 -8 3t-2 6
q5 12 8.5 21t7.5 13h2v-1l6 -7q4 -6 5 -10l2 -8t3.5 -9t9.5 -11q3 -2 4 -2.5l3 -1.5t4.5 -1.5t9.5 -3.5l36 -1q7 4 7 6q1 3 -6 3.5t-11 2.5q-7 4 -10 5.5t-5.5 4.5t-7 8.5t-14.5 17.5l-4 14l-1 1l2 2q6 5 15.5 9t17.5 9.5t12 12t-2 17.5q-8 4 -19 7.5t-19 3.5t-15.5 -1.5
t-16.5 -3.5l-26 -4q-9 -4 -9 -5q0 -3 2 -4l22 -2l25 5l17 1l8 -4zM344 525l9 -3t6 -1.5t7 -0.5h16q11 -2 22 -10.5t16 -16.5q0 -8 1.5 -12.5t4 -8t4 -6.5t1.5 -7q-1 -8 -3 -17t-3 -18q-1 -8 -7 -19q-2 -7 -13 -25.5t-24 -29.5l-30 -16q-33 -17 -70 -20l-41 7l-12 4
q-12 8 -22 11.5t-17 15.5q-3 20 -8 25q-2 3 -4 2.5t-2 4.5q-4 11 0 21.5t6 21.5q6 14 13.5 26.5t23.5 22.5q-3 8 -6 8q-5 0 -11.5 -5t-11.5 -9q-14 -16 -29 -38t-17 -42q-2 -8 -2 -16t5 -14q2 -8 2.5 -10.5t2.5 -4.5q0 -2 4 -6l5 -9q8 -8 14 -13.5t13 -9t15.5 -6t22.5 -2.5
q2 -2 5 -2q17 0 33 1.5t33 3.5q3 -1 4 -1.5t3 -0.5q5 0 13.5 2.5t13.5 4.5q8 3 15 7t22 9q8 6 18 16t20 20.5t18 21t12 18.5q4 10 6.5 16.5t4 12.5t2 12.5t0.5 17.5q-2 7 -5 14t-5 15q-7 10 -10.5 15.5t-13.5 11.5q-9 4 -15.5 7.5t-13.5 6t-16 4t-23 2.5q-8 -2 -16 -2
t-16 -4q0 -2 2 -2q3 0 5 -1h23z" />
    <glyph glyph-name="Atilde" unicode="&#xc3;" horiz-adv-x="545" 
d="M631 386l-5 7l-4 1l-25 -8q-23 0 -31 5t-16 25q4 9 5.5 12t2.5 6t2 10t4 24q-3 15 -5.5 25t-7.5 16t-14 10t-26 8q-21 -2 -32.5 -4.5t-20.5 -6t-19 -9.5t-28 -16q-46 -21 -79 -50t-73 -65q-42 -50 -79 -100t-69 -107q-12 -22 -19.5 -39.5t-12 -34t-7.5 -34.5l-7 -42
q2 -11 5 -16.5t7.5 -8t10.5 -2.5q7 0 16 -1q33 5 69 27.5t68 51.5q11 8 15 11t7 5.5t8.5 7t19.5 15.5q14 7 18.5 10t8.5 6t10.5 9t23.5 20q22 19 35 29.5t20.5 16.5t12 10.5t9.5 10.5t14 16.5t25 29.5l34 40l30 39l10 14q5 1 12 1q6 0 6 -3q0 -1 -4 -9l-35 -44
q-31 -40 -56.5 -83t-50.5 -88q-8 -19 -11 -26t-4.5 -11.5t-3 -10.5t-4.5 -24q-6 -17 -6 -28q0 -17 12 -25.5t37 -13.5h20l12 8l16 3q3 1 8.5 5t12 8.5t12.5 9t9 6.5l11 7q12 9 17 13t5 6l-1 1q-7 0 -21 -9l-17 -10q-10 -6 -16.5 -9.5t-12.5 -5.5t-13 -3.5t-17 -3.5l-18 14
q-5 13 -5 23q0 14 6 27.5t12 28.5l14 34q26 43 53 85t54 85l27 28q17 8 22.5 13.5t6.5 26.5zM547 469q0 -2 -2 -7t-5 -16l-1 -24q-10 -13 -18.5 -22.5t-18 -17.5t-20 -15t-23.5 -14q-7 -4 -7 -7t13 -7q10 4 13.5 5.5t5.5 3l6 4.5t14 10q6 7 10 7t4 -5q0 -4 -1 -6l-16 -24
t-8.5 -11.5t-12.5 -15t-27 -33.5q-19 -18 -29.5 -27.5t-16.5 -15.5l-10 -10t-10.5 -11t-17.5 -18t-30 -31q-38 -29 -73.5 -56t-76.5 -51l-33 -12q-11 -3 -16 -3q-6 0 -7.5 2.5t-1.5 7.5q0 4 0.5 9t0.5 11l9 37q4 17 6 23.5t4 11t7 11t16 24.5q2 20 14.5 34t23.5 31
q15 24 18.5 33t7.5 12q11 7 18.5 15t14.5 24q2 2 4.5 5t7.5 8t13 14.5t20 25.5l22 20q15 14 23.5 21.5t13.5 12.5t8.5 7.5t9.5 6.5t16 10.5t28 18.5q17 7 32 15t32 16q11 -3 16 -3.5t7 -1.5t4.5 -2.5t8.5 -6.5q5 -11 7.5 -15.5t2.5 -7.5zM654 612q0 2 -2 2q-3 0 -5 -2
q-4 -4 -5 -5.5t-2 -2t-3 -1t-7 -1.5q-3 -2 -12 -4.5t-14 -2.5q-14 0 -20 5.5t-12 12.5q-5 7 -14 12.5t-30 5.5q-17 0 -25 -3.5t-27 -12.5l-9 -6q-2 -1 -3 -1t-6 -2l-22 -18q-1 -1 -1 -3t2 -2q4 0 7 2q16 13 24 16.5t20 3.5q10 0 16.5 -5.5t14.5 -11.5q8 -7 18 -12.5t26 -5.5
q14 0 24 4t27 9q7 4 12 7t8.5 5.5t8 5.5t10.5 8q1 1 1 3z" />
    <glyph glyph-name="Aacute" unicode="&#xc1;" horiz-adv-x="545" 
d="M631 386l-5 7l-4 1l-25 -8q-23 0 -31 5t-16 25q4 9 5.5 12t2.5 6t2 10t4 24q-3 15 -5.5 25t-7.5 16t-14 10t-26 8q-21 -2 -32.5 -4.5t-20.5 -6t-19 -9.5t-28 -16q-46 -21 -79 -50t-73 -65q-42 -50 -79 -100t-69 -107q-12 -22 -19.5 -39.5t-12 -34t-7.5 -34.5l-7 -42
q2 -11 5 -16.5t7.5 -8t10.5 -2.5q7 0 16 -1q33 5 69 27.5t68 51.5q11 8 15 11t7 5.5t8.5 7t19.5 15.5q14 7 18.5 10t8.5 6t10.5 9t23.5 20q22 19 35 29.5t20.5 16.5t12 10.5t9.5 10.5t14 16.5t25 29.5l34 40l30 39l10 14q5 1 12 1q6 0 6 -3q0 -1 -4 -9l-35 -44
q-31 -40 -56.5 -83t-50.5 -88q-8 -19 -11 -26t-4.5 -11.5t-3 -10.5t-4.5 -24q-6 -17 -6 -28q0 -17 12 -25.5t37 -13.5h20l12 8l16 3q3 1 8.5 5t12 8.5t12.5 9t9 6.5l11 7q12 9 17 13t5 6l-1 1q-7 0 -21 -9l-17 -10q-10 -6 -16.5 -9.5t-12.5 -5.5t-13 -3.5t-17 -3.5l-18 14
q-5 13 -5 23q0 14 6 27.5t12 28.5l14 34q26 43 53 85t54 85l27 28q17 8 22.5 13.5t6.5 26.5zM547 469q0 -2 -2 -7t-5 -16l-1 -24q-10 -13 -18.5 -22.5t-18 -17.5t-20 -15t-23.5 -14q-7 -4 -7 -7t13 -7q10 4 13.5 5.5t5.5 3l6 4.5t14 10q6 7 10 7t4 -5q0 -4 -1 -6l-16 -24
t-8.5 -11.5t-12.5 -15t-27 -33.5q-19 -18 -29.5 -27.5t-16.5 -15.5l-10 -10t-10.5 -11t-17.5 -18t-30 -31q-38 -29 -73.5 -56t-76.5 -51l-33 -12q-11 -3 -16 -3q-6 0 -7.5 2.5t-1.5 7.5q0 4 0.5 9t0.5 11l9 37q4 17 6 23.5t4 11t7 11t16 24.5q2 20 14.5 34t23.5 31
q15 24 18.5 33t7.5 12q11 7 18.5 15t14.5 24q2 2 4.5 5t7.5 8t13 14.5t20 25.5l22 20q15 14 23.5 21.5t13.5 12.5t8.5 7.5t9.5 6.5t16 10.5t28 18.5q17 7 32 15t32 16q11 -3 16 -3.5t7 -1.5t4.5 -2.5t8.5 -6.5q5 -11 7.5 -15.5t2.5 -7.5zM636 668q0 1 -2 1q-5 0 -9 -2
q-5 -2 -7 -3.5t-3 -2.5t-3.5 -2t-8.5 -4l-15 -8q-6 -4 -17 -9t-22.5 -9.5t-22.5 -7.5t-18 -3q-10 -1 -15 -9t-5 -20q0 -6 1 -9q7 -12 13 -12q3 0 8 2t13 6l12 5q11 5 18 10.5t16 12.5q12 8 21 17.5t19 20.5l8 5l5 4l9.5 9.5t4.5 7.5z" />
    <glyph glyph-name="Ccedilla" unicode="&#xc7;" horiz-adv-x="493" 
d="M762 570q-1 -8 -2.5 -11.5t-4 -7.5t-6.5 -10t-10 -19q-11 -15 -18 -25.5t-13.5 -19t-14 -17t-19.5 -19.5q-24 -23 -55.5 -43t-67 -36t-74 -27.5t-76.5 -16.5l-33 -4q-8 -1 -14 -1.5t-11 -0.5q-9 0 -9 5q0 3 5 13l84 90q7 6 10 8t4.5 3.5t3.5 4t8 8.5q11 5 17 12.5
t14 15.5q4 3 10.5 8t14 9.5t14.5 8.5t12 7q22 14 31 19.5t14 9t11.5 8t24.5 18.5q18 6 25 7.5t10.5 3t7.5 3.5t15 8q20 5 29.5 7t29.5 3q19 -2 23.5 -4t9.5 -18zM274 316h-9l-19 2q-10 11 -15 17.5t-7 12.5t-3 13t-3 19q4 16 9 26t11.5 18t15 15.5t20.5 18.5h7q3 0 5.5 0.5
t7.5 2.5t16 6q13 -3 25.5 1t13.5 10q0 3 -3.5 5.5t-14.5 4.5q-53 -5 -90 -27.5t-65 -69.5q-1 -7 -1 -13v-11q0 -20 3.5 -31t12 -18t22.5 -13l35 -15l1 -5q-8 -10 -11.5 -13.5t-5 -5.5t-2 -4.5t-3.5 -9.5q-17 -29 -26 -43t-14.5 -21t-8.5 -11t-7 -13q-8 -17 -12.5 -34.5
t-4.5 -31.5q-3 -3 -5.5 -10t-4 -14.5t-2 -13.5t-0.5 -7q0 -15 2 -25t6.5 -17.5t11.5 -14.5t17 -16q11 -8 28 -16.5t37 -9.5q-17 -5 -27 -9t-21 -15q-5 -7 -7 -10t-2 -8q0 -4 3 -13q16 -14 31 -24.5t15 -23.5q0 -10 -10 -21q-16 -8 -24 -12.5t-14 -4.5t-10.5 3.5t-8 7t-7.5 7
t-10 3.5q-21 0 -30 -19q8 -11 20.5 -16.5t26.5 -5.5q9 0 18 2.5t17 7.5q28 8 49 24t41 36q-3 11 -6.5 15.5t-16.5 14.5q-14 14 -20.5 19.5t-6.5 13.5q0 4 3 15l10 11h2q10 0 24.5 2.5t30.5 7.5q14 5 32.5 10.5t29.5 11.5l20 10l31 16l40 22l19 13q11 6 11 9t-6 3
q-4 0 -11.5 -4.5t-16.5 -10t-17 -11t-13 -8.5q-11 -4 -17.5 -6.5t-10.5 -4.5q-33 -13 -64 -20q-12 -6 -24.5 -7t-22.5 -1q-18 0 -38.5 3.5t-23.5 10.5q-8 2 -20.5 20.5t-12.5 40.5q0 13 2 26.5t3 24.5q8 16 8 27t11 26l16 39q13 23 26 43.5t34 37.5q17 3 25.5 5t19.5 2
q17 0 35.5 3t35.5 5q5 3 6.5 4t3 1.5t4.5 0.5t9 1q8 4 16 6t17 5t11 3.5t5.5 2t12 5t30.5 12.5q15 6 20 7.5t9.5 4l13.5 7.5t31 19q24 15 33 20t15.5 10.5t17 15t37.5 33.5l8 14q15 14 21 19l9 7.5t4.5 5.5t6.5 12q10 18 14 25.5t5.5 11.5t2 8.5t2.5 18.5q-5 6 -8.5 11
t-10 8.5t-17 5.5t-28.5 2q-9 0 -28 -5.5t-40 -12.5t-40 -15t-28 -12q-36 -18 -59.5 -31t-44.5 -28t-45 -34t-61 -49l-44 -43l-31 -35z" />
    <glyph glyph-name="ntilde" unicode="&#xf1;" horiz-adv-x="263" 
d="M155 28l-3.5 -10.5t-1.5 -8.5q0 -8 9 -14q26 1 47.5 14t46.5 30q8 6 14.5 12.5t6.5 9.5l-2 1q-4 0 -21 -10q-25 -14 -32.5 -19t-12.5 -7h-5q-2 0 -7 -1q-3 3 -3 8q0 7 5.5 15t10.5 14q3 8 8 18t5 20q0 9 -5 15q-20 0 -40 -11.5t-36 -24.5l-34 -28l-2 2l5 12q2 5 7 17
t5 23q0 13 -14 13q-24 -8 -44.5 -19t-41.5 -25l-29 -21l-2 -4q0 -2 2 -2q8 0 20 8l29 18q8 5 16 8t13 3q8 0 8 -8q0 -6 -5 -15l-32 -61l-1 -8l2 -2q7 0 16 5t18 12t17 14.5t13 11.5l52 41q4 2 8 5.5t8 3.5q5 0 6 -7zM145 209l-6 -3l-17 -14v-3l1 -2l5 2q11 11 17 13.5
t15 2.5q7 0 12 -4.5t10 -9.5q5 -6 12.5 -10.5t18.5 -4.5t17.5 3.5t18.5 7.5q11 8 15 10.5t13 11.5l1 2q0 2 -3 2l-2 -2l-5 -6l-7 -2q-2 -2 -8.5 -3.5t-10.5 -1.5q-10 0 -14 4.5t-8 10.5q-5 5 -11 9.5t-21 4.5q-12 0 -17.5 -2.5t-19.5 -10.5z" />
    <glyph glyph-name="Aring" unicode="&#xc5;" horiz-adv-x="545" 
d="M631 386l-5 7l-4 1l-25 -8q-23 0 -31 5t-16 25q4 9 5.5 12t2.5 6t2 10t4 24q-3 15 -5.5 25t-7.5 16t-14 10t-26 8q-21 -2 -32.5 -4.5t-20.5 -6t-19 -9.5t-28 -16q-46 -21 -79 -50t-73 -65q-42 -50 -79 -100t-69 -107q-12 -22 -19.5 -39.5t-12 -34t-7.5 -34.5l-7 -42
q2 -11 5 -16.5t7.5 -8t10.5 -2.5q7 0 16 -1q33 5 69 27.5t68 51.5q11 8 15 11t7 5.5t8.5 7t19.5 15.5q14 7 18.5 10t8.5 6t10.5 9t23.5 20q22 19 35 29.5t20.5 16.5t12 10.5t9.5 10.5t14 16.5t25 29.5l34 40l30 39l10 14q5 1 12 1q6 0 6 -3q0 -1 -4 -9l-35 -44
q-31 -40 -56.5 -83t-50.5 -88q-8 -19 -11 -26t-4.5 -11.5t-3 -10.5t-4.5 -24q-6 -17 -6 -28q0 -17 12 -25.5t37 -13.5h20l12 8l16 3q3 1 8.5 5t12 8.5t12.5 9t9 6.5l11 7q12 9 17 13t5 6l-1 1q-7 0 -21 -9l-17 -10q-10 -6 -16.5 -9.5t-12.5 -5.5t-13 -3.5t-17 -3.5l-18 14
q-5 13 -5 23q0 14 6 27.5t12 28.5l14 34q26 43 53 85t54 85l27 28q17 8 22.5 13.5t6.5 26.5zM547 469q0 -2 -2 -7t-5 -16l-1 -24q-10 -13 -18.5 -22.5t-18 -17.5t-20 -15t-23.5 -14q-7 -4 -7 -7t13 -7q10 4 13.5 5.5t5.5 3l6 4.5t14 10q6 7 10 7t4 -5q0 -4 -1 -6l-16 -24
t-8.5 -11.5t-12.5 -15t-27 -33.5q-19 -18 -29.5 -27.5t-16.5 -15.5l-10 -10t-10.5 -11t-17.5 -18t-30 -31q-38 -29 -73.5 -56t-76.5 -51l-33 -12q-11 -3 -16 -3q-6 0 -7.5 2.5t-1.5 7.5q0 4 0.5 9t0.5 11l9 37q4 17 6 23.5t4 11t7 11t16 24.5q2 20 14.5 34t23.5 31
q15 24 18.5 33t7.5 12q11 7 18.5 15t14.5 24q2 2 4.5 5t7.5 8t13 14.5t20 25.5l22 20q15 14 23.5 21.5t13.5 12.5t8.5 7.5t9.5 6.5t16 10.5t28 18.5q17 7 32 15t32 16q11 -3 16 -3.5t7 -1.5t4.5 -2.5t8.5 -6.5q5 -11 7.5 -15.5t2.5 -7.5zM632 647q0 17 -15.5 23t-29.5 6
q-13 0 -31 -6q-8 -3 -21 -10.5t-25 -16.5t-20.5 -20t-8.5 -21q0 -18 15 -21t28 -3h8h1q29 0 52 9.5t40 34.5q3 7 5 13t2 12zM596 646q-4 -12 -6.5 -19t-5 -12t-6 -8.5t-9.5 -8.5q-23 0 -32 5t-9 13q0 7 4.5 14.5t11.5 14t15 10.5t15 4q15 0 22 -13z" />
    <glyph glyph-name="mu" unicode="&#xb5;" horiz-adv-x="253" 
d="M110 94l4 17q1 2 0 5q0 5 -8 5q-14 -2 -26.5 -13t-23.5 -26t-20.5 -30.5t-16.5 -25.5q-9 -11 -20 -28t-23 -37.5t-24.5 -42t-23.5 -42.5l-40 -76l-38 -74q0 -2 -1 -5t0 -5q0 -1 1.5 -2.5l2.5 -2.5q0 -1 2.5 -2t3.5 0q1 0 5 1t5 2l6 6q14 28 25 55t22 58q8 12 14 23.5
t9 25.5q7 5 10.5 11.5t7.5 14.5q10 14 19.5 30t17.5 37q8 10 17 24t17 26.5t14 22t8 9.5q3 0 3 -4l-1 -3l-13 -34l-6 -17v-8l4 -4l23 2q25 13 42 29t37 34h1q6 1 6 -4l-7 -10l-2 -13l-5 -10t-1 -8q0 -2 5 -9q5 -1 8 -1h6q8 2 13.5 5t14.5 8q25 20 34 30t10 12l-3 2
q-6 -2 -15 -9l-21 -12l-10 -3q0 2 -0.5 2.5t-0.5 2.5q-1 11 5.5 24.5t9.5 21.5q6 13 10 18.5t5.5 8t1.5 4.5q0 3 -1 11l-2 2q-6 -1 -9.5 -2t-6.5 -3t-7 -6l-10 -10q-15 -19 -20 -26t-9.5 -11.5t-12.5 -11.5t-27 -25q-5 -2 -8.5 -3t-5.5 -1q-5 -1 -5 7v1l-1 3l14 40z" />
    <glyph glyph-name="mu" unicode="&#x3bc;" horiz-adv-x="253" 
d="M110 94l4 17q1 2 0 5q0 5 -8 5q-14 -2 -26.5 -13t-23.5 -26t-20.5 -30.5t-16.5 -25.5q-9 -11 -20 -28t-23 -37.5t-24.5 -42t-23.5 -42.5l-40 -76l-38 -74q0 -2 -1 -5t0 -5q0 -1 1.5 -2.5l2.5 -2.5q0 -1 2.5 -2t3.5 0q1 0 5 1t5 2l6 6q14 28 25 55t22 58q8 12 14 23.5
t9 25.5q7 5 10.5 11.5t7.5 14.5q10 14 19.5 30t17.5 37q8 10 17 24t17 26.5t14 22t8 9.5q3 0 3 -4l-1 -3l-13 -34l-6 -17v-8l4 -4l23 2q25 13 42 29t37 34h1q6 1 6 -4l-7 -10l-2 -13l-5 -10t-1 -8q0 -2 5 -9q5 -1 8 -1h6q8 2 13.5 5t14.5 8q25 20 34 30t10 12l-3 2
q-6 -2 -15 -9l-21 -12l-10 -3q0 2 -0.5 2.5t-0.5 2.5q-1 11 5.5 24.5t9.5 21.5q6 13 10 18.5t5.5 8t1.5 4.5q0 3 -1 11l-2 2q-6 -1 -9.5 -2t-6.5 -3t-7 -6l-10 -10q-15 -19 -20 -26t-9.5 -11.5t-12.5 -11.5t-27 -25q-5 -2 -8.5 -3t-5.5 -1q-5 -1 -5 7v1l-1 3l14 40z" />
    <glyph glyph-name="Ugrave" unicode="&#xd9;" horiz-adv-x="564" 
d="M410 505q-9 -37 -24 -70t-33 -67q-6 -11 -11.5 -20.5t-12.5 -19.5t-16.5 -22t-23.5 -28t-21.5 -24t-12 -13t-7 -8.5t-7 -8.5t-12 -13.5t-21.5 -24.5l-14 -7q-14 -4 -19 -5t-8.5 -2.5t-8 -5.5t-17.5 -13q0 -2 -0.5 -4t-0.5 -4q0 -5 7 -8l14 6q5 -4 4 -4l6 -10
q4 -17 4.5 -20.5t0.5 -8.5v-17v-9q0 -2 1 -6t2 -11.5l3 -22.5q3 -9 3.5 -12.5t2 -6t4.5 -6t11 -12.5q14 -6 20.5 -8.5t12.5 -2.5q5 0 10.5 1t13.5 3l39 17l12 8q9 4 12 5t6 3t8.5 6t20.5 13q10 5 13 5q2 0 5 -11l6 -31v-3l10 -15q18 -11 32 -11q11 0 21.5 4t24.5 10
q11 7 15 9l6 3q2 2 13 6q9 5 12.5 7t5.5 3t4 3l8 8l10 7q5 3 12.5 8.5t7.5 8.5q0 2 -5 2q-2 0 -7 -2.5t-10 -6t-9 -6.5t-5 -3q-11 -7 -21.5 -11t-22.5 -10q-13 -5 -23 -5q-16 0 -27 10t-11 42v1l-1 23q5 15 6.5 20.5t4 9t9 9.5t20.5 21q15 16 20.5 21t9.5 9.5t10 13t23 29.5
q15 19 20.5 26t9.5 11.5t8.5 10.5t16.5 23l15 22q8 7 11 9.5t4.5 5t3 6t5.5 13.5q9 14 13 19t6 8.5t6 10t13 22.5q9 15 12 20.5t5 9t5 8t12 17.5q4 9 6.5 12t3.5 5t1.5 5t1.5 11q3 9 8 22.5t5 27.5q0 11 -4 19q-3 0 -6 0.5t-5 0.5q-19 0 -34.5 -11t-32.5 -21
q-38 -32 -60 -53.5t-37.5 -42t-29.5 -44.5t-36 -61q-16 -27 -33.5 -69t-37.5 -93q-6 -15 -10.5 -34t-6.5 -31q-5 -15 -6 -20.5t-3.5 -9t-8 -9t-18.5 -20.5q-19 -11 -34.5 -19.5t-36.5 -8.5q-12 0 -22 7q-8 10 -12.5 17t-7 14t-3.5 15t-2 19v49q-2 9 -2.5 12t-1.5 5.5t-3 5
t-6 9.5v6l7 6l40 39q22 27 31.5 37t14.5 16t12 14t25 31l22 27l24.5 31.5t18.5 27t15 28t15 34.5q7 16 12 30.5t7 30.5q1 6 1 11v9q0 11 -5 18.5t-20 21.5q-9 2 -11.5 3t-4.5 1h-4q-1 0 -6 -2q-9 -3 -14.5 -5t-12.5 -6t-17 -10.5t-29 -17.5q-32 -24 -50 -38.5t-32 -28
t-29 -30.5t-40 -45l-20 -35q-7 -10 -9 -13.5t-3.5 -7t-4 -10.5t-8.5 -23l-4 -37l2 -5q1 0 7 -4l10.5 -1.5t5.5 -0.5q4 0 7 3t16 12q10 3 13.5 4t6.5 3t8 7t18 16l5 12q1 2 1 5q0 4 -2 4q-3 0 -7 -8q-12 -13 -18 -17t-19 -12q-6 -2 -11 -4t-10 -2q-4 0 -6 3t-2 13q2 14 2 19
q0 6 1 9t3 6.5t8 12.5q1 5 2 7l1.5 3t2.5 3t6 8q10 17 13 22.5t6 9.5t7.5 8t16.5 16q11 15 21 28t27 23q15 14 30 26t32 25l28 18q13 7 21 7q19 0 19 -51v-7zM452 155l-4 -2q-2 0 -2 3q0 4 2.5 11t5.5 13.5t5.5 12t2.5 6.5q2 6 2.5 8t1 3.5t1.5 5t5 12.5l21 46
q20 43 42 83.5t52 77.5l31 38l35 45q8 11 15 15t12 4q9 0 9 -8l-5 -19l-5 -16l-3 -11q-2 -13 -2.5 -17t-2.5 -8t-7 -12t-15 -29q-9 -14 -12.5 -19t-5.5 -9t-5 -10.5t-11 -24.5q-15 -13 -20 -17t-8.5 -8.5t-9.5 -14t-22 -32.5q-12 -22 -19.5 -33.5t-15.5 -19.5t-18 -17.5
t-25 -27.5zM621 578q0 1 -0.5 1.5t-0.5 1.5l-15 23q-15 22 -25 41t-16 45q-6 8 -7.5 10.5t-3.5 4.5q-1 1 -13 10q-4 0 -6.5 0.5t-4.5 0.5q-6 0 -7.5 -2t-1.5 -7q0 -3 0.5 -8t0.5 -12q2 -8 2.5 -11t1.5 -4.5t2.5 -3.5t5.5 -7q4 -9 4.5 -8.5t7.5 -7.5q6 -11 19 -25.5t23 -21.5
q6 -8 7 -8q1 -1 7 -5q8 -11 15 -11q5 0 5 4z" />
    <glyph glyph-name="Egrave" unicode="&#xc8;" horiz-adv-x="405" 
d="M604 457q0 11 -6 19.5t-20 13.5l-61 -2l-15 -2l-60 -22q-60 -29 -104 -64.5t-72 -90.5q-3 -13 -4 -18.5t-2 -9.5q-1 -3 -2.5 -7t-4 -11.5t-7 -20t-10.5 -32.5q-4 -6 -8.5 -11t-8.5 -8l-32 -13q-14 -6 -29.5 -13.5t-29 -15.5t-23 -15t-10.5 -12q-7 0 -15 -6t-15.5 -15.5
t-14.5 -21.5t-11 -24q-2 -25 2 -31q-1 -6 5.5 -11.5t15.5 -13.5l10.5 -10.5t9.5 -4.5q4 -7 18.5 -10t25.5 -6l19 -5l31 -3q29 3 53.5 7t48 11.5t47.5 19.5t51 31l10 7q5 3 13 9t8 9q0 2 -4 2q-2 0 -4 -1l-12 -8l-17 -10q-30 -17 -49 -26t-34 -14t-29 -7.5t-35 -6.5l-46 1
q-21 5 -43 24t-27 55q10 42 42.5 72t74.5 44l16.5 5.5l7.5 2.5t6.5 3t12.5 8l8 6q6 9 7.5 12.5t3.5 5.5q1 2 6 4t6 6q8 24 11 33.5t5 14.5t5 11t11 23q1 7 1.5 10t1.5 5t3 5t7 12q2 7 2.5 10t1 4.5t2 3.5t4.5 8l12 13q9 14 12.5 20t7.5 9q3 4 10 8.5t25 18.5
q24 15 49.5 24.5t48.5 9.5q6 0 12 0.5t11 0.5q14 0 25 -4t22 -18q-1 -11 -4.5 -22t-8.5 -19q-15 -21 -28 -38t-27.5 -31t-32 -26.5t-41.5 -25.5l-17 -3l-26 2l-9 4v18l-3 3l-7 -2q-11 -5 -18 -12.5t-7 -14.5q8 -8 12 -10t10 -2h10q11 -4 20 -4q14 0 26.5 6.5t26.5 12.5
q14 11 29 19t30 19q8 12 9 13l9 6l20 25q14 16 28.5 40t14.5 45zM623 520q0 1 -0.5 1.5t-0.5 1.5l-15 23q-15 22 -25 41t-16 45q-6 8 -7.5 10.5t-3.5 4.5q-1 1 -13 10q-4 0 -6.5 0.5t-4.5 0.5q-6 0 -7.5 -2t-1.5 -7q0 -3 0.5 -8t0.5 -12q2 -8 2.5 -11t1.5 -4.5t2.5 -3.5
t5.5 -7q4 -9 4.5 -8.5t7.5 -7.5q6 -11 19 -25.5t23 -21.5q6 -8 7 -8q1 -1 7 -5q8 -11 15 -11q5 0 5 4z" />
    <glyph glyph-name="otilde" unicode="&#xf5;" horiz-adv-x="192" 
d="M159 62q9 16 9 27q0 14 -14 26q-5 3 -12 3q-8 0 -17.5 -4.5t-14.5 -12.5l-8 -2l-11 3q-29 -4 -52 -18t-46 -31q-2 -2 -2 -5l1 -2q4 0 11.5 5t13.5 8q10 4 12.5 5.5t4.5 1.5q4 0 8 -2l-2 -7q-5 -6 -7 -8.5t-2.5 -4t-1 -4t-2.5 -8.5q-5 -10 -5 -18q0 -10 7.5 -14.5
t19.5 -9.5l13.5 -1.5t6.5 -0.5t3.5 1.5l6.5 6.5l9 2q0 -1 6 6q8 3 11 4t4.5 2.5t4.5 5.5t11 12l15 11q8 -1 11.5 -2t7.5 -1q5 0 23 7q9 5 17 12t8 9q0 1 -2 1q-6 0 -16 -5l-23 -4zM61 32q2 10 5 17t6.5 12.5t8.5 10.5l12 12q5 5 5.5 6.5t2.5 1.5l6 -2q3 -8 3 -12
q0 -3 1 -5.5t4 -5.5t11 -10l-1 -11q-15 -15 -21.5 -21t-17.5 -6q-7 0 -22 3zM113 207l-6 -3l-17 -14v-3l1 -2l5 2q11 11 17 13.5t15 2.5q7 0 12 -4.5t10 -9.5q5 -6 12.5 -10.5t18.5 -4.5t17.5 3.5t18.5 7.5q11 8 15 10.5t13 11.5l1 2q0 2 -3 2l-2 -2l-5 -6l-7 -2
q-2 -2 -8.5 -3.5t-10.5 -1.5q-10 0 -14 4.5t-8 10.5q-5 5 -11 9.5t-21 4.5q-12 0 -17.5 -2.5t-19.5 -10.5z" />
    <glyph glyph-name="Ntilde" unicode="&#xd1;" horiz-adv-x="653" 
d="M384 477l-8 -3q-32 -10 -58 -23.5t-49 -30t-45.5 -36.5t-48.5 -43l-24 -45l-5 -15q-6 -17 -6 -28q0 -23 12.5 -33t25.5 -10q11 0 27.5 4.5t32 13.5t26.5 21t11 27q0 6 -6 6q-16 0 -23.5 -5.5t-13 -13.5t-11 -16.5t-17.5 -13.5q-11 -3 -17 -3q-11 0 -16 6.5t-10 18.5
q1 18 9.5 36t22 35t30.5 33.5t35 32.5l68 44q7 3 10 3.5t5 2t5.5 4t12.5 8.5q5 1 12 1q10 0 15.5 -2t8.5 -7t4.5 -13t3.5 -20v-17q-1 -11 -1 -22q0 -10 -2 -21l-4 -23l-117 -125q-16 -22 -26 -35t-18.5 -25.5t-17.5 -27.5t-22 -40l-20 -38l-11 -20l-2 -21l-4 -16
q2 -10 5 -15t7.5 -7.5t10.5 -3.5t15 -3q15 8 20 11.5t8.5 5.5t9 5.5t19.5 11.5q16 9 22 12.5t10 7t10.5 11t24.5 25.5q20 16 32 36t20 44q5 6 7.5 8t3.5 3.5t1.5 3.5t1.5 8q6 16 10.5 26t7.5 17t5.5 13.5t6.5 15.5q3 9 4.5 12t2 5t1 4.5t2.5 9.5q3 12 4.5 16.5l2.5 7.5
t2.5 8.5t4.5 20.5l11 51l14 15l9 13l65 51q7 1 9 1.5t4.5 2l7.5 4.5t18 9q9 5 16.5 10.5t13.5 5.5q10 0 14 -19q4 -20 13.5 -26t24.5 -13v-5l-31 -32l-64 -81q-20 -25 -38 -57.5t-33 -61.5q-11 -34 -20.5 -66t-9.5 -61q0 -24 8 -41q9 -16 17 -22t19 -6t26 4q17 7 31 15
t30 15q9 5 12 6.5t5 3t4 3.5t8 7l11 8q5 3 12.5 8.5t7.5 8.5q0 2 -4 2h-4l-11 -8q-11 -6 -20.5 -11.5t-18.5 -13.5q-11 -5 -15 -7t-6.5 -3t-6 -2.5t-12.5 -4.5q-14 1 -21.5 9.5t-11.5 19.5t-5 24t-1 24l5 32l4 6l15 48l4 12t2 5t2.5 6t6.5 13l27 46h-2l7 12q4 11 5 14.5
t4.5 7t10.5 11t23 27.5l10 20q3 4 9 10.5t24 29.5l17 17l14 1q18 1 29.5 1.5t21 4t18 10.5t19.5 21l2 11q-6 8 -15.5 8.5t-18.5 1.5q-18 -8 -26 -10.5t-13.5 -4.5t-12 -5.5t-20.5 -12.5q-3 -1 -5 -1q-1 0 -1.5 3.5t-5.5 7.5q-8 14 -12 22.5t-8.5 13t-12 7.5t-21.5 7
q-16 -3 -27.5 -7.5t-21.5 -10t-20.5 -12.5t-23.5 -14q-11 -6 -15 -7.5t-7 -4t-7.5 -6.5t-16.5 -14l-21 -17h-2q-4 -1 -4.5 2t-2.5 5q2 5 2.5 6.5t0.5 3.5q0 -1 -3 7q-7 35 -18 48t-40 13h-13zM380 272l-17 -60l-7 -17l-2 -11l-16 -39l-17 -47q-16 -27 -30 -45t-27 -31.5
t-26 -23.5t-28 -21l-12 -1q-8 4 -11 7t-3 8q0 3 0.5 6t1.5 8q2 6 3 8t1.5 3.5t0.5 3.5v9q7 13 10 17.5t5 7t4.5 6t8.5 12.5q19 38 38 67.5t47 63.5l47 56l9 6l19 17h1v-10zM735 603q0 2 -2 2q-3 0 -5 -2q-4 -4 -5 -5.5t-2 -2t-3 -1t-7 -1.5q-3 -2 -12 -4.5t-14 -2.5
q-14 0 -20 5.5t-12 12.5q-5 7 -14 12.5t-30 5.5q-17 0 -25 -3.5t-27 -12.5l-9 -6q-2 -1 -3 -1t-6 -2l-22 -18q-1 -1 -1 -3t2 -2q4 0 7 2q16 13 24 16.5t20 3.5q10 0 16.5 -5.5t14.5 -11.5q8 -7 18 -12.5t26 -5.5q14 0 24 4t27 9q7 4 12 7t8.5 5.5t8 5.5t10.5 8q1 1 1 3z" />
    <glyph glyph-name="Uacute" unicode="&#xda;" horiz-adv-x="564" 
d="M410 505q-9 -37 -24 -70t-33 -67q-6 -11 -11.5 -20.5t-12.5 -19.5t-16.5 -22t-23.5 -28t-21.5 -24t-12 -13t-7 -8.5t-7 -8.5t-12 -13.5t-21.5 -24.5l-14 -7q-14 -4 -19 -5t-8.5 -2.5t-8 -5.5t-17.5 -13q0 -2 -0.5 -4t-0.5 -4q0 -5 7 -8l14 6q5 -4 4 -4l6 -10
q4 -17 4.5 -20.5t0.5 -8.5v-17v-9q0 -2 1 -6t2 -11.5l3 -22.5q3 -9 3.5 -12.5t2 -6t4.5 -6t11 -12.5q14 -6 20.5 -8.5t12.5 -2.5q5 0 10.5 1t13.5 3l39 17l12 8q9 4 12 5t6 3t8.5 6t20.5 13q10 5 13 5q2 0 5 -11l6 -31v-3l10 -15q18 -11 32 -11q11 0 21.5 4t24.5 10
q11 7 15 9l6 3q2 2 13 6q9 5 12.5 7t5.5 3t4 3l8 8l10 7q5 3 12.5 8.5t7.5 8.5q0 2 -5 2q-2 0 -7 -2.5t-10 -6t-9 -6.5t-5 -3q-11 -7 -21.5 -11t-22.5 -10q-13 -5 -23 -5q-16 0 -27 10t-11 42v1l-1 23q5 15 6.5 20.5t4 9t9 9.5t20.5 21q15 16 20.5 21t9.5 9.5t10 13t23 29.5
q15 19 20.5 26t9.5 11.5t8.5 10.5t16.5 23l15 22q8 7 11 9.5t4.5 5t3 6t5.5 13.5q9 14 13 19t6 8.5t6 10t13 22.5q9 15 12 20.5t5 9t5 8t12 17.5q4 9 6.5 12t3.5 5t1.5 5t1.5 11q3 9 8 22.5t5 27.5q0 11 -4 19q-3 0 -6 0.5t-5 0.5q-19 0 -34.5 -11t-32.5 -21
q-38 -32 -60 -53.5t-37.5 -42t-29.5 -44.5t-36 -61q-16 -27 -33.5 -69t-37.5 -93q-6 -15 -10.5 -34t-6.5 -31q-5 -15 -6 -20.5t-3.5 -9t-8 -9t-18.5 -20.5q-19 -11 -34.5 -19.5t-36.5 -8.5q-12 0 -22 7q-8 10 -12.5 17t-7 14t-3.5 15t-2 19v49q-2 9 -2.5 12t-1.5 5.5t-3 5
t-6 9.5v6l7 6l40 39q22 27 31.5 37t14.5 16t12 14t25 31l22 27l24.5 31.5t18.5 27t15 28t15 34.5q7 16 12 30.5t7 30.5q1 6 1 11v9q0 11 -5 18.5t-20 21.5q-9 2 -11.5 3t-4.5 1h-4q-1 0 -6 -2q-9 -3 -14.5 -5t-12.5 -6t-17 -10.5t-29 -17.5q-32 -24 -50 -38.5t-32 -28
t-29 -30.5t-40 -45l-20 -35q-7 -10 -9 -13.5t-3.5 -7t-4 -10.5t-8.5 -23l-4 -37l2 -5q1 0 7 -4l10.5 -1.5t5.5 -0.5q4 0 7 3t16 12q10 3 13.5 4t6.5 3t8 7t18 16l5 12q1 2 1 5q0 4 -2 4q-3 0 -7 -8q-12 -13 -18 -17t-19 -12q-6 -2 -11 -4t-10 -2q-4 0 -6 3t-2 13q2 14 2 19
q0 6 1 9t3 6.5t8 12.5q1 5 2 7l1.5 3t2.5 3t6 8q10 17 13 22.5t6 9.5t7.5 8t16.5 16q11 15 21 28t27 23q15 14 30 26t32 25l28 18q13 7 21 7q19 0 19 -51v-7zM452 155l-4 -2q-2 0 -2 3q0 4 2.5 11t5.5 13.5t5.5 12t2.5 6.5q2 6 2.5 8t1 3.5t1.5 5t5 12.5l21 46
q20 43 42 83.5t52 77.5l31 38l35 45q8 11 15 15t12 4q9 0 9 -8l-5 -19l-5 -16l-3 -11q-2 -13 -2.5 -17t-2.5 -8t-7 -12t-15 -29q-9 -14 -12.5 -19t-5.5 -9t-5 -10.5t-11 -24.5q-15 -13 -20 -17t-8.5 -8.5t-9.5 -14t-22 -32.5q-12 -22 -19.5 -33.5t-15.5 -19.5t-18 -17.5
t-25 -27.5zM673 705q0 1 -2 1q-5 0 -9 -2q-5 -2 -7 -3.5t-3 -2.5t-3.5 -2t-8.5 -4l-15 -8q-6 -4 -17 -9t-22.5 -9.5t-22.5 -7.5t-18 -3q-10 -1 -15 -9t-5 -20q0 -6 1 -9q7 -12 13 -12q3 0 8 2t13 6l12 5q11 5 18 10.5t16 12.5q12 8 21 17.5t19 20.5l8 5l5 4l9.5 9.5t4.5 7.5
z" />
    <glyph glyph-name="Acircumflex" unicode="&#xc2;" horiz-adv-x="545" 
d="M631 386l-5 7l-4 1l-25 -8q-23 0 -31 5t-16 25q4 9 5.5 12t2.5 6t2 10t4 24q-3 15 -5.5 25t-7.5 16t-14 10t-26 8q-21 -2 -32.5 -4.5t-20.5 -6t-19 -9.5t-28 -16q-46 -21 -79 -50t-73 -65q-42 -50 -79 -100t-69 -107q-12 -22 -19.5 -39.5t-12 -34t-7.5 -34.5l-7 -42
q2 -11 5 -16.5t7.5 -8t10.5 -2.5q7 0 16 -1q33 5 69 27.5t68 51.5q11 8 15 11t7 5.5t8.5 7t19.5 15.5q14 7 18.5 10t8.5 6t10.5 9t23.5 20q22 19 35 29.5t20.5 16.5t12 10.5t9.5 10.5t14 16.5t25 29.5l34 40l30 39l10 14q5 1 12 1q6 0 6 -3q0 -1 -4 -9l-35 -44
q-31 -40 -56.5 -83t-50.5 -88q-8 -19 -11 -26t-4.5 -11.5t-3 -10.5t-4.5 -24q-6 -17 -6 -28q0 -17 12 -25.5t37 -13.5h20l12 8l16 3q3 1 8.5 5t12 8.5t12.5 9t9 6.5l11 7q12 9 17 13t5 6l-1 1q-7 0 -21 -9l-17 -10q-10 -6 -16.5 -9.5t-12.5 -5.5t-13 -3.5t-17 -3.5l-18 14
q-5 13 -5 23q0 14 6 27.5t12 28.5l14 34q26 43 53 85t54 85l27 28q17 8 22.5 13.5t6.5 26.5zM547 469q0 -2 -2 -7t-5 -16l-1 -24q-10 -13 -18.5 -22.5t-18 -17.5t-20 -15t-23.5 -14q-7 -4 -7 -7t13 -7q10 4 13.5 5.5t5.5 3l6 4.5t14 10q6 7 10 7t4 -5q0 -4 -1 -6l-16 -24
t-8.5 -11.5t-12.5 -15t-27 -33.5q-19 -18 -29.5 -27.5t-16.5 -15.5l-10 -10t-10.5 -11t-17.5 -18t-30 -31q-38 -29 -73.5 -56t-76.5 -51l-33 -12q-11 -3 -16 -3q-6 0 -7.5 2.5t-1.5 7.5q0 4 0.5 9t0.5 11l9 37q4 17 6 23.5t4 11t7 11t16 24.5q2 20 14.5 34t23.5 31
q15 24 18.5 33t7.5 12q11 7 18.5 15t14.5 24q2 2 4.5 5t7.5 8t13 14.5t20 25.5l22 20q15 14 23.5 21.5t13.5 12.5t8.5 7.5t9.5 6.5t16 10.5t28 18.5q17 7 32 15t32 16q11 -3 16 -3.5t7 -1.5t4.5 -2.5t8.5 -6.5q5 -11 7.5 -15.5t2.5 -7.5zM622 679q0 8 -7 8q-6 0 -10.5 -0.5
t-9.5 -3.5q-16 -6 -31.5 -16t-29.5 -19q-11 -11 -26 -19.5t-29 -21.5q-11 -11 -15 -14t-6 -5q-2 -1 -3 -3.5t-6 -5.5q-2 -2 -8.5 -8t-6.5 -11q0 -2 4 -2q8 1 18 7.5t15 11.5q16 14 34 27.5t34 27.5q8 4 9 5.5t10 7.5q3 2 7.5 6.5t9.5 4.5q3 0 4 -0.5t1 -5.5l-2 -3
q-3 -10 -8.5 -22.5t-5.5 -22.5q0 -2 1 -4.5t5 -13.5q5 -4 13 -11t15 -7q2 0 5 3q2 5 3.5 20t1.5 32q0 3 0.5 6t1.5 7q3 5 4 6.5t1 2.5v5t1 11q3 6 4.5 10t1.5 10z" />
    <glyph glyph-name="ocircumflex" unicode="&#xf4;" horiz-adv-x="192" 
d="M159 62q9 16 9 27q0 14 -14 26q-5 3 -12 3q-8 0 -17.5 -4.5t-14.5 -12.5l-8 -2l-11 3q-29 -4 -52 -18t-46 -31q-2 -2 -2 -5l1 -2q4 0 11.5 5t13.5 8q10 4 12.5 5.5t4.5 1.5q4 0 8 -2l-2 -7q-5 -6 -7 -8.5t-2.5 -4t-1 -4t-2.5 -8.5q-5 -10 -5 -18q0 -10 7.5 -14.5
t19.5 -9.5l13.5 -1.5t6.5 -0.5t3.5 1.5l6.5 6.5l9 2q0 -1 6 6q8 3 11 4t4.5 2.5t4.5 5.5t11 12l15 11q8 -1 11.5 -2t7.5 -1q5 0 23 7q9 5 17 12t8 9q0 1 -2 1q-6 0 -16 -5l-23 -4zM61 32q2 10 5 17t6.5 12.5t8.5 10.5l12 12q5 5 5.5 6.5t2.5 1.5l6 -2q3 -8 3 -12
q0 -3 1 -5.5t4 -5.5t11 -10l-1 -11q-15 -15 -21.5 -21t-17.5 -6q-7 0 -22 3zM84 155q5 1 13 5.5t12 8.5q12 11 25.5 21t25.5 20q6 3 6.5 4t7.5 6q2 2 5.5 5t7.5 3t3 -4l-1 -3q-2 -7 -6 -16t-4 -17q0 -5 4 -13q3 -3 9.5 -9t11.5 -6q3 0 3 3q2 3 3.5 14.5t1.5 24.5q0 6 1 10
q4 7 3.5 7.5t1.5 11.5l3 7.5t1 6.5q0 7 -5 7q-11 0 -15 -3q-12 -5 -23.5 -12t-22.5 -15q-8 -8 -19 -14t-22 -16q-9 -8 -11.5 -10.5t-4.5 -3.5q-2 -2 -2.5 -3.5t-4.5 -3.5q-2 -2 -7 -6t-4 -9z" />
    <glyph glyph-name="ydieresis" unicode="&#xff;" horiz-adv-x="252" 
d="M160 6v4q8 9 13.5 16.5t11.5 20.5l10 14l1 9l8 9l1 8l10 16q0 9 -3 9q-2 0 -10 1l-10 -4q-11 -10 -14.5 -14t-7.5 -7.5t-11.5 -9t-25.5 -18.5q-18 -9 -23.5 -11.5t-8.5 -3.5q-2 -1 -6 -1q-3 0 -11 -2q-5 3 -5 8q0 3 2 7t4 10l22 34l2 7l-1 4h-4q-7 0 -12.5 -2t-10.5 -3
l-26 -15l-21 -12l-17 -11q-14 -7 -20 -12t-6 -8q0 -2 3 -2h2l24 10l21 7l5 -3v-2q-14 -31 -14 -41q0 -11 18 -11q15 0 22 3.5t21 11.5l43 23l12 3l2 -3v-3l-7 -9l-7 -19q-9 -15 -17.5 -29.5t-16.5 -30.5l-15 -20l-12 -5q-34 -29 -53.5 -45t-31 -25.5t-18.5 -16t-17.5 -16.5
t-27.5 -27t-48 -47q-18 -29 -26 -40t-11.5 -16.5t-5.5 -11.5t-8 -25q-2 -10 -2 -15q0 -29 28 -29q8 0 19 3q16 9 22.5 13t10 6l7 4t14.5 9l20 19l30 31l73 104l15 19l5 18l11 15l12 29l29 46q12 15 20 24t15.5 17t16.5 16.5t23 21.5q18 16 30 23t30 19q4 5 4 7t-2 2
q-3 0 -9.5 -3.5t-10.5 -5.5q-18 -13 -37 -26t-39 -23zM13 -206l-66 -96l-41 -37q-8 -5 -16.5 -10.5t-17.5 -5.5q-8 0 -15 5q0 6 -0.5 10t-0.5 7q0 8 2.5 13.5t9.5 28.5q10 12 14 17t5.5 9t4.5 9t12 17q12 10 22.5 17.5t19 14.5t16 15.5t15.5 20.5l36 28q14 11 28 23.5
t19 12.5l2 -2q0 -3 -4 -11.5t-15 -24.5l-14 -34zM239 232q0 9 -6 9q-3 0 -8 -3.5t-9 -7.5t-7 -7.5l-3 -3.5q-5 -9 -7 -12t-2 -8q0 -19 8 -19q5 0 10 3.5t10 6.5q5 10 9.5 20t4.5 22zM168 217q-1 5 -3 11.5t-10 6.5q-7 0 -14 -12.5t-9 -16.5q-3 -11 -3 -17q0 -9 17 -12
q7 4 11 7t5.5 6.5t2.5 9.5t3 17z" />
    <glyph glyph-name="Eacute" unicode="&#xc9;" horiz-adv-x="405" 
d="M604 457q0 11 -6 19.5t-20 13.5l-61 -2l-15 -2l-60 -22q-60 -29 -104 -64.5t-72 -90.5q-3 -13 -4 -18.5t-2 -9.5q-1 -3 -2.5 -7t-4 -11.5t-7 -20t-10.5 -32.5q-4 -6 -8.5 -11t-8.5 -8l-32 -13q-14 -6 -29.5 -13.5t-29 -15.5t-23 -15t-10.5 -12q-7 0 -15 -6t-15.5 -15.5
t-14.5 -21.5t-11 -24q-2 -25 2 -31q-1 -6 5.5 -11.5t15.5 -13.5l10.5 -10.5t9.5 -4.5q4 -7 18.5 -10t25.5 -6l19 -5l31 -3q29 3 53.5 7t48 11.5t47.5 19.5t51 31l10 7q5 3 13 9t8 9q0 2 -4 2q-2 0 -4 -1l-12 -8l-17 -10q-30 -17 -49 -26t-34 -14t-29 -7.5t-35 -6.5l-46 1
q-21 5 -43 24t-27 55q10 42 42.5 72t74.5 44l16.5 5.5l7.5 2.5t6.5 3t12.5 8l8 6q6 9 7.5 12.5t3.5 5.5q1 2 6 4t6 6q8 24 11 33.5t5 14.5t5 11t11 23q1 7 1.5 10t1.5 5t3 5t7 12q2 7 2.5 10t1 4.5t2 3.5t4.5 8l12 13q9 14 12.5 20t7.5 9q3 4 10 8.5t25 18.5
q24 15 49.5 24.5t48.5 9.5q6 0 12 0.5t11 0.5q14 0 25 -4t22 -18q-1 -11 -4.5 -22t-8.5 -19q-15 -21 -28 -38t-27.5 -31t-32 -26.5t-41.5 -25.5l-17 -3l-26 2l-9 4v18l-3 3l-7 -2q-11 -5 -18 -12.5t-7 -14.5q8 -8 12 -10t10 -2h10q11 -4 20 -4q14 0 26.5 6.5t26.5 12.5
q14 11 29 19t30 19q8 12 9 13l9 6l20 25q14 16 28.5 40t14.5 45zM663 630q0 1 -2 1q-5 0 -9 -2q-5 -2 -7 -3.5t-3 -2.5t-3.5 -2t-8.5 -4l-15 -8q-6 -4 -17 -9t-22.5 -9.5t-22.5 -7.5t-18 -3q-10 -1 -15 -9t-5 -20q0 -6 1 -9q7 -12 13 -12q3 0 8 2t13 6l12 5q11 5 18 10.5
t16 12.5q12 8 21 17.5t19 20.5l8 5l5 4l9.5 9.5t4.5 7.5z" />
    <glyph glyph-name="Ograve" unicode="&#xd2;" horiz-adv-x="454" 
d="M529 480q-27 0 -43.5 -2.5t-30.5 -8t-29.5 -15t-39.5 -23.5q-24 -18 -33 -25t-15 -11.5t-14 -12.5t-30 -28h-12q-20 8 -32 20t-12 26q0 4 -1 10.5t0 12.5q10 25 29.5 36.5t38.5 18.5q1 1 5.5 0.5t5.5 -0.5q2 0 3.5 -0.5t2.5 -0.5q2 0 3 -0.5t5 -0.5q16 0 16 9
q0 5 -11.5 6.5t-19.5 1.5t-19 -3.5t-23 -8.5t-22.5 -11.5t-16.5 -13.5q-7 -7 -16.5 -13t-9.5 -16q-8 -8 -9.5 -17t-1.5 -19q0 -12 10.5 -26.5t21.5 -17.5q12 -5 19.5 -7t12 -3.5t7 -4t3.5 -8.5q-20 -28 -26 -40l-12 -24q-5 -9 -15.5 -23t-29.5 -48q-7 -18 -15.5 -35.5
t-10.5 -31.5q-7 -13 -8.5 -25.5t-3.5 -26.5l3 -56l7 -15q5 -23 25.5 -31.5t41.5 -8.5q12 0 20 1.5t16 4.5t17.5 7.5t23.5 10.5q21 10 35 18.5t25.5 18.5t23 21.5t27.5 26.5q7 7 10 9t5 4.5t5.5 6.5t12.5 14q10 13 12.5 18t3 8t3 7.5t11.5 17.5q9 16 13 23t7 12t6.5 11
t10.5 21l12 24q6 23 9 37.5t3 29.5q0 13 -6 34q-4 12 -8 12q-3 0 -5 -7t-3 -12l4 -9q-1 -25 -3.5 -39.5t-8.5 -37.5q-3 -9 -9 -25t-15 -32q-12 -17 -21.5 -41t-19.5 -38q-11 -14 -33.5 -35t-45.5 -43q-7 -2 -13 -7.5t-14.5 -12.5t-20.5 -14t-30 -11q-6 -3 -17 -5.5t-26 -2.5
q-13 0 -21.5 13t-13.5 24q-2 11 -3.5 23.5t-1.5 25.5q0 15 2 29.5t5 26.5q6 10 8 14t3 6.5t2.5 7t4.5 16.5q11 22 21.5 44t21.5 45q9 10 12 14t5 7t4.5 9t9.5 20l15 14q18 0 22.5 -3t8.5 -3q3 0 6 1t11 4q21 4 29.5 4.5t12.5 1t6.5 2t11.5 6.5q10 1 14.5 1.5t7 1.5t5.5 2.5
t11 6.5q10 3 14 4t7 2.5t8 4.5t19 9q8 7 10.5 9t4.5 4t15 7q14 14 24.5 27.5t10.5 27.5q0 20 -31 36h-17zM556 436q0 -14 -13 -28q-19 -17 -34.5 -27t-31 -16.5t-34.5 -12t-46 -12.5q-9 0 -13.5 -0.5t-7.5 -0.5q-5 0 -13 -1t-28 2q-3 1 -3 5q0 5 9 12.5t10 7.5q6 6 8.5 8
t4.5 3.5t5 5t12 11.5q26 17 46.5 34.5t51.5 26.5q17 5 24 7t12 2q20 0 30.5 -7.5t10.5 -19.5zM567 504q0 1 -0.5 1.5t-0.5 1.5l-15 23q-15 22 -25 41t-16 45q-6 8 -7.5 10.5t-3.5 4.5t-4.5 3.5t-8.5 6.5q-4 0 -6.5 0.5t-4.5 0.5q-6 0 -7.5 -2t-1.5 -7q0 -3 0.5 -8t0.5 -12
q2 -8 2.5 -11t1.5 -4.5t2.5 -3.5t5.5 -7q4 -9 4.5 -8.5t7.5 -7.5q6 -11 19 -25.5t23 -21.5q6 -8 7 -8q1 -1 7 -5q8 -11 15 -11q5 0 5 4z" />
    <glyph glyph-name="acircumflex" unicode="&#xe2;" horiz-adv-x="240" 
d="M144 38q-5 -14 -7.5 -15.5t-2.5 -9.5q0 -7 6 -17l10 -4q8 2 10.5 2.5t4.5 1.5t4.5 2.5t9.5 5.5q9 6 12.5 8.5t6 4.5t6.5 4.5t15 10.5l11 7l17 13q4 7 4 9t-2 2q-4 0 -11.5 -4.5t-11.5 -6.5q-8 -5 -11 -7t-4.5 -3.5t-4 -3t-9.5 -5.5q-7 -3 -10.5 -5.5t-6.5 -2.5q-2 0 -3 3
t-1 4q0 9 7 20.5t9 16.5q2 4 3 9t1 7q0 5 -2 6.5l-6 4.5q-8 0 -12 1t-6 1q-2 5 -6.5 11.5t-15.5 6.5q-6 0 -14.5 -3t-8.5 -11q0 -9 4.5 -12.5t10 -5.5t10 -3.5t4.5 -5.5t-4.5 -9.5t-10 -11t-10.5 -10t-7 -6.5q-11 -10 -20 -13t-17 -3q-8 5 -8 6t-1 12q3 13 10.5 22.5
t15 15.5t13.5 10t6 8q0 6 -4 8.5t-9 2.5q-22 0 -44 -10.5t-43 -23.5q-9 -6 -21.5 -13.5t-12.5 -11.5q0 -2 6 -2l22 11l19 9l11 5q2 -1 5 -1t3 -3q0 -14 -8.5 -28t-8.5 -28q0 -16 5 -17.5t16 -2.5l20 9q13 7 21 12.5t14.5 9.5t12.5 8.5l14 10.5l5 3l1 -2zM104 155q5 1 13 5.5
t12 8.5q12 11 25.5 21t25.5 20q6 3 6.5 4t7.5 6q2 2 5.5 5t7.5 3t3 -4l-1 -3q-2 -7 -6 -16t-4 -17q0 -5 4 -13q3 -3 9.5 -9t11.5 -6q3 0 3 3q2 3 3.5 14.5t1.5 24.5q0 6 1 10q4 7 3.5 7.5t1.5 11.5l3 7.5t1 6.5q0 7 -5 7q-11 0 -15 -3q-12 -5 -23.5 -12t-22.5 -15
q-8 -8 -19 -14t-22 -16q-9 -8 -11.5 -10.5t-4.5 -3.5q-2 -2 -2.5 -3.5t-4.5 -3.5q-2 -2 -7 -6t-4 -9z" />
    <glyph glyph-name="divide" unicode="&#xf7;" horiz-adv-x="265" 
d="M197 196q0 7 -4.5 10.5t-9.5 3.5t-10.5 -2.5t-10.5 -4.5q-11 -9 -13 -18t-3 -23q3 -4 7.5 -7t7.5 -3q6 0 11.5 5t10 12.5t8.5 14.5t6 12zM271 83q-1 8 -11.5 10.5t-16.5 4.5q-28 3 -48 5t-37 2q-27 0 -51.5 -6t-62.5 -20l-33 -12q-15 -10 -15 -15q0 -2 4 -2q10 0 18 7
l23 8q32 12 55.5 16t46.5 4q17 0 35 -1t42 -2q6 -2 14.5 -4t17.5 -2q13 0 19 7zM145 -9q0 2 -2.5 7t-6.5 10.5t-8.5 10t-8.5 4.5q-8 0 -21 -4t-13 -16q0 -8 11 -19t19 -11q6 0 18 5.5t12 12.5z" />
    <glyph glyph-name="ccedilla" unicode="&#xe7;" horiz-adv-x="154" 
d="M107 32q-14 -8 -21 -11t-17 -3q-19 0 -19 19l2 11l3 11q4 11 16 26t27 15q5 0 6 -2.5t1 -6.5t-1 -7l-5 -9l3 -4q11 0 15 10t8 18q0 11 -4.5 14t-11.5 4q-8 0 -20.5 -7t-24.5 -17q-17 -14 -33.5 -29.5t-16.5 -38.5v-1q0 -8 2 -14t11 -11l10 -2l9 -3q-6 -2 -10.5 -4
t-9.5 -7q-4 -5 -4 -9t1 -7q8 -8 16.5 -13t8.5 -13q0 -5 -5 -11l-13.5 -6t-7.5 -2q-7 0 -10 5.5t-10 5.5q-11 0 -16 -10q9 -12 26 -12q13 0 19 5q15 4 26.5 12.5t22.5 19.5q-2 6 -3.5 8.5t-8.5 7.5q-8 8 -11.5 10.5t-3.5 7.5q0 4 1 7l7 8q12 2 19.5 6t21.5 12l19 12l25 16
l13 10q6 6 6 8q0 1 -2 1t-7.5 -2.5t-11.5 -7.5z" />
    <glyph glyph-name="ugrave" unicode="&#xf9;" horiz-adv-x="253" 
d="M67 67l-1 -3l-22 -45l-8 -16l-1 -8l4 -5h23q26 10 44.5 24t40.5 31q3 0 4.5 -0.5t1.5 -5.5l-7 -8l-4 -13q-3 -6 -5.5 -9.5t-2.5 -7.5q0 -5 4 -10q5 -2 8 -2h6q8 0 14 2.5t15 7.5q16 10 31 19.5t29 20.5l19 14q6 7 6 9q0 1 -2 1q-3 0 -11.5 -4.5t-10.5 -6.5l-31 -21
l-22 -11l-10 -1q-1 2 -1 5q0 11 8 23.5t12 19.5q7 13 11.5 18t6 7.5t2 5t0.5 10.5l-2 3q-12 -2 -16.5 -4.5t-18.5 -13.5q-17 -17 -22.5 -23.5t-10.5 -10.5t-13.5 -10t-29.5 -22q-12 -3 -15 -3q-4 0 -4 8v4l18 38l12 18l6 16q1 2 1 5q0 5 -8 5t-15 -3t-9 -4l-43 -21l-36 -23
q-21 -13 -21 -17q0 -3 6 -3l20 10q10 5 17 8t11.5 4.5t8.5 1.5h9zM167 160q2 -2 6 -4q6 -9 13 -9q4 0 4 3q0 1 -0.5 1.5t-0.5 1.5l-13 19q-13 19 -21.5 35t-13.5 38q-5 7 -6 9.5t-3 3.5q-2 2 -4 3t-7 5q-4 1 -9 1q-8 0 -8 -7q0 -3 0.5 -7t0.5 -10q2 -6 2.5 -8.5t1 -4t2 -3.5
l4.5 -6q2 -4 2.5 -5.5t1.5 -2t2 -2t4 -4.5q5 -9 16.5 -21.5t19.5 -18.5z" />
    <glyph glyph-name="Agrave" unicode="&#xc0;" horiz-adv-x="545" 
d="M631 386l-5 7l-4 1l-25 -8q-23 0 -31 5t-16 25q4 9 5.5 12t2.5 6t2 10t4 24q-3 15 -5.5 25t-7.5 16t-14 10t-26 8q-21 -2 -32.5 -4.5t-20.5 -6t-19 -9.5t-28 -16q-46 -21 -79 -50t-73 -65q-42 -50 -79 -100t-69 -107q-12 -22 -19.5 -39.5t-12 -34t-7.5 -34.5l-7 -42
q2 -11 5 -16.5t7.5 -8t10.5 -2.5q7 0 16 -1q33 5 69 27.5t68 51.5q11 8 15 11t7 5.5t8.5 7t19.5 15.5q14 7 18.5 10t8.5 6t10.5 9t23.5 20q22 19 35 29.5t20.5 16.5t12 10.5t9.5 10.5t14 16.5t25 29.5l34 40l30 39l10 14q5 1 12 1q6 0 6 -3q0 -1 -4 -9l-35 -44
q-31 -40 -56.5 -83t-50.5 -88q-8 -19 -11 -26t-4.5 -11.5t-3 -10.5t-4.5 -24q-6 -17 -6 -28q0 -17 12 -25.5t37 -13.5h20l12 8l16 3q3 1 8.5 5t12 8.5t12.5 9t9 6.5l11 7q12 9 17 13t5 6l-1 1q-7 0 -21 -9l-17 -10q-10 -6 -16.5 -9.5t-12.5 -5.5t-13 -3.5t-17 -3.5l-18 14
q-5 13 -5 23q0 14 6 27.5t12 28.5l14 34q26 43 53 85t54 85l27 28q17 8 22.5 13.5t6.5 26.5zM547 469q0 -2 -2 -7t-5 -16l-1 -24q-10 -13 -18.5 -22.5t-18 -17.5t-20 -15t-23.5 -14q-7 -4 -7 -7t13 -7q10 4 13.5 5.5t5.5 3l6 4.5t14 10q6 7 10 7t4 -5q0 -4 -1 -6l-16 -24
t-8.5 -11.5t-12.5 -15t-27 -33.5q-19 -18 -29.5 -27.5t-16.5 -15.5l-10 -10t-10.5 -11t-17.5 -18t-30 -31q-38 -29 -73.5 -56t-76.5 -51l-33 -12q-11 -3 -16 -3q-6 0 -7.5 2.5t-1.5 7.5q0 4 0.5 9t0.5 11l9 37q4 17 6 23.5t4 11t7 11t16 24.5q2 20 14.5 34t23.5 31
q15 24 18.5 33t7.5 12q11 7 18.5 15t14.5 24q2 2 4.5 5t7.5 8t13 14.5t20 25.5l22 20q15 14 23.5 21.5t13.5 12.5t8.5 7.5t9.5 6.5t16 10.5t28 18.5q17 7 32 15t32 16q11 -3 16 -3.5t7 -1.5t4.5 -2.5t8.5 -6.5q5 -11 7.5 -15.5t2.5 -7.5zM573 548q0 1 -0.5 1.5t-0.5 1.5
l-15 23q-15 22 -25 41t-16 45q-6 8 -7.5 10.5t-3.5 4.5t-4.5 3.5t-8.5 6.5q-4 0 -6.5 0.5t-4.5 0.5q-6 0 -7.5 -2t-1.5 -7q0 -3 0.5 -8t0.5 -12q2 -8 2.5 -11t1.5 -4.5t2.5 -3.5t5.5 -7q4 -9 4.5 -8.5t7.5 -7.5q6 -11 19 -25.5t23 -21.5q6 -8 7 -8q1 -1 7 -5q8 -11 15 -11
q5 0 5 4z" />
    <glyph glyph-name="Ucircumflex" unicode="&#xdb;" horiz-adv-x="564" 
d="M410 505q-9 -37 -24 -70t-33 -67q-6 -11 -11.5 -20.5t-12.5 -19.5t-16.5 -22t-23.5 -28t-21.5 -24t-12 -13t-7 -8.5t-7 -8.5t-12 -13.5t-21.5 -24.5l-14 -7q-14 -4 -19 -5t-8.5 -2.5t-8 -5.5t-17.5 -13q0 -2 -0.5 -4t-0.5 -4q0 -5 7 -8l14 6q5 -4 4 -4l6 -10
q4 -17 4.5 -20.5t0.5 -8.5v-17v-9q0 -2 1 -6t2 -11.5l3 -22.5q3 -9 3.5 -12.5t2 -6t4.5 -6t11 -12.5q14 -6 20.5 -8.5t12.5 -2.5q5 0 10.5 1t13.5 3l39 17l12 8q9 4 12 5t6 3t8.5 6t20.5 13q10 5 13 5q2 0 5 -11l6 -31v-3l10 -15q18 -11 32 -11q11 0 21.5 4t24.5 10
q11 7 15 9l6 3q2 2 13 6q9 5 12.5 7t5.5 3t4 3l8 8l10 7q5 3 12.5 8.5t7.5 8.5q0 2 -5 2q-2 0 -7 -2.5t-10 -6t-9 -6.5t-5 -3q-11 -7 -21.5 -11t-22.5 -10q-13 -5 -23 -5q-16 0 -27 10t-11 42v1l-1 23q5 15 6.5 20.5t4 9t9 9.5t20.5 21q15 16 20.5 21t9.5 9.5t10 13t23 29.5
q15 19 20.5 26t9.5 11.5t8.5 10.5t16.5 23l15 22q8 7 11 9.5t4.5 5t3 6t5.5 13.5q9 14 13 19t6 8.5t6 10t13 22.5q9 15 12 20.5t5 9t5 8t12 17.5q4 9 6.5 12t3.5 5t1.5 5t1.5 11q3 9 8 22.5t5 27.5q0 11 -4 19q-3 0 -6 0.5t-5 0.5q-19 0 -34.5 -11t-32.5 -21
q-38 -32 -60 -53.5t-37.5 -42t-29.5 -44.5t-36 -61q-16 -27 -33.5 -69t-37.5 -93q-6 -15 -10.5 -34t-6.5 -31q-5 -15 -6 -20.5t-3.5 -9t-8 -9t-18.5 -20.5q-19 -11 -34.5 -19.5t-36.5 -8.5q-12 0 -22 7q-8 10 -12.5 17t-7 14t-3.5 15t-2 19v49q-2 9 -2.5 12t-1.5 5.5t-3 5
t-6 9.5v6l7 6l40 39q22 27 31.5 37t14.5 16t12 14t25 31l22 27l24.5 31.5t18.5 27t15 28t15 34.5q7 16 12 30.5t7 30.5q1 6 1 11v9q0 11 -5 18.5t-20 21.5q-9 2 -11.5 3t-4.5 1h-4q-1 0 -6 -2q-9 -3 -14.5 -5t-12.5 -6t-17 -10.5t-29 -17.5q-32 -24 -50 -38.5t-32 -28
t-29 -30.5t-40 -45l-20 -35q-7 -10 -9 -13.5t-3.5 -7t-4 -10.5t-8.5 -23l-4 -37l2 -5q1 0 7 -4l10.5 -1.5t5.5 -0.5q4 0 7 3t16 12q10 3 13.5 4t6.5 3t8 7t18 16l5 12q1 2 1 5q0 4 -2 4q-3 0 -7 -8q-12 -13 -18 -17t-19 -12q-6 -2 -11 -4t-10 -2q-4 0 -6 3t-2 13q2 14 2 19
q0 6 1 9t3 6.5t8 12.5q1 5 2 7l1.5 3t2.5 3t6 8q10 17 13 22.5t6 9.5t7.5 8t16.5 16q11 15 21 28t27 23q15 14 30 26t32 25l28 18q13 7 21 7q19 0 19 -51v-7zM452 155l-4 -2q-2 0 -2 3q0 4 2.5 11t5.5 13.5t5.5 12t2.5 6.5q2 6 2.5 8t1 3.5t1.5 5t5 12.5l21 46
q20 43 42 83.5t52 77.5l31 38l35 45q8 11 15 15t12 4q9 0 9 -8l-5 -19l-5 -16l-3 -11q-2 -13 -2.5 -17t-2.5 -8t-7 -12t-15 -29q-9 -14 -12.5 -19t-5.5 -9t-5 -10.5t-11 -24.5q-15 -13 -20 -17t-8.5 -8.5t-9.5 -14t-22 -32.5q-12 -22 -19.5 -33.5t-15.5 -19.5t-18 -17.5
t-25 -27.5zM683 725q0 8 -7 8q-6 0 -10.5 -0.5t-9.5 -3.5q-16 -6 -31.5 -16t-29.5 -19q-11 -11 -26 -19.5t-29 -21.5q-11 -11 -15 -14t-6 -5q-2 -1 -3 -3.5t-6 -5.5q-2 -2 -8.5 -8t-6.5 -11q0 -2 4 -2q8 1 18 7.5t15 11.5q16 14 34 27.5t34 27.5q8 4 9 5.5t10 7.5
q3 2 7.5 6.5t9.5 4.5q3 0 4 -0.5t1 -5.5l-2 -3q-3 -10 -8.5 -22.5t-5.5 -22.5q0 -2 1 -4.5t5 -13.5q5 -4 13 -11t15 -7q2 0 5 3q2 5 3.5 20t1.5 32q0 3 0.5 6t1.5 7q3 5 4 6.5t1 2.5v5t1 11q3 6 4.5 10t1.5 10z" />
    <glyph glyph-name="Ydieresis" unicode="&#x178;" horiz-adv-x="571" 
d="M699 397q0 8 -4 12.5t-19 6.5q-18 -6 -32 -16t-29 -22q-18 -18 -30 -37t-20 -39q-17 -17 -31.5 -43t-29.5 -55q-6 -11 -9 -18t-18 -16q-13 -15 -17 -20.5t-9.5 -10t-18 -13t-43.5 -30.5l-85 -59l-36 -20q-5 -1 -12 -1q-10 0 -10 14q2 12 2.5 16t1 7t2.5 8t6 17
q8 25 21.5 47t26.5 45q23 32 39 61t36 64q7 12 15.5 26t16.5 28.5t14 29t8 28.5q11 22 14 44t3 42q-5 16 -9 25t-9.5 14.5t-14 8.5t-21.5 6l-9 -2q-14 -4 -19.5 -5t-8.5 -2t-6.5 -3t-12.5 -6q-54 -33 -97.5 -74.5t-69.5 -88.5q-5 -12 -8.5 -20t-5.5 -14t-3 -11.5t-1 -12.5
v-14q0 -8 2 -11.5t12 -10.5q12 0 12 2q0 9 -8.5 15.5t-8.5 15.5q0 2 1 5t4 14q9 19 15 32t12.5 24t16 23t26.5 30l21 22l16 12t7.5 5.5t8.5 6.5t18 15q16 9 25 15t15.5 9t14 4.5t21.5 1.5q13 -11 14 -21t2 -25q-8 -37 -22.5 -71t-28.5 -69q-9 -17 -18 -36t-19 -31
q-8 -12 -16.5 -28t-17.5 -30q-14 -21 -22.5 -37.5t-15.5 -35.5q-10 -10 -16 -24.5t-11 -28.5q-7 -19 -11.5 -33.5t-4.5 -34.5q0 -17 8 -26.5t25 -9.5q3 0 7.5 1.5t18.5 4.5q12 5 20 9t14.5 8t13 9.5t16.5 13.5q16 10 23 13.5t10 5.5t5 5.5t9 12.5q7 1 16.5 7.5t19.5 15
t19 16.5t14 13q10 6 13.5 10t5.5 4q1 0 4 -7l-12 -28l-25 -56l-36 -73l-25 -46l-10 -24l-20 -18l-79 -70l-55 -53q-32 -32 -51 -54.5t-33 -40.5q-20 -12 -36 -40t-37 -68l-13 -32.5t-9 -21t-5.5 -15.5t-1.5 -16q0 -12 3 -36q8 -17 12.5 -24t12.5 -7t34 9l16 9l21 19
q5 3 7 4.5t3 2.5t2.5 4l4.5 9l19 22q4 11 7 14.5t15 12.5q5 6 7.5 8t3.5 3.5t1.5 3.5t1.5 8q6 7 8.5 9.5l4 4t2 3.5t3.5 8q9 4 18 15.5t17 24.5t14.5 25t10.5 18q12 19 19.5 29.5t12.5 27.5q10 8 17.5 22t17.5 34l39 77l36 84l41 39q17 18 34.5 32t38.5 25q6 4 8 5t3.5 2.5
t3.5 4t8 8.5l10 7q5 3 13 8.5t8 8.5q-2 2 -6 2q-5 0 -5 -1l-9 -7q-9 -5 -12 -7t-5 -3l-5 -2.5t-10 -5.5q-18 -13 -24.5 -18t-11 -8.5t-12 -10t-26.5 -22.5q-5 -2 -7 -3t-3 -1t-1 2v5t1 8q9 11 13.5 23t9.5 26l21 40q8 16 14 24t11 15t9 15t8 25q6 15 7.5 18t3 5t6.5 9t19 31
q10 11 17 23t23 21q7 11 20 22.5t24 22.5q7 10 6.5 11t5.5 3q13 16 19 22.5t8.5 10.5t5 9.5t9.5 21.5q1 5 1 9v9zM343 -132l-2 -4l-25 -57l-8 -16l-23 -48q-20 -42 -42 -77t-47 -73l-18 -28l-72 -104l-16 -15q-5 -2 -7 -2q-1 0 -1.5 -1t-3.5 -3.5t-11 -9.5q-7 0 -10.5 -0.5
t-5.5 -0.5q-7 0 -10 10.5t-3 23.5q0 20 5 28q4 10 5.5 13.5t2 5.5t1 4.5t1.5 10.5l33 66q5 11 11.5 19t17.5 24q9 12 12.5 18.5t6 10.5t5.5 8t10 12l33 37l15 18q11 8 17.5 13t11.5 10t10 11.5t13 16.5l61 53l21 20l10 6h2zM693 637q0 13 -8 13q-5 0 -12.5 -4.5t-14 -10
t-11.5 -10.5l-5 -5q-7 -12 -10.5 -16.5t-3.5 -11.5q0 -15 3.5 -20.5t9.5 -5.5q7 0 14.5 4.5t15.5 8.5q8 14 15 27.5t7 30.5zM583 617q-2 8 -4.5 16t-15.5 8q-5 0 -10.5 -5t-10.5 -12t-9 -13.5t-6 -9.5q-2 -7 -3 -12t-1 -10q0 -8 5.5 -11.5t20.5 -5.5q12 6 17.5 10t8.5 9
t4 13t4 23z" />
    <glyph glyph-name="Adieresis" unicode="&#xc4;" horiz-adv-x="545" 
d="M631 386l-5 7l-4 1l-25 -8q-23 0 -31 5t-16 25q4 9 5.5 12t2.5 6t2 10t4 24q-3 15 -5.5 25t-7.5 16t-14 10t-26 8q-21 -2 -32.5 -4.5t-20.5 -6t-19 -9.5t-28 -16q-46 -21 -79 -50t-73 -65q-42 -50 -79 -100t-69 -107q-12 -22 -19.5 -39.5t-12 -34t-7.5 -34.5l-7 -42
q2 -11 5 -16.5t7.5 -8t10.5 -2.5q7 0 16 -1q33 5 69 27.5t68 51.5q11 8 15 11t7 5.5t8.5 7t19.5 15.5q14 7 18.5 10t8.5 6t10.5 9t23.5 20q22 19 35 29.5t20.5 16.5t12 10.5t9.5 10.5t14 16.5t25 29.5l34 40l30 39l10 14q5 1 12 1q6 0 6 -3q0 -1 -4 -9l-35 -44
q-31 -40 -56.5 -83t-50.5 -88q-8 -19 -11 -26t-4.5 -11.5t-3 -10.5t-4.5 -24q-6 -17 -6 -28q0 -17 12 -25.5t37 -13.5h20l12 8l16 3q3 1 8.5 5t12 8.5t12.5 9t9 6.5l11 7q12 9 17 13t5 6l-1 1q-7 0 -21 -9l-17 -10q-10 -6 -16.5 -9.5t-12.5 -5.5t-13 -3.5t-17 -3.5l-18 14
q-5 13 -5 23q0 14 6 27.5t12 28.5l14 34q26 43 53 85t54 85l27 28q17 8 22.5 13.5t6.5 26.5zM547 469q0 -2 -2 -7t-5 -16l-1 -24q-10 -13 -18.5 -22.5t-18 -17.5t-20 -15t-23.5 -14q-7 -4 -7 -7t13 -7q10 4 13.5 5.5t5.5 3l6 4.5t14 10q6 7 10 7t4 -5q0 -4 -1 -6l-16 -24
t-8.5 -11.5t-12.5 -15t-27 -33.5q-19 -18 -29.5 -27.5t-16.5 -15.5l-10 -10t-10.5 -11t-17.5 -18t-30 -31q-38 -29 -73.5 -56t-76.5 -51l-33 -12q-11 -3 -16 -3q-6 0 -7.5 2.5t-1.5 7.5q0 4 0.5 9t0.5 11l9 37q4 17 6 23.5t4 11t7 11t16 24.5q2 20 14.5 34t23.5 31
q15 24 18.5 33t7.5 12q11 7 18.5 15t14.5 24q2 2 4.5 5t7.5 8t13 14.5t20 25.5l22 20q15 14 23.5 21.5t13.5 12.5t8.5 7.5t9.5 6.5t16 10.5t28 18.5q17 7 32 15t32 16q11 -3 16 -3.5t7 -1.5t4.5 -2.5t8.5 -6.5q5 -11 7.5 -15.5t2.5 -7.5zM625 643q0 13 -8 13
q-5 0 -12.5 -4.5t-14 -10t-11.5 -10.5l-5 -5q-7 -12 -10.5 -16.5t-3.5 -11.5q0 -15 3.5 -20.5t9.5 -5.5q7 0 14.5 4.5t15.5 8.5q8 14 15 27.5t7 30.5zM515 623q-2 8 -4.5 16t-15.5 8q-5 0 -10.5 -5t-10.5 -12t-9 -13.5t-6 -9.5q-2 -7 -3 -12t-1 -10q0 -8 5.5 -11.5
t20.5 -5.5q12 6 17.5 10t8.5 9t4 13t4 23z" />
    <glyph glyph-name="Icircumflex" unicode="&#xce;" horiz-adv-x="325" 
d="M531 527q-4 6 -10 6q-3 0 -5.5 -0.5t-5.5 -0.5q-7 -6 -14.5 -9.5t-15 -9t-16 -14t-17.5 -23.5q-8 -5 -22 -10t-22 -11h-3q-12 0 -24 -5.5t-23 -5.5h-2q-11 -7 -24 -7t-24 -7q-15 -1 -28.5 -7.5t-28.5 -8.5q-10 -7 -21.5 -14.5t-21.5 -16.5t-16.5 -20.5t-6.5 -24.5
q0 -27 24 -37q12 -6 27 -6q17 0 30 7.5t13 18.5v1q-2 2 -5 2q-5 0 -11 -5.5t-13 -5.5q-11 0 -17.5 13t-6.5 23q0 8 7 22q5 9 15 15.5t19 9.5q16 8 29 11.5t28 11.5h1q18 0 33 6t32 11h1q4 0 12 4t15.5 9t14 9t9.5 4l-1 -7q-7 -6 -18 -19t-22.5 -28t-21.5 -30t-13 -25
q-3 -5 -10 -15.5t-13 -24.5t-13.5 -29.5t-15.5 -32.5q-9 -21 -15.5 -34.5t-12.5 -26t-12.5 -26t-16.5 -33.5q-8 -15 -19 -35t-25.5 -40.5t-31 -40.5t-35.5 -35q-34 -14 -58.5 -26.5t-32.5 -24.5q-5 -5 -4.5 -9.5t3.5 -8.5t6.5 -6t5.5 -3l25 2q28 9 48 26.5t33 34.5
q17 10 48 25.5t63 30.5l26 15q5 4 11.5 7t2.5 10l-14 -5q-15 -5 -23.5 -11.5t-22.5 -10.5q-11 -6 -23.5 -13t-23.5 -13t-19.5 -10.5t-10.5 -4.5l-1 1q29 24 44 46t26 33q17 29 36 51.5t34 51.5q6 13 9 19t5 11t6.5 12t13.5 23q5 8 9.5 20.5t6.5 21.5q13 21 28 49.5t29.5 57
t27.5 52.5t23 35q8 8 17.5 12.5t17.5 11.5q9 7 12.5 15.5t5.5 18.5zM596 687q0 8 -7 8q-6 0 -10.5 -0.5t-9.5 -3.5q-16 -6 -31.5 -16t-29.5 -19q-11 -11 -26 -19.5t-29 -21.5q-11 -11 -15 -14t-6 -5q-2 -1 -3 -3.5t-6 -5.5q-2 -2 -8.5 -8t-6.5 -11q0 -2 4 -2q8 1 18 7.5
t15 11.5q16 14 34 27.5t34 27.5q8 4 9 5.5t10 7.5q3 2 7.5 6.5t9.5 4.5q3 0 4 -0.5t1 -5.5l-2 -3q-3 -10 -8.5 -22.5t-5.5 -22.5q0 -2 1 -4.5t5 -13.5q5 -4 13 -11t15 -7q2 0 5 3q2 5 3.5 20t1.5 32q0 3 0.5 6t1.5 7q3 5 4 6.5t1 2.5v5t1 11q3 6 4.5 10t1.5 10z" />
    <glyph glyph-name="idieresis" unicode="&#xef;" horiz-adv-x="157" 
d="M127 136q-16 -5 -30.5 -15t-28.5 -19l-14 -8l-33 -20l-30 -21l-2 -7h7l19 11l15 10l17 8l12 4l13 -3v-6q-11 -21 -19 -36.5t-13 -38.5l3 -3h9q17 0 29.5 7t26.5 16l24 17l11 7q5 4 15 10.5t10 10.5q0 2 -4 2t-7 -1l-12 -9l-20 -11l-14 -8l-6 -4h-6l-9 3v7l6 12
q6 22 18 40t24 38q0 7 -6 7h-5zM201 242q0 9 -6 9q-3 0 -8 -3.5t-9 -7.5t-7 -7.5l-3 -3.5q-5 -9 -7 -12t-2 -8q0 -19 8 -19q5 0 10 3.5t10 6.5q5 10 9.5 20t4.5 22zM130 227q-1 5 -3 11.5t-10 6.5q-7 0 -14 -12.5t-9 -16.5q-3 -11 -3 -17q0 -9 17 -12q7 4 11 7t5.5 6.5
t2.5 9.5t3 17z" />
    <glyph glyph-name="Oacute" unicode="&#xd3;" horiz-adv-x="454" 
d="M529 480q-27 0 -43.5 -2.5t-30.5 -8t-29.5 -15t-39.5 -23.5q-24 -18 -33 -25t-15 -11.5t-14 -12.5t-30 -28h-12q-20 8 -32 20t-12 26q0 4 -1 10.5t0 12.5q10 25 29.5 36.5t38.5 18.5q1 1 5.5 0.5t5.5 -0.5q2 0 3.5 -0.5t2.5 -0.5q2 0 3 -0.5t5 -0.5q16 0 16 9
q0 5 -11.5 6.5t-19.5 1.5t-19 -3.5t-23 -8.5t-22.5 -11.5t-16.5 -13.5q-7 -7 -16.5 -13t-9.5 -16q-8 -8 -9.5 -17t-1.5 -19q0 -12 10.5 -26.5t21.5 -17.5q12 -5 19.5 -7t12 -3.5t7 -4t3.5 -8.5q-20 -28 -26 -40l-12 -24q-5 -9 -15.5 -23t-29.5 -48q-7 -18 -15.5 -35.5
t-10.5 -31.5q-7 -13 -8.5 -25.5t-3.5 -26.5l3 -56l7 -15q5 -23 25.5 -31.5t41.5 -8.5q12 0 20 1.5t16 4.5t17.5 7.5t23.5 10.5q21 10 35 18.5t25.5 18.5t23 21.5t27.5 26.5q7 7 10 9t5 4.5t5.5 6.5t12.5 14q10 13 12.5 18t3 8t3 7.5t11.5 17.5q9 16 13 23t7 12t6.5 11
t10.5 21l12 24q6 23 9 37.5t3 29.5q0 13 -6 34q-4 12 -8 12q-3 0 -5 -7t-3 -12l4 -9q-1 -25 -3.5 -39.5t-8.5 -37.5q-3 -9 -9 -25t-15 -32q-12 -17 -21.5 -41t-19.5 -38q-11 -14 -33.5 -35t-45.5 -43q-7 -2 -13 -7.5t-14.5 -12.5t-20.5 -14t-30 -11q-6 -3 -17 -5.5t-26 -2.5
q-13 0 -21.5 13t-13.5 24q-2 11 -3.5 23.5t-1.5 25.5q0 15 2 29.5t5 26.5q6 10 8 14t3 6.5t2.5 7t4.5 16.5q11 22 21.5 44t21.5 45q9 10 12 14t5 7t4.5 9t9.5 20l15 14q18 0 22.5 -3t8.5 -3q3 0 6 1t11 4q21 4 29.5 4.5t12.5 1t6.5 2t11.5 6.5q10 1 14.5 1.5t7 1.5t5.5 2.5
t11 6.5q10 3 14 4t7 2.5t8 4.5t19 9q8 7 10.5 9t4.5 4t15 7q14 14 24.5 27.5t10.5 27.5q0 20 -31 36h-17zM556 436q0 -14 -13 -28q-19 -17 -34.5 -27t-31 -16.5t-34.5 -12t-46 -12.5q-9 0 -13.5 -0.5t-7.5 -0.5q-5 0 -13 -1t-28 2q-3 1 -3 5q0 5 9 12.5t10 7.5q6 6 8.5 8
t4.5 3.5t5 5t12 11.5q26 17 46.5 34.5t51.5 26.5q17 5 24 7t12 2q20 0 30.5 -7.5t10.5 -19.5zM603 630q0 1 -2 1q-5 0 -9 -2q-5 -2 -7 -3.5t-3 -2.5t-3.5 -2t-8.5 -4l-15 -8q-6 -4 -17 -9t-22.5 -9.5t-22.5 -7.5t-18 -3q-10 -1 -15 -9t-5 -20q0 -6 1 -9q7 -12 13 -12
q3 0 8 2t13 6l12 5q11 5 18 10.5t16 12.5q12 8 21 17.5t19 20.5l8 5l5 4l9.5 9.5t4.5 7.5z" />
    </font>
</defs>
</svg>
